<svg id="svg" version="1.1" xmlns="http://www.w3.org/2000/svg" xmlns:xlink="http://www.w3.org/1999/xlink" width="400" height="396.87721788502483" viewBox="0, 0, 400,396.87721788502483"><g id="svgg"><path id="path0" d="M191.815 6.542 C 188.120 10.158,185.096 13.264,185.096 13.445 C 185.096 13.625,187.828 20.287,191.168 28.249 L 197.241 42.725 204.653 42.801 C 210.358 42.859,212.065 42.797,212.065 42.529 C 212.065 41.330,199.702 1.201,199.155 0.622 L 198.535 -0.033 191.815 6.542 M200.308 2.342 C 200.420 2.693,203.246 11.919,206.587 22.844 C 209.929 33.769,212.713 42.758,212.775 42.820 C 212.837 42.882,216.004 42.839,219.814 42.724 L 226.740 42.516 226.249 40.066 C 225.979 38.718,225.155 34.474,224.417 30.636 L 223.076 23.656 211.764 12.680 C 200.199 1.460,199.956 1.240,200.308 2.342 M178.119 19.927 L 171.644 26.320 175.999 34.381 C 178.394 38.814,180.495 42.621,180.667 42.840 C 180.960 43.214,196.281 43.133,196.658 42.756 C 196.758 42.656,185.392 14.998,184.813 13.935 C 184.653 13.640,182.865 15.241,178.119 19.927 M223.704 24.577 C 223.704 24.722,224.485 28.833,225.440 33.712 L 227.176 42.583 233.957 42.583 L 240.738 42.583 240.738 41.691 C 240.738 40.900,240.029 40.110,234.564 34.810 C 224.522 25.071,223.705 24.301,223.704 24.577 M165.284 32.729 L 159.258 38.760 160.807 40.986 L 162.357 43.212 171.233 43.167 C 176.115 43.142,180.139 43.093,180.175 43.057 C 180.253 42.979,171.785 27.204,171.504 26.904 C 171.398 26.790,168.599 29.411,165.284 32.729 M156.707 41.306 L 154.592 43.435 158.204 43.435 C 160.191 43.435,161.817 43.351,161.817 43.249 C 161.817 42.968,159.187 39.177,158.992 39.177 C 158.898 39.177,157.870 40.135,156.707 41.306 M241.224 42.016 C 241.311 42.349,241.611 42.583,241.951 42.583 C 242.511 42.583,242.513 42.566,242.016 42.016 C 241.733 41.703,241.406 41.448,241.288 41.448 C 241.171 41.448,241.142 41.703,241.224 42.016 M221.983 60.456 L 218.133 60.610 228.347 94.038 L 238.562 127.466 240.947 127.466 C 243.086 127.466,243.316 127.415,243.182 126.969 C 243.023 126.444,230.234 60.642,230.234 60.353 C 230.234 60.177,228.391 60.200,221.983 60.456 M230.802 60.478 C 230.802 60.858,243.832 126.644,244.000 127.111 C 244.233 127.762,248.403 127.590,248.403 126.929 C 248.403 126.634,247.828 120.105,247.126 112.420 C 246.423 104.735,245.848 98.206,245.848 97.911 C 245.848 97.449,245.629 97.374,244.287 97.374 C 242.986 97.374,242.727 97.291,242.734 96.877 C 242.754 95.650,240.970 61.393,240.855 60.823 C 240.713 60.115,230.802 59.775,230.802 60.478 M181.062 60.738 L 174.331 60.894 191.930 86.787 L 209.528 112.679 216.838 119.292 C 220.858 122.929,224.442 126.158,224.801 126.467 C 225.319 126.912,225.200 126.557,224.233 124.764 C 223.561 123.518,215.521 108.573,206.368 91.554 L 189.725 60.610 188.759 60.596 C 188.227 60.589,184.764 60.652,181.062 60.738 M191.279 62.522 C 191.901 63.656,196.046 71.292,200.491 79.489 C 211.286 99.400,225.056 124.780,225.827 126.189 L 226.448 127.324 229.193 127.406 C 230.702 127.450,231.936 127.450,231.933 127.406 C 231.931 127.361,225.695 112.314,218.076 93.967 L 204.223 60.610 197.186 60.534 L 190.149 60.458 191.279 62.522 M204.838 60.823 C 204.913 61.018,211.219 76.061,218.851 94.251 L 232.727 127.324 235.171 127.406 C 236.515 127.451,237.620 127.388,237.625 127.264 C 237.630 127.141,233.127 112.063,227.618 93.756 L 217.601 60.472 211.152 60.470 C 206.108 60.469,204.732 60.546,204.838 60.823 M261.035 69.070 C 260.780 79.618,260.637 78.758,262.671 78.864 C 263.568 78.911,264.302 78.847,264.303 78.722 C 264.305 78.598,264.624 75.755,265.013 72.406 C 265.978 64.100,266.111 64.957,263.474 62.535 L 261.243 60.485 261.035 69.070 M155.035 70.878 L 155.067 81.050 171.185 96.877 C 183.658 109.124,187.461 112.704,188.001 112.704 C 188.812 112.704,189.517 113.389,189.777 114.430 C 190.113 115.779,197.018 122.380,197.023 121.358 C 197.026 120.892,197.095 118.403,197.176 115.827 L 197.325 111.143 176.447 86.018 C 164.964 72.200,155.442 60.852,155.286 60.800 C 155.102 60.738,155.015 64.233,155.035 70.878 M156.457 61.312 C 156.672 61.624,165.919 72.728,177.005 85.988 L 197.161 110.096 197.341 108.348 C 197.440 107.387,197.536 105.537,197.554 104.237 L 197.587 101.874 201.436 105.373 C 207.838 111.191,207.836 111.328,201.480 101.900 C 198.276 97.146,190.743 85.976,184.742 77.076 L 173.829 60.894 164.947 60.819 C 156.117 60.745,156.067 60.747,156.457 61.312 M125.339 72.673 L 116.540 81.476 124.877 81.476 C 132.199 81.476,133.171 81.425,132.865 81.057 C 132.674 80.826,130.675 79.147,128.424 77.326 C 126.172 75.504,124.382 73.962,124.445 73.899 C 124.509 73.835,126.715 75.517,129.349 77.637 L 134.138 81.490 134.216 77.083 C 134.259 74.659,134.259 70.695,134.216 68.273 L 134.138 63.871 125.339 72.673 M266.288 65.958 C 266.288 66.441,265.218 76.436,265.013 77.863 L 264.860 78.935 269.761 78.857 L 274.662 78.779 275.156 76.508 L 275.650 74.237 271.182 69.919 C 266.701 65.589,266.288 65.255,266.288 65.958 M275.696 76.556 C 275.192 79.066,275.052 78.923,277.999 78.908 L 280.625 78.894 278.515 76.921 C 275.977 74.546,276.096 74.561,275.696 76.556 M155.009 90.039 L 155.015 98.368 163.938 105.536 L 172.862 112.704 179.664 112.704 L 186.466 112.704 171.657 97.974 C 163.513 89.873,156.434 82.899,155.926 82.477 L 155.004 81.710 155.009 90.039 M246.542 98.581 C 246.630 99.244,247.213 105.280,247.836 111.994 C 248.460 118.708,249.046 124.936,249.140 125.834 L 249.311 127.466 251.554 127.466 L 253.797 127.466 253.799 114.336 C 253.800 107.115,253.882 100.344,253.982 99.290 L 254.163 97.374 250.272 97.374 L 246.381 97.374 246.542 98.581 M254.646 111.414 C 254.644 119.072,254.563 125.816,254.466 126.402 L 254.291 127.466 256.031 127.466 L 257.771 127.466 257.771 120.527 C 257.771 112.838,257.806 112.704,259.774 112.704 L 260.515 112.704 261.320 105.323 C 261.763 101.264,262.072 97.893,262.006 97.832 C 261.941 97.772,260.259 97.670,258.268 97.606 L 254.649 97.490 254.646 111.414 M262.777 98.864 C 262.684 99.528,262.349 102.562,262.033 105.607 C 261.717 108.652,261.399 111.494,261.326 111.923 L 261.192 112.704 264.269 112.704 L 267.345 112.704 267.653 111.214 C 267.822 110.394,268.542 107.049,269.253 103.780 C 269.965 100.511,270.546 97.796,270.546 97.747 C 270.546 97.698,268.836 97.658,266.746 97.658 L 262.946 97.658 262.777 98.864 M269.674 105.098 L 268.099 112.562 271.206 112.643 C 272.914 112.687,274.354 112.682,274.404 112.632 C 274.601 112.435,279.137 98.206,279.032 98.115 C 278.971 98.061,277.195 97.931,275.086 97.826 L 271.250 97.634 269.674 105.098 M279.721 98.439 C 279.644 98.712,278.596 102.001,277.393 105.749 L 275.204 112.562 277.815 112.704 C 279.752 112.809,280.567 112.974,280.971 113.340 C 281.500 113.821,281.553 113.749,282.844 110.776 L 284.173 107.718 284.173 102.830 L 284.173 97.942 282.017 97.942 C 280.207 97.942,279.839 98.021,279.721 98.439 M155.004 99.457 C 155.004 99.796,153.849 99.897,148.261 100.051 C 141.275 100.243,136.208 100.461,136.094 100.575 C 136.010 100.659,165.174 119.800,165.687 119.997 C 166.001 120.118,166.075 119.525,166.075 116.886 C 166.075 112.912,166.084 112.901,169.410 112.704 L 171.808 112.562 163.782 106.033 C 154.845 98.764,155.004 98.882,155.004 99.457 M124.769 100.795 C 121.803 100.903,117.938 101.007,116.182 101.028 L 112.988 101.065 112.988 102.458 L 112.988 103.852 115.398 105.155 C 116.724 105.872,117.855 106.458,117.913 106.458 C 117.970 106.458,118.102 105.540,118.206 104.417 C 118.311 103.294,118.449 102.322,118.514 102.257 C 118.579 102.192,121.387 104.650,124.753 107.718 L 130.875 113.298 144.326 120.382 L 157.777 127.466 161.926 127.466 L 166.075 127.466 166.075 124.244 L 166.075 121.022 150.581 110.759 L 135.088 100.497 132.625 100.548 C 131.271 100.577,127.736 100.688,124.769 100.795 M303.762 103.562 C 303.762 104.999,303.808 106.175,303.866 106.175 C 303.953 106.175,305.059 104.628,305.808 103.458 C 305.921 103.281,305.519 102.665,304.885 102.047 L 303.762 100.949 303.762 103.562 M91.146 106.866 L 87.899 110.123 89.301 110.729 C 92.354 112.048,94.282 112.768,94.413 112.637 C 94.488 112.562,94.515 110.500,94.472 108.055 L 94.393 103.609 91.146 106.866 M305.078 105.579 L 303.762 107.506 303.781 112.873 C 303.792 115.825,303.888 118.451,303.994 118.709 C 304.166 119.126,308.491 114.459,311.909 110.171 L 312.533 109.387 309.464 106.520 L 306.395 103.652 305.078 105.579 M113.054 112.463 L 113.130 120.455 115.371 121.412 C 116.604 121.938,117.643 122.334,117.679 122.291 C 117.716 122.249,117.838 118.811,117.950 114.651 L 118.155 107.087 115.755 105.779 C 114.436 105.060,113.271 104.471,113.168 104.471 C 113.064 104.471,113.013 108.068,113.054 112.463 M283.982 109.865 C 283.804 110.256,283.200 111.640,282.639 112.942 L 281.618 115.309 281.618 121.599 L 281.618 127.888 283.118 125.193 L 284.618 122.498 284.461 115.827 C 284.336 110.527,284.238 109.301,283.982 109.865 M308.490 115.132 L 304.032 120.342 304.109 125.024 L 304.187 129.706 311.498 122.749 C 315.518 118.922,318.808 115.702,318.808 115.592 C 318.808 115.482,317.489 114.162,315.878 112.657 L 312.949 109.922 308.490 115.132 M80.917 117.096 C 77.257 120.758,74.337 123.828,74.427 123.919 C 74.581 124.072,94.036 130.021,94.385 130.021 C 94.472 130.021,94.510 126.234,94.468 121.604 L 94.393 113.187 91.492 111.974 C 89.896 111.306,88.361 110.688,88.081 110.599 C 87.696 110.477,85.938 112.071,80.917 117.096 M133.002 115.189 C 133.314 115.502,136.490 118.392,140.058 121.612 L 146.547 127.466 151.400 127.466 C 154.191 127.466,156.138 127.361,155.983 127.218 C 155.835 127.081,151.306 124.639,145.919 121.792 C 140.532 118.944,135.295 116.165,134.280 115.617 C 133.052 114.954,132.624 114.811,133.002 115.189 M189.922 121.280 C 189.922 127.927,189.511 127.466,195.439 127.466 L 199.695 127.466 198.357 126.108 C 197.365 125.101,197.019 124.531,197.019 123.904 C 197.019 123.199,196.427 122.467,193.471 119.517 L 189.922 115.977 189.922 121.280 M311.644 123.437 L 304.054 130.731 304.049 134.493 C 304.047 136.561,304.114 138.254,304.198 138.254 C 304.282 138.254,308.969 134.645,314.612 130.234 C 320.256 125.823,325.009 122.119,325.176 122.002 C 325.437 121.820,319.808 116.132,319.375 116.141 C 319.297 116.142,315.818 119.426,311.644 123.437 M112.988 128.290 L 112.988 135.644 114.948 136.239 C 116.026 136.567,117.048 136.835,117.219 136.835 C 117.432 136.835,117.530 135.354,117.530 132.150 L 117.530 127.466 118.808 127.466 C 120.378 127.466,120.383 127.382,118.887 126.054 C 117.875 125.156,117.687 124.821,117.680 123.896 C 117.673 122.882,114.997 121.126,113.201 120.957 C 113.084 120.946,112.988 124.246,112.988 128.290 M175.302 122.812 C 170.066 125.661,170.887 133.005,176.579 134.245 C 183.163 135.680,186.817 126.998,181.222 123.211 C 179.881 122.303,176.638 122.084,175.302 122.812 M266.998 122.811 C 261.170 125.979,263.023 134.351,269.553 134.351 C 277.503 134.351,277.778 122.770,269.837 122.433 C 268.407 122.372,267.610 122.478,266.998 122.811 M314.942 130.809 L 304.187 139.261 304.106 142.029 C 304.061 143.551,304.125 144.975,304.248 145.193 C 304.459 145.567,331.587 128.728,331.800 128.091 C 331.869 127.884,326.108 122.356,325.823 122.356 C 325.753 122.356,320.857 126.160,314.942 130.809 M283.101 126.722 L 281.603 129.386 281.681 133.517 L 281.760 137.648 283.257 135.517 L 284.754 133.387 284.677 128.722 L 284.599 124.058 283.101 126.722 M70.546 127.537 C 68.846 129.294,61.700 136.512,54.666 143.577 C 43.920 154.370,41.989 156.429,42.585 156.460 C 43.180 156.492,43.148 156.526,42.385 156.673 C 41.299 156.883,2.224 196.435,0.382 199.189 C -0.059 199.848,-0.143 199.760,12.915 212.351 C 21.897 221.012,31.772 230.502,33.562 232.195 L 35.471 234.000 46.461 224.810 C 52.505 219.755,57.714 215.401,58.037 215.134 C 58.608 214.660,58.593 214.650,57.488 214.766 C 56.458 214.874,56.480 214.856,57.721 214.576 C 58.923 214.305,60.227 213.316,68.367 206.498 C 73.469 202.224,77.727 198.727,77.830 198.725 C 77.932 198.724,77.966 199.713,77.906 200.923 C 77.485 209.357,77.512 210.646,78.114 210.646 C 78.610 210.646,92.739 208.068,94.464 207.662 L 95.103 207.512 95.103 199.982 L 95.103 192.451 94.180 192.600 C 93.673 192.682,90.767 192.946,87.722 193.187 C 84.677 193.427,81.611 193.683,80.908 193.755 C 80.206 193.826,78.034 194.016,76.082 194.176 C 74.131 194.336,71.895 194.528,71.114 194.602 C 64.417 195.239,55.823 195.908,55.296 195.834 C 54.940 195.783,60.206 195.254,66.998 194.657 C 73.790 194.061,82.695 193.263,86.787 192.883 C 90.880 192.504,94.434 192.193,94.687 192.193 C 95.149 192.193,95.253 178.052,94.794 177.595 C 94.702 177.503,84.929 177.322,73.077 177.192 L 51.526 176.955 73.157 176.909 L 94.789 176.863 94.875 172.818 C 94.922 170.593,94.925 167.296,94.882 165.491 L 94.802 162.210 76.003 160.239 C 65.663 159.155,57.470 158.230,57.795 158.184 C 58.121 158.137,62.145 158.485,66.738 158.956 C 71.331 159.427,78.921 160.198,83.605 160.669 C 88.290 161.140,92.731 161.603,93.475 161.698 L 94.828 161.871 94.753 154.269 L 94.677 146.667 80.697 143.832 C 73.008 142.272,66.767 140.945,66.830 140.883 C 66.892 140.820,73.153 142.011,80.743 143.529 C 88.334 145.047,94.616 146.216,94.705 146.128 C 94.794 146.039,94.774 142.464,94.661 138.183 L 94.456 130.399 84.473 127.371 C 78.983 125.706,74.299 124.344,74.064 124.344 C 73.829 124.344,72.246 125.781,70.546 127.537 M318.417 137.511 C 310.785 142.401,304.461 146.581,304.364 146.800 C 304.267 147.018,304.251 148.305,304.329 149.661 L 304.471 152.125 321.728 143.389 L 338.985 134.653 335.741 131.628 C 333.956 129.963,332.451 128.606,332.394 128.611 C 332.338 128.616,326.048 132.621,318.417 137.511 M283.224 136.845 C 281.717 138.986,281.618 139.228,281.618 140.781 C 281.618 142.960,280.923 143.932,279.364 143.932 L 278.287 143.932 269.821 156.068 C 265.165 162.743,261.037 168.652,260.647 169.198 C 259.226 171.188,261.194 168.971,273.073 155.199 L 285.025 141.343 285.025 137.953 C 285.025 136.089,284.981 134.564,284.927 134.564 C 284.874 134.564,284.107 135.590,283.224 136.845 M321.789 144.070 L 304.471 152.947 304.390 155.526 L 304.308 158.106 305.241 157.722 C 305.755 157.511,315.117 153.856,326.047 149.600 C 336.977 145.344,345.983 141.803,346.061 141.733 C 346.209 141.598,339.496 135.134,339.248 135.172 C 339.170 135.184,331.313 139.188,321.789 144.070 M113.215 143.009 C 113.279 146.718,113.413 149.829,113.514 149.923 C 113.615 150.017,123.726 152.093,135.983 154.536 L 158.268 158.978 166.984 158.978 L 175.700 158.978 175.785 160.741 L 175.869 162.503 177.715 162.866 C 178.730 163.066,179.847 163.297,180.199 163.380 C 180.820 163.527,180.837 163.470,180.837 161.263 L 180.837 158.995 184.270 158.916 L 187.703 158.836 163.191 151.375 L 138.680 143.914 135.557 143.923 C 133.840 143.927,129.081 143.847,124.982 143.744 L 117.530 143.557 117.530 140.492 L 117.530 137.426 115.583 136.847 C 114.513 136.528,113.516 136.267,113.368 136.267 C 113.203 136.267,113.144 138.879,113.215 143.009 M64.869 140.367 C 65.806 140.578,66.253 140.752,65.862 140.753 C 65.066 140.755,62.074 140.037,62.740 140.004 C 62.974 139.992,63.932 140.155,64.869 140.367 M325.337 150.526 C 313.861 155.058,304.434 158.798,304.388 158.837 C 304.343 158.876,304.343 159.932,304.388 161.183 L 304.471 163.459 328.886 156.536 C 342.314 152.729,353.492 149.537,353.726 149.443 C 354.183 149.259,347.093 142.202,346.506 142.257 C 346.339 142.272,336.813 145.993,325.337 150.526 M272.834 156.677 C 266.207 164.422,261.316 170.312,261.966 169.766 C 262.615 169.219,268.107 164.045,274.169 158.268 L 285.191 147.764 285.084 145.209 C 285.025 143.804,284.955 142.641,284.930 142.624 C 284.904 142.608,279.461 148.931,272.834 156.677 M189.297 143.978 C 189.463 144.134,240.217 170.898,243.293 172.452 C 245.121 173.374,243.766 172.408,237.048 167.995 C 233.378 165.585,223.700 159.189,215.541 153.783 L 200.706 143.954 194.902 143.872 C 191.709 143.827,189.187 143.874,189.297 143.978 M140.951 144.080 C 141.107 144.136,152.317 147.512,165.863 151.580 L 190.490 158.978 194.606 158.978 L 198.722 158.978 198.722 160.211 L 198.722 161.444 208.304 164.334 C 235.433 172.516,243.158 174.821,243.226 174.753 C 243.267 174.712,239.243 173.005,234.283 170.959 C 229.324 168.913,212.574 161.995,197.061 155.585 L 168.856 143.932 154.761 143.954 C 147.010 143.967,140.795 144.023,140.951 144.080 M170.926 144.051 C 171.097 144.222,243.962 174.020,244.026 173.945 C 244.055 173.910,231.376 167.143,215.849 158.907 L 187.620 143.932 179.213 143.932 C 174.590 143.932,170.860 143.986,170.926 144.051 M202.707 144.331 C 202.936 144.551,212.129 150.635,223.137 157.853 C 234.145 165.070,243.534 171.234,244.003 171.550 C 246.040 172.926,243.076 170.454,227.253 157.582 L 210.504 143.955 206.398 143.944 C 202.862 143.933,202.349 143.987,202.707 144.331 M212.075 144.322 C 212.392 144.619,242.833 169.148,245.706 171.422 C 246.018 171.669,239.950 165.592,232.221 157.917 L 218.169 143.963 214.914 143.947 C 212.142 143.934,211.721 143.990,212.075 144.322 M221.724 146.366 C 226.692 151.390,246.795 171.014,246.262 170.319 C 245.956 169.920,240.921 163.820,235.072 156.763 L 224.438 143.932 221.878 143.932 L 219.317 143.932 221.724 146.366 M225.692 144.092 C 225.692 144.238,246.703 169.547,247.359 170.192 C 247.828 170.651,246.983 169.374,238.196 156.338 L 229.835 143.932 227.763 143.932 C 226.624 143.932,225.692 144.004,225.692 144.092 M231.190 144.362 C 231.384 144.868,247.447 168.599,247.905 169.056 C 248.061 169.212,247.505 168.062,246.668 166.501 C 245.832 164.940,242.781 159.255,239.888 153.868 L 234.628 144.074 232.821 143.988 C 231.253 143.914,231.037 143.964,231.190 144.362 M235.628 144.086 C 235.628 144.186,236.959 146.716,238.586 149.707 C 240.213 152.698,243.279 158.339,245.400 162.242 C 247.520 166.145,249.253 169.275,249.252 169.197 C 249.250 169.120,246.911 163.435,244.054 156.565 L 238.860 144.074 237.244 143.989 C 236.355 143.942,235.628 143.986,235.628 144.086 M239.881 144.130 C 239.875 144.429,249.908 168.356,250.000 168.263 C 250.040 168.224,248.434 162.765,246.432 156.133 L 242.792 144.074 241.339 143.988 C 240.540 143.941,239.884 144.005,239.881 144.130 M243.971 145.138 C 249.006 161.681,250.803 167.461,250.884 167.379 C 250.966 167.298,247.061 146.722,246.555 144.571 C 246.425 144.015,246.223 143.932,245.005 143.932 L 243.604 143.932 243.971 145.138 M247.415 144.571 C 247.502 144.922,248.589 150.256,249.830 156.423 C 251.072 162.590,252.033 166.934,251.967 166.075 C 251.901 165.216,251.430 159.883,250.920 154.223 L 249.993 143.932 248.625 143.932 C 247.348 143.932,247.267 143.975,247.415 144.571 M250.958 144.518 C 250.958 145.175,251.870 154.801,252.651 162.385 L 253.162 167.353 253.196 163.353 C 253.214 161.154,253.314 155.884,253.417 151.643 L 253.604 143.932 252.281 143.932 C 251.133 143.932,250.958 144.010,250.958 144.518 M254.398 155.216 L 254.430 166.501 255.659 155.855 C 257.199 142.519,257.201 143.932,255.642 143.932 L 254.365 143.932 254.398 155.216 M256.820 153.655 C 255.265 168.122,255.265 168.124,257.896 156.152 C 259.215 150.147,260.368 144.942,260.458 144.583 C 260.611 143.971,260.538 143.932,259.243 143.932 L 257.865 143.932 256.820 153.655 M261.322 144.571 C 260.651 147.418,256.370 167.892,256.433 167.954 C 256.477 167.998,258.219 162.771,260.303 156.338 C 262.388 149.905,264.151 144.482,264.221 144.287 C 264.312 144.033,263.939 143.932,262.911 143.932 C 261.653 143.932,261.454 144.012,261.322 144.571 M263.192 150.106 C 258.714 164.042,257.506 167.892,257.587 167.973 C 257.634 168.020,258.606 165.919,259.746 163.305 C 260.887 160.691,263.209 155.409,264.906 151.567 C 268.505 143.420,268.393 143.932,266.584 143.932 L 265.177 143.932 263.192 150.106 M268.860 144.571 C 268.721 144.922,266.299 150.503,263.478 156.972 C 260.658 163.442,258.379 168.764,258.415 168.798 C 258.512 168.890,272.091 144.773,272.200 144.318 C 272.379 143.562,269.163 143.805,268.860 144.571 M266.999 155.500 C 263.440 161.863,260.206 167.644,259.813 168.346 C 259.419 169.049,259.226 169.496,259.382 169.340 C 259.831 168.892,277.076 144.297,277.076 144.104 C 277.076 144.009,276.265 143.932,275.273 143.932 L 273.471 143.932 266.999 155.500 M274.805 158.717 C 269.262 164.026,264.024 169.081,263.165 169.951 C 262.289 170.838,266.802 167.499,273.444 162.345 L 285.285 153.158 285.297 151.100 C 285.303 149.968,285.213 149.047,285.096 149.053 C 284.979 149.059,280.348 153.408,274.805 158.717 M329.102 157.091 L 304.335 164.230 304.332 166.436 C 304.329 168.579,304.347 168.637,304.968 168.489 C 305.319 168.405,318.254 166.035,333.712 163.222 C 349.170 160.410,362.084 158.017,362.411 157.904 C 363.118 157.661,355.266 149.870,354.366 149.922 C 354.092 149.938,342.723 153.164,329.102 157.091 M113.272 157.081 L 113.272 163.700 118.681 164.257 C 125.032 164.911,124.344 165.213,124.344 161.770 L 124.344 158.978 133.144 158.978 L 141.945 158.978 141.945 162.811 C 141.945 166.265,141.994 166.645,142.441 166.659 C 142.715 166.667,146.292 167.026,150.390 167.456 L 157.842 168.238 157.842 163.911 C 157.842 160.036,157.791 159.568,157.346 159.435 C 157.072 159.352,151.419 158.185,144.784 156.841 C 138.148 155.497,128.379 153.512,123.075 152.429 C 117.771 151.347,113.395 150.461,113.352 150.461 C 113.308 150.461,113.272 153.440,113.272 157.081 M273.953 162.978 C 267.786 167.827,262.612 171.924,262.456 172.084 C 262.181 172.365,264.287 171.048,278.566 162.010 L 285.309 157.742 285.309 155.947 C 285.309 154.960,285.277 154.154,285.238 154.157 C 285.199 154.160,280.121 158.130,273.953 162.978 M45.493 156.907 C 45.142 156.975,44.567 156.975,44.216 156.907 C 43.864 156.840,44.152 156.784,44.855 156.784 C 45.557 156.784,45.845 156.840,45.493 156.907 M48.332 157.191 C 47.981 157.259,47.406 157.259,47.055 157.191 C 46.703 157.123,46.991 157.068,47.693 157.068 C 48.396 157.068,48.683 157.123,48.332 157.191 M51.175 157.475 C 50.826 157.542,50.187 157.544,49.756 157.478 C 49.324 157.413,49.610 157.358,50.390 157.356 C 51.171 157.354,51.524 157.407,51.175 157.475 M53.726 157.759 C 53.375 157.827,52.800 157.827,52.449 157.759 C 52.097 157.691,52.385 157.636,53.087 157.636 C 53.790 157.636,54.077 157.691,53.726 157.759 M56.569 158.042 C 56.220 158.110,55.581 158.111,55.149 158.046 C 54.718 157.981,55.004 157.926,55.784 157.924 C 56.565 157.922,56.918 157.975,56.569 158.042 M354.294 160.013 C 349.844 160.857,336.813 163.302,325.337 165.446 L 304.471 169.345 304.471 171.399 C 304.471 172.529,304.538 173.454,304.620 173.455 C 304.770 173.456,307.901 173.190,344.500 170.065 C 355.429 169.132,366.224 168.215,368.488 168.028 C 370.752 167.842,372.705 167.602,372.829 167.496 C 373.239 167.141,363.807 158.406,363.056 158.445 C 362.687 158.464,358.744 159.169,354.294 160.013 M279.205 162.567 C 275.926 164.661,271.008 167.799,268.275 169.540 C 265.543 171.280,263.180 172.822,263.023 172.967 C 262.799 173.176,285.185 161.928,285.547 161.651 C 285.600 161.610,285.536 160.943,285.405 160.168 L 285.167 158.758 279.205 162.567 M198.782 164.723 L 198.864 167.061 220.440 171.382 C 232.307 173.758,242.169 175.676,242.357 175.644 C 242.692 175.587,199.365 162.347,198.924 162.372 C 198.801 162.379,198.737 163.437,198.782 164.723 M274.606 168.153 C 268.798 171.138,264.080 173.614,264.122 173.656 C 264.164 173.698,269.012 171.855,274.896 169.559 L 285.593 165.386 285.593 164.027 C 285.593 162.329,286.887 161.843,274.606 168.153 M175.727 166.616 L 175.727 169.996 177.218 170.177 C 178.038 170.276,179.187 170.427,179.773 170.512 L 180.837 170.667 180.837 167.417 L 180.837 164.166 178.495 163.701 C 177.207 163.445,176.057 163.236,175.940 163.236 C 175.823 163.236,175.727 164.757,175.727 166.616 M113.272 170.612 L 113.272 177.147 123.847 177.147 C 129.663 177.147,139.691 177.232,146.132 177.335 L 157.842 177.523 157.842 173.232 L 157.842 168.940 156.920 168.792 C 156.412 168.710,153.442 168.385,150.319 168.069 C 147.197 167.753,144.035 167.419,143.293 167.326 L 141.945 167.158 141.945 171.017 L 141.945 174.876 133.144 174.876 L 124.344 174.876 124.344 170.101 L 124.344 165.325 119.446 164.833 C 116.753 164.563,114.262 164.282,113.911 164.209 L 113.272 164.077 113.272 170.612 M275.018 170.398 C 269.437 172.601,264.915 174.449,264.970 174.504 C 265.026 174.559,269.688 173.300,275.332 171.706 L 285.593 168.807 285.593 167.583 C 285.593 166.060,286.858 165.724,275.018 170.398 M198.722 170.039 C 198.722 172.742,197.856 172.368,205.962 173.159 C 209.241 173.479,218.822 174.443,227.253 175.301 C 235.685 176.159,242.647 176.850,242.725 176.837 C 242.920 176.803,233.573 174.872,215.330 171.177 C 206.899 169.469,199.713 168.004,199.361 167.920 C 198.739 167.772,198.722 167.828,198.722 170.039 M370.334 168.367 C 369.084 168.492,367.296 168.664,366.359 168.748 C 356.197 169.661,327.056 172.255,318.240 173.032 C 312.072 173.576,306.483 174.093,305.820 174.182 L 304.613 174.343 304.613 176.313 C 304.613 177.396,304.645 178.284,304.684 178.287 C 305.877 178.358,385.086 179.097,385.146 179.037 C 385.434 178.748,373.805 168.066,373.238 168.100 C 372.890 168.121,371.583 168.241,370.334 168.367 M274.898 172.692 C 269.406 174.281,264.953 175.622,265.002 175.671 C 265.072 175.741,281.491 172.823,284.812 172.150 C 285.504 172.010,285.593 171.865,285.593 170.879 C 285.593 169.474,286.608 169.302,274.898 172.692 M175.727 174.166 L 175.727 177.431 178.282 177.431 L 180.837 177.431 180.837 174.348 L 180.837 171.266 179.092 171.084 C 178.133 170.983,176.983 170.901,176.537 170.901 L 175.727 170.901 175.727 174.166 M275.373 174.745 C 270.142 175.738,265.607 176.611,265.295 176.686 C 264.379 176.904,266.878 176.719,278.211 175.725 C 281.725 175.417,284.886 175.164,285.238 175.163 C 285.895 175.160,286.098 174.365,285.704 173.338 C 285.487 172.773,286.470 172.639,275.373 174.745 M198.722 175.411 L 198.722 177.715 214.149 177.715 C 222.633 177.715,232.502 177.780,236.079 177.859 C 239.656 177.939,242.456 177.941,242.300 177.864 C 242.143 177.788,232.818 176.762,221.576 175.586 C 210.334 174.409,200.593 173.370,199.929 173.277 L 198.722 173.108 198.722 175.411 M274.805 176.887 C 270.199 177.325,266.047 177.734,265.578 177.796 C 265.110 177.857,269.485 177.928,275.302 177.953 L 285.877 177.999 285.877 177.005 L 285.877 176.011 284.528 176.051 C 283.786 176.073,279.411 176.449,274.805 176.887 M26.624 176.787 C 25.888 176.846,24.610 176.846,23.785 176.789 C 22.960 176.731,23.563 176.684,25.124 176.683 C 26.686 176.682,27.361 176.729,26.624 176.787 M45.938 176.792 C 43.020 176.838,38.166 176.838,35.150 176.792 C 32.134 176.746,34.521 176.708,40.454 176.708 C 46.388 176.708,48.855 176.745,45.938 176.792 M113.272 184.141 L 113.272 190.568 114.762 190.403 C 115.582 190.313,118.007 190.085,120.150 189.898 L 124.048 189.557 124.125 184.133 L 124.202 178.708 133.428 178.708 L 142.654 178.708 142.732 183.338 L 142.811 187.967 144.010 187.809 C 144.670 187.721,147.509 187.456,150.319 187.219 C 153.130 186.982,155.972 186.719,156.636 186.634 L 157.842 186.480 157.842 182.286 L 157.842 178.091 143.317 177.903 C 135.329 177.799,125.300 177.715,121.032 177.715 L 113.272 177.715 113.272 184.141 M175.727 181.520 C 175.727 185.303,175.510 185.051,178.495 184.726 L 180.837 184.471 180.837 181.661 C 180.837 180.115,180.869 178.754,180.908 178.637 C 180.947 178.520,179.798 178.388,178.353 178.343 L 175.727 178.261 175.727 181.520 M198.722 180.732 L 198.722 182.898 200.639 182.721 C 201.693 182.624,209.134 181.961,217.175 181.247 C 225.216 180.534,234.223 179.729,237.189 179.459 L 242.583 178.967 230.117 178.767 C 223.260 178.657,213.391 178.566,208.186 178.566 L 198.722 178.566 198.722 180.732 M265.295 179.027 C 266.117 179.171,284.849 181.121,285.407 181.121 C 285.750 181.121,285.877 180.866,285.877 180.171 L 285.877 179.221 282.683 179.037 C 279.462 178.851,264.240 178.842,265.295 179.027 M304.672 181.179 L 304.755 183.223 331.015 185.978 C 345.458 187.494,359.766 189.002,362.811 189.329 C 365.855 189.656,375.053 190.623,383.251 191.477 C 391.448 192.331,398.602 193.098,399.148 193.182 C 400.149 193.336,394.858 187.858,387.885 181.522 L 385.849 179.671 350.270 179.412 C 330.702 179.269,312.418 179.148,309.640 179.143 L 304.588 179.134 304.672 181.179 M219.872 181.850 C 208.630 182.837,199.273 183.651,199.077 183.660 C 198.824 183.672,198.722 184.333,198.722 185.970 L 198.722 188.264 199.503 188.106 C 199.933 188.019,205.522 186.977,211.923 185.791 C 233.786 181.740,242.584 180.027,241.448 180.042 C 240.823 180.050,231.114 180.864,219.872 181.850 M265.295 180.149 C 265.617 180.283,285.307 184.244,285.652 184.244 C 285.776 184.244,285.877 183.733,285.877 183.109 C 285.877 182.178,285.778 181.973,285.332 181.973 C 285.032 181.973,280.404 181.526,275.048 180.979 C 265.166 179.971,264.791 179.939,265.295 180.149 M220.014 185.109 C 208.382 187.264,198.833 189.037,198.793 189.049 C 198.754 189.061,198.722 190.135,198.722 191.436 L 198.722 193.802 213.414 189.579 C 238.990 182.226,242.601 181.160,241.874 181.175 C 241.483 181.183,231.647 182.954,220.014 185.109 M275.344 184.381 C 281.183 186.185,285.998 187.624,286.043 187.579 C 286.087 187.535,286.055 186.984,285.971 186.357 L 285.818 185.215 276.124 183.285 C 270.792 182.223,266.047 181.297,265.578 181.228 C 265.110 181.158,269.504 182.577,275.344 184.381 M264.443 182.243 C 264.755 182.372,269.694 184.408,275.418 186.767 C 281.142 189.127,285.901 191.057,285.993 191.057 C 286.450 191.057,286.138 188.534,285.664 188.396 C 285.390 188.316,280.482 186.838,274.757 185.112 C 265.332 182.270,262.798 181.565,264.443 182.243 M215.130 189.875 L 188.527 197.445 194.831 197.515 C 198.864 197.559,201.359 197.701,201.757 197.908 C 202.284 198.183,239.320 184.065,242.158 182.508 C 243.246 181.910,240.156 182.753,215.130 189.875 M263.449 182.885 C 263.527 182.961,268.126 185.422,273.669 188.353 C 279.212 191.285,284.290 193.992,284.954 194.369 L 286.160 195.056 286.157 193.553 L 286.154 192.051 275.042 187.509 C 263.013 182.592,263.241 182.682,263.449 182.885 M223.551 190.729 C 212.928 194.891,203.957 198.424,203.616 198.581 C 203.032 198.848,203.106 198.955,204.879 200.409 L 206.762 201.955 213.459 198.520 C 217.143 196.631,225.330 192.442,231.654 189.212 C 237.977 185.982,243.204 183.287,243.269 183.224 C 243.606 182.896,241.371 183.747,223.551 190.729 M233.925 188.990 C 228.226 191.885,219.931 196.109,215.492 198.377 L 207.422 202.499 208.963 203.866 C 209.810 204.619,210.612 205.238,210.743 205.243 C 210.977 205.252,243.742 184.423,244.273 183.928 C 244.726 183.505,244.602 183.566,233.925 188.990 M263.449 184.061 C 263.449 184.215,285.777 199.006,286.009 199.006 C 286.108 199.006,286.150 198.295,286.104 197.425 L 286.018 195.843 278.211 191.732 C 273.918 189.471,268.840 186.794,266.927 185.783 C 265.014 184.772,263.449 183.997,263.449 184.061 M304.613 186.044 L 304.613 188.178 306.104 188.481 C 306.923 188.648,325.798 192.488,348.048 197.014 L 388.502 205.245 394.144 199.511 C 397.247 196.358,399.674 193.742,399.538 193.699 C 399.299 193.623,337.080 187.265,316.678 185.232 C 311.214 184.687,306.263 184.167,305.678 184.076 L 304.613 183.910 304.613 186.044 M262.456 184.727 C 262.612 184.899,268.041 189.343,274.521 194.602 L 286.302 204.165 286.388 202.389 C 286.496 200.146,287.638 201.090,274.237 192.334 C 268.070 188.304,262.832 184.873,262.598 184.710 C 262.290 184.496,262.250 184.500,262.456 184.727 M229.808 194.202 C 221.689 199.359,214.237 204.091,213.247 204.719 L 211.449 205.859 212.538 206.814 C 214.805 208.800,213.188 209.738,229.424 197.016 C 243.567 185.933,244.982 184.804,244.702 184.819 C 244.630 184.823,237.928 189.046,229.808 194.202 M179.702 185.309 C 179.155 185.348,178.038 185.453,177.218 185.542 L 175.727 185.704 175.727 189.091 C 175.727 190.953,175.823 192.477,175.940 192.477 C 176.339 192.477,180.658 191.615,180.758 191.516 C 180.812 191.461,180.820 190.026,180.776 188.327 L 180.696 185.238 179.702 185.309 M231.771 196.198 C 224.134 202.148,217.321 207.475,216.632 208.036 L 215.379 209.056 216.766 210.277 C 217.529 210.948,218.261 211.498,218.392 211.498 C 218.523 211.498,224.659 205.728,232.026 198.677 C 239.394 191.625,245.544 185.749,245.692 185.618 C 245.840 185.487,245.893 185.380,245.810 185.380 C 245.726 185.380,239.409 190.248,231.771 196.198 M267.566 191.320 C 270.845 194.632,276.434 200.158,279.986 203.601 L 286.444 209.862 286.444 207.571 L 286.444 205.280 276.863 197.546 C 259.887 183.842,260.700 184.387,267.566 191.320 M232.931 198.894 C 225.436 206.011,219.245 211.892,219.172 211.963 C 219.100 212.035,219.706 212.705,220.520 213.454 L 222.000 214.814 232.717 202.305 C 238.612 195.425,244.181 188.930,245.093 187.872 C 246.004 186.813,246.707 185.949,246.654 185.950 C 246.601 185.952,240.426 191.776,232.931 198.894 M234.634 201.319 L 221.859 216.115 221.780 219.824 C 221.736 221.864,221.749 223.476,221.808 223.406 C 221.868 223.336,227.129 215.806,233.500 206.671 C 239.872 197.537,245.651 189.265,246.343 188.290 C 247.035 187.314,247.558 186.517,247.505 186.519 C 247.453 186.521,241.661 193.181,234.634 201.319 M262.338 187.943 C 263.053 188.797,268.659 195.564,274.796 202.981 C 280.932 210.397,286.142 216.657,286.373 216.891 C 286.746 217.268,286.776 216.957,286.635 214.204 L 286.475 211.090 274.505 199.316 C 262.233 187.244,260.016 185.172,262.338 187.943 M265.437 194.748 C 268.435 199.198,272.991 205.969,275.563 209.794 C 278.134 213.620,281.698 218.916,283.483 221.564 L 286.728 226.379 286.721 222.416 L 286.714 218.453 273.787 202.981 C 266.678 194.471,260.664 187.317,260.424 187.083 C 260.184 186.849,262.440 190.298,265.437 194.748 M150.461 187.807 C 146.636 188.164,143.346 188.466,143.151 188.479 C 142.881 188.497,142.796 189.730,142.796 193.632 C 142.796 198.383,142.833 198.750,143.293 198.614 C 143.566 198.533,146.281 198.010,149.326 197.453 C 152.370 196.896,155.532 196.306,156.352 196.142 L 157.842 195.843 157.842 191.463 C 157.842 189.054,157.747 187.100,157.630 187.121 C 157.512 187.141,154.287 187.450,150.461 187.807 M260.101 189.070 C 260.654 190.085,266.696 201.327,273.527 214.053 C 280.358 226.778,286.184 237.573,286.475 238.041 C 287.001 238.890,287.003 238.873,287.007 233.482 L 287.012 228.071 273.233 207.804 C 265.655 196.656,259.373 187.466,259.275 187.380 C 259.176 187.295,259.548 188.055,260.101 189.070 M244.930 191.838 C 243.312 194.141,237.424 202.506,231.846 210.426 L 221.704 224.826 221.782 229.666 L 221.859 234.506 229.935 220.092 C 243.919 195.131,248.079 187.651,247.974 187.651 C 247.918 187.651,246.549 189.535,244.930 191.838 M258.348 187.941 C 258.274 189.209,283.901 249.410,284.547 249.487 C 285.282 249.573,285.309 249.638,285.309 251.340 C 285.309 252.866,286.728 257.298,287.446 258.016 C 287.509 258.079,287.480 254.257,287.381 249.524 L 287.203 240.917 273.023 214.781 C 257.321 185.838,258.360 187.737,258.348 187.941 M247.636 190.283 C 247.000 191.411,240.905 202.210,234.093 214.280 L 221.708 236.226 221.784 243.449 L 221.859 250.672 235.405 219.530 C 242.855 202.402,248.916 188.352,248.872 188.309 C 248.829 188.266,248.273 189.154,247.636 190.283 M254.098 200.568 C 254.083 207.126,254.012 214.280,253.939 216.466 C 253.389 233.130,253.545 256.195,254.245 261.675 L 254.400 262.881 257.789 262.881 L 261.178 262.881 261.176 261.817 C 261.175 261.231,261.057 259.666,260.914 258.339 C 260.771 257.012,260.579 255.096,260.486 254.081 C 260.393 253.066,260.198 251.022,260.053 249.539 C 259.907 248.055,259.716 245.947,259.627 244.855 C 259.462 242.807,259.312 241.255,259.065 239.035 C 258.987 238.332,257.893 226.835,256.634 213.485 C 255.375 200.135,254.295 189.084,254.235 188.928 C 254.175 188.772,254.113 194.010,254.098 200.568 M256.499 189.496 C 256.660 190.475,260.436 210.019,263.877 227.679 C 264.409 230.412,265.581 236.448,266.481 241.093 L 268.118 249.539 271.588 249.539 L 275.059 249.539 274.802 248.758 C 274.661 248.329,270.574 234.947,265.721 219.021 C 256.684 189.368,256.248 187.970,256.499 189.496 M257.536 189.070 C 257.612 189.304,261.742 203.006,266.713 219.517 L 275.752 249.539 279.395 249.539 C 281.398 249.539,283.038 249.487,283.038 249.424 C 283.038 249.360,277.341 235.723,270.378 219.118 C 259.424 192.995,256.862 187.000,257.536 189.070 M235.682 220.859 L 221.718 252.634 221.718 257.769 L 221.718 262.904 224.016 262.822 L 226.315 262.740 229.366 253.206 C 232.371 243.818,232.420 243.621,232.582 240.289 C 232.820 235.367,233.848 232.319,236.278 229.322 C 237.381 227.963,250.228 189.665,249.744 189.181 C 249.690 189.127,243.362 203.382,235.682 220.859 M244.780 207.758 C 241.461 218.012,238.746 226.488,238.748 226.594 C 238.749 226.700,239.449 226.366,240.303 225.852 C 241.157 225.338,242.244 224.756,242.720 224.559 C 243.195 224.362,243.648 223.929,243.726 223.598 C 244.498 220.311,250.943 189.458,250.889 189.310 C 250.849 189.202,248.100 197.504,244.780 207.758 M304.672 191.231 L 304.755 193.391 341.513 204.598 L 378.270 215.806 383.210 210.802 C 385.927 208.050,388.095 205.743,388.028 205.677 C 387.894 205.542,305.464 189.070,304.926 189.070 C 304.689 189.070,304.614 189.707,304.672 191.231 M248.227 206.469 C 246.192 215.871,244.564 223.610,244.608 223.669 C 244.895 224.050,248.427 222.706,248.544 222.171 C 248.754 221.209,252.111 189.561,252.014 189.464 C 251.965 189.415,250.261 197.067,248.227 206.469 M251.214 205.990 L 249.359 222.596 250.087 222.512 C 250.890 222.419,250.914 222.524,251.340 227.963 C 251.669 232.175,252.680 243.728,252.755 244.145 C 252.797 244.379,252.924 232.192,253.037 217.064 C 253.150 201.935,253.203 189.517,253.156 189.470 C 253.108 189.422,252.234 196.856,251.214 205.990 M117.104 190.662 C 115.231 190.848,113.602 191.013,113.485 191.029 C 113.368 191.045,113.272 193.996,113.272 197.587 C 113.272 201.178,113.368 204.116,113.485 204.115 C 113.980 204.112,123.796 202.204,123.911 202.088 C 123.981 202.019,124.053 199.348,124.071 196.155 L 124.104 190.348 122.307 190.336 C 121.319 190.329,118.978 190.476,117.104 190.662 M255.530 190.806 C 255.514 191.214,256.781 205.586,258.347 222.744 C 259.913 239.901,261.350 255.664,261.541 257.771 L 261.888 261.604 262.030 255.642 L 262.172 249.681 264.800 249.599 C 267.349 249.520,267.425 249.498,267.287 248.889 C 267.210 248.544,265.541 240.149,263.581 230.234 C 257.691 200.455,255.561 190.024,255.530 190.806 M178.282 192.758 L 175.869 193.189 175.790 196.807 C 175.746 198.798,175.746 200.424,175.790 200.423 C 175.834 200.421,176.508 200.226,177.289 199.989 C 178.070 199.752,179.179 199.431,179.754 199.276 C 180.511 199.073,180.824 198.820,180.889 198.362 C 180.973 197.771,181.166 197.716,183.818 197.537 C 185.966 197.393,187.694 197.035,190.916 196.069 L 195.174 194.792 188.077 194.699 L 180.979 194.606 180.837 193.467 L 180.696 192.327 178.282 192.758 M304.618 196.233 C 304.620 197.368,304.726 198.461,304.854 198.663 C 305.043 198.960,321.124 205.818,321.638 205.820 C 321.721 205.821,321.725 204.329,321.647 202.505 L 321.505 199.189 313.698 196.843 C 309.404 195.552,305.603 194.422,305.252 194.333 C 304.633 194.174,304.613 194.233,304.618 196.233 M53.868 196.087 C 53.439 196.152,52.736 196.152,52.307 196.087 C 51.877 196.022,52.229 195.969,53.087 195.969 C 53.946 195.969,54.297 196.022,53.868 196.087 M50.745 196.371 C 50.316 196.436,49.613 196.436,49.184 196.371 C 48.754 196.306,49.106 196.253,49.965 196.253 C 50.823 196.253,51.175 196.306,50.745 196.371 M47.339 196.655 C 46.909 196.720,46.207 196.720,45.777 196.655 C 45.348 196.590,45.699 196.536,46.558 196.536 C 47.417 196.536,47.768 196.590,47.339 196.655 M150.177 197.856 L 142.938 199.200 142.861 204.497 C 142.819 207.411,142.857 209.794,142.947 209.794 C 143.169 209.794,154.808 206.471,156.494 205.926 L 157.842 205.490 157.842 200.971 C 157.842 198.485,157.747 196.465,157.630 196.482 C 157.512 196.498,154.159 197.117,150.177 197.856 M44.078 196.935 C 43.729 197.002,43.090 197.004,42.658 196.939 C 42.227 196.874,42.512 196.819,43.293 196.816 C 44.074 196.814,44.427 196.868,44.078 196.935 M40.955 197.219 C 40.606 197.286,39.967 197.288,39.535 197.223 C 39.104 197.158,39.390 197.102,40.170 197.100 C 40.951 197.098,41.304 197.152,40.955 197.219 M37.544 197.503 C 37.193 197.571,36.618 197.571,36.267 197.503 C 35.916 197.436,36.203 197.380,36.906 197.380 C 37.608 197.380,37.896 197.436,37.544 197.503 M178.211 200.366 L 175.727 201.070 175.727 204.865 C 175.727 206.951,175.788 208.659,175.862 208.659 C 176.147 208.659,180.423 206.902,180.634 206.698 C 180.756 206.580,180.820 204.948,180.776 203.072 L 180.696 199.662 178.211 200.366 M304.957 202.435 L 305.039 205.012 313.485 209.502 L 321.930 213.992 321.930 210.358 L 321.930 206.724 319.872 205.873 C 313.324 203.163,305.171 199.858,305.034 199.858 C 304.947 199.858,304.913 201.018,304.957 202.435 M323.653 200.222 C 323.897 200.412,327.474 203.389,331.601 206.838 L 339.106 213.108 354.010 219.265 L 368.914 225.423 373.413 220.853 C 375.887 218.340,377.867 216.242,377.813 216.192 C 377.661 216.050,323.748 199.857,323.461 199.867 C 323.322 199.872,323.408 200.032,323.653 200.222 M188.287 202.962 C 186.987 203.779,186.233 205.140,186.233 206.671 C 186.233 208.209,186.993 209.575,188.287 210.363 C 191.916 212.576,196.195 208.516,194.251 204.704 C 193.185 202.614,190.220 201.748,188.287 202.962 M118.950 203.569 C 116.529 204.019,114.262 204.456,113.911 204.541 L 113.272 204.695 113.272 211.508 L 113.272 218.322 113.911 218.160 C 119.909 216.639,123.908 215.263,124.049 214.671 C 124.369 213.327,124.053 202.696,123.693 202.724 C 123.504 202.739,121.370 203.119,118.950 203.569 M304.897 208.712 C 304.897 211.197,304.973 211.693,305.394 211.958 C 305.667 212.130,313.141 217.075,322.001 222.946 C 330.862 228.818,338.112 233.574,338.112 233.517 C 338.112 233.460,334.541 230.133,330.175 226.124 L 322.238 218.835 322.155 216.831 L 322.072 214.827 318.098 212.722 C 315.912 211.564,312.048 209.528,309.510 208.198 L 304.897 205.779 304.897 208.712 M150.355 208.269 C 146.315 209.406,142.959 210.388,142.897 210.450 C 142.835 210.513,142.819 213.066,142.861 216.125 L 142.938 221.686 150.177 218.836 C 154.159 217.269,157.516 215.893,157.637 215.779 C 157.758 215.665,157.821 213.463,157.779 210.886 L 157.700 206.200 150.355 208.269 M178.073 208.466 L 175.734 209.368 175.731 213.559 L 175.727 217.749 178.282 216.466 L 180.837 215.182 180.837 211.353 C 180.837 209.246,180.742 207.532,180.625 207.544 C 180.507 207.555,179.359 207.970,178.073 208.466 M86.302 209.530 C 82.165 210.293,78.492 210.986,78.141 211.070 C 77.531 211.217,77.501 211.358,77.485 214.129 C 77.458 219.027,78.008 218.196,69.837 225.672 C 65.855 229.315,62.406 232.478,62.172 232.703 C 61.798 233.060,61.851 233.091,62.598 232.956 C 63.259 232.836,63.214 232.880,62.393 233.154 C 61.467 233.462,47.979 245.353,47.978 245.862 C 47.977 246.011,51.845 249.822,59.333 257.047 C 61.285 258.930,64.105 261.660,65.600 263.112 L 68.319 265.753 75.844 265.339 L 83.369 264.925 89.371 261.845 L 95.373 258.765 95.380 249.759 L 95.387 240.752 94.748 241.001 C 94.397 241.137,90.482 242.670,86.048 244.406 C 81.615 246.143,77.942 247.518,77.886 247.463 C 77.830 247.407,81.713 245.815,86.515 243.925 L 95.245 240.489 95.320 232.239 C 95.366 227.217,95.291 223.989,95.128 223.989 C 94.981 223.989,90.114 225.341,84.312 226.993 C 78.511 228.646,73.714 229.948,73.653 229.886 C 73.592 229.825,78.361 228.394,84.251 226.706 C 90.142 225.018,95.049 223.556,95.156 223.458 C 95.733 222.927,95.022 208.091,94.420 208.117 C 94.093 208.132,90.440 208.768,86.302 209.530 M304.902 215.969 L 304.907 219.304 324.316 235.049 C 334.990 243.709,343.841 250.833,343.984 250.881 C 344.127 250.929,345.600 249.519,347.257 247.748 L 350.269 244.528 345.900 240.536 C 341.637 236.642,341.084 236.251,323.342 224.589 C 313.338 218.013,305.096 212.633,305.025 212.633 C 304.955 212.633,304.899 214.134,304.902 215.969 M209.070 214.452 C 207.908 214.958,206.735 216.403,206.510 217.608 C 205.598 222.465,212.367 224.666,214.576 220.230 C 216.356 216.654,212.737 212.855,209.070 214.452 M342.860 216.265 C 349.233 221.715,361.968 232.221,362.202 232.221 C 362.796 232.221,368.505 225.866,368.110 225.645 C 367.575 225.346,341.295 214.620,341.097 214.620 C 341.009 214.620,341.802 215.361,342.860 216.265 M118.604 217.248 L 113.574 218.696 113.494 225.885 C 113.424 232.126,113.470 233.072,113.840 233.059 C 114.074 233.052,116.437 232.171,119.092 231.102 L 123.918 229.159 123.994 222.457 C 124.036 218.772,123.972 215.766,123.852 215.778 C 123.732 215.790,121.370 216.451,118.604 217.248 M178.353 217.114 L 175.727 218.439 175.727 223.076 C 175.727 226.706,175.804 227.668,176.082 227.506 C 176.278 227.392,177.423 226.672,178.628 225.906 L 180.819 224.513 180.899 221.341 L 180.979 218.169 186.033 218.091 L 191.086 218.014 192.633 216.987 C 193.484 216.422,194.180 215.914,194.180 215.858 C 194.180 215.802,191.210 215.763,187.580 215.772 L 180.979 215.789 178.353 217.114 M194.057 216.830 C 192.123 218.042,191.944 217.957,196.735 218.093 L 199.432 218.169 199.574 219.277 L 199.716 220.386 200.639 219.607 C 201.470 218.905,201.561 218.676,201.561 217.292 L 201.561 215.756 198.652 215.765 C 195.792 215.775,195.712 215.793,194.057 216.830 M150.319 219.334 L 142.938 222.218 142.862 228.364 L 142.785 234.510 150.188 230.791 C 154.260 228.746,157.651 226.917,157.724 226.728 C 157.796 226.538,157.821 224.148,157.778 221.416 L 157.700 216.449 150.319 219.334 M200.497 220.562 L 199.574 221.333 199.574 225.566 L 199.574 229.799 200.576 228.797 L 201.578 227.795 201.499 223.793 L 201.419 219.791 200.497 220.562 M305.062 224.385 L 305.263 228.528 319.062 242.249 C 334.427 257.527,335.843 258.878,336.307 258.712 C 336.679 258.579,343.320 251.910,343.450 251.538 C 343.519 251.341,306.517 221.266,305.218 220.463 C 304.933 220.287,304.901 221.086,305.062 224.385 M178.070 226.981 L 175.727 228.518 175.727 233.791 C 175.727 238.051,175.799 239.019,176.097 238.836 C 176.301 238.711,177.450 237.842,178.651 236.906 L 180.834 235.202 180.836 230.305 C 180.837 227.612,180.742 225.416,180.625 225.426 C 180.507 225.436,179.358 226.136,178.070 226.981 M150.106 231.386 L 142.796 235.062 142.796 241.892 C 142.796 247.272,142.872 248.678,143.151 248.521 C 143.346 248.411,146.732 246.270,150.674 243.762 L 157.842 239.203 157.842 233.441 C 157.842 230.272,157.747 227.686,157.630 227.694 C 157.512 227.703,154.127 229.364,150.106 231.386 M200.482 229.751 L 199.574 230.687 199.586 235.784 L 199.598 240.880 200.580 239.768 L 201.561 238.656 201.561 233.736 C 201.561 231.029,201.523 228.815,201.475 228.815 C 201.428 228.815,200.981 229.236,200.482 229.751 M118.595 231.693 L 113.556 233.686 113.556 241.593 L 113.556 249.500 118.737 246.836 L 123.918 244.172 123.993 236.919 C 124.035 232.930,123.971 229.674,123.851 229.683 C 123.732 229.693,121.366 230.597,118.595 231.693 M305.181 234.605 L 305.181 239.609 313.178 249.258 L 321.176 258.907 328.154 258.897 L 335.131 258.888 324.911 248.821 C 319.290 243.284,312.551 236.694,309.936 234.177 L 305.181 229.600 305.181 234.605 M72.818 230.234 C 72.505 230.368,72.058 230.478,71.824 230.478 C 71.556 230.478,71.608 230.388,71.966 230.234 C 72.278 230.100,72.725 229.990,72.960 229.990 C 73.228 229.990,73.175 230.080,72.818 230.234 M70.830 230.802 C 70.518 230.936,70.071 231.046,69.837 231.046 C 69.568 231.046,69.621 230.956,69.979 230.802 C 70.291 230.668,70.738 230.558,70.972 230.558 C 71.241 230.558,71.188 230.648,70.830 230.802 M68.843 231.370 C 68.531 231.504,68.084 231.614,67.850 231.614 C 67.581 231.614,67.634 231.524,67.991 231.370 C 68.304 231.236,68.751 231.126,68.985 231.126 C 69.254 231.126,69.201 231.216,68.843 231.370 M66.856 231.938 C 66.544 232.072,66.097 232.182,65.862 232.182 C 65.594 232.182,65.646 232.091,66.004 231.938 C 66.317 231.803,66.764 231.694,66.998 231.694 C 67.266 231.694,67.214 231.784,66.856 231.938 M64.869 232.505 C 64.556 232.640,64.109 232.749,63.875 232.749 C 63.607 232.749,63.659 232.659,64.017 232.505 C 64.329 232.371,64.776 232.261,65.011 232.261 C 65.279 232.261,65.227 232.352,64.869 232.505 M178.211 237.919 L 175.727 239.902 175.727 246.164 L 175.727 252.426 178.282 250.091 L 180.837 247.756 180.837 241.834 C 180.837 238.577,180.806 235.917,180.767 235.924 C 180.727 235.931,179.578 236.828,178.211 237.919 M150.248 244.626 L 142.796 249.362 142.796 254.276 L 142.796 259.191 135.045 259.191 L 127.293 259.191 124.754 260.787 C 123.357 261.666,122.093 262.496,121.945 262.633 C 121.790 262.775,126.761 262.881,133.609 262.881 L 145.544 262.881 151.693 258.039 L 157.842 253.197 157.842 246.542 C 157.842 242.881,157.811 239.887,157.771 239.888 C 157.732 239.889,154.347 242.021,150.248 244.626 M200.497 240.842 L 199.574 241.893 199.574 248.413 C 199.574 251.999,199.616 254.933,199.668 254.933 C 199.720 254.933,200.169 254.365,200.667 253.672 L 201.572 252.411 201.496 246.101 L 201.419 239.791 200.497 240.842 M305.270 247.322 L 305.428 254.048 307.186 256.662 L 308.943 259.276 314.504 259.078 C 317.563 258.969,320.113 258.832,320.171 258.774 C 320.265 258.680,306.581 242.085,305.533 241.022 C 305.162 240.646,305.131 241.383,305.270 247.322 M118.597 247.345 L 113.560 249.965 113.558 258.711 C 113.556 265.631,113.630 267.413,113.911 267.248 C 116.163 265.918,119.801 263.402,119.801 263.174 C 119.801 263.013,120.028 262.881,120.305 262.881 C 120.582 262.881,122.080 262.061,123.634 261.057 L 126.460 259.233 125.331 259.141 L 124.202 259.049 124.126 251.881 C 124.084 247.938,123.956 244.715,123.842 244.719 C 123.727 244.722,121.367 245.904,118.597 247.345 M229.753 254.121 L 226.878 262.962 229.195 262.789 C 235.192 262.341,235.619 262.028,236.582 257.380 L 237.340 253.724 236.382 252.554 C 234.859 250.693,233.727 248.674,233.219 246.913 C 232.961 246.015,232.722 245.280,232.688 245.280 C 232.655 245.280,231.334 249.259,229.753 254.121 M178.201 250.898 L 175.718 253.392 175.794 260.991 L 175.869 268.589 178.353 265.706 L 180.837 262.823 180.837 255.613 C 180.837 251.648,180.803 248.403,180.761 248.403 C 180.718 248.403,179.566 249.526,178.201 250.898 M73.668 249.234 C 72.349 249.821,71.050 250.246,71.257 250.023 C 71.462 249.801,74.183 248.717,74.521 248.723 C 74.677 248.725,74.293 248.955,73.668 249.234 M200.493 254.914 L 199.566 256.262 199.641 265.178 L 199.716 274.095 200.632 272.424 L 201.548 270.753 201.570 262.243 C 201.595 252.506,201.692 253.169,200.493 254.914 M152.059 258.336 L 146.417 262.740 152.029 262.817 C 155.116 262.859,157.690 262.845,157.749 262.786 C 157.809 262.726,157.822 260.710,157.779 258.305 L 157.700 253.932 152.059 258.336 M237.773 254.972 C 236.229 261.715,236.207 261.435,238.208 260.390 C 240.855 259.007,241.018 257.817,238.890 255.398 C 237.950 254.329,237.922 254.318,237.773 254.972 M285.309 266.835 C 285.309 276.544,285.244 278.469,284.912 278.546 C 284.610 278.616,285.347 281.388,288.034 290.277 C 289.969 296.678,291.750 302.596,291.992 303.426 C 292.543 305.314,292.072 305.622,297.481 299.833 C 302.406 294.562,302.273 294.805,301.290 292.874 L 300.878 292.065 300.262 292.628 C 295.220 297.233,287.142 291.976,288.998 285.297 C 289.592 283.158,292.021 280.925,294.120 280.590 C 295.781 280.324,295.967 280.122,295.528 279.062 L 295.153 278.156 291.579 278.255 L 288.006 278.353 287.800 269.269 L 287.595 260.185 286.555 257.700 C 285.983 256.334,285.468 255.216,285.412 255.216 C 285.355 255.216,285.309 260.445,285.309 266.835 M272.225 255.772 C 270.027 256.438,268.559 258.488,268.559 260.894 C 268.559 265.415,273.894 267.883,277.361 264.966 C 281.789 261.240,277.792 254.085,272.225 255.772 M305.465 257.346 L 305.465 259.191 306.775 259.191 L 308.085 259.191 307.579 258.410 C 305.295 254.891,305.465 254.976,305.465 257.346 M91.554 261.017 C 89.681 262.002,87.253 263.274,86.160 263.844 L 84.173 264.880 87.438 264.727 C 89.233 264.643,91.820 264.499,93.187 264.407 L 95.671 264.241 95.671 261.716 C 95.671 258.670,95.932 258.715,91.554 261.017 M178.282 266.554 L 175.869 269.372 175.727 273.863 L 175.586 278.353 171.707 278.495 L 167.829 278.637 157.293 290.845 L 146.758 303.052 153.428 303.128 L 160.098 303.204 160.177 307.342 L 160.256 311.480 171.682 295.138 C 184.615 276.643,183.428 278.556,182.044 278.442 L 180.979 278.353 180.837 271.045 L 180.696 263.736 178.282 266.554 M116.612 265.938 L 113.564 267.850 113.560 274.991 L 113.556 282.133 110.930 282.306 C 109.485 282.400,103.980 282.673,98.695 282.912 C 91.069 283.255,88.930 283.437,88.333 283.789 C 87.638 284.199,87.622 284.198,88.131 283.777 C 88.659 283.340,88.642 283.322,87.716 283.322 L 86.750 283.322 88.148 284.741 L 89.546 286.160 102.709 286.160 L 115.872 286.160 117.827 284.670 L 119.782 283.180 119.792 273.598 C 119.797 268.329,119.769 264.019,119.730 264.022 C 119.691 264.024,118.288 264.886,116.612 265.938 M200.568 273.669 C 200.031 274.653,199.664 275.808,199.574 276.791 C 199.441 278.252,199.380 278.360,198.600 278.494 C 197.829 278.627,197.012 279.974,187.617 296.602 L 177.467 314.566 179.791 316.821 L 182.115 319.075 187.106 319.083 L 192.098 319.092 200.894 298.864 L 209.690 278.637 205.697 278.495 L 201.703 278.353 201.561 275.231 L 201.419 272.108 200.568 273.669 M129.170 274.307 C 125.716 276.152,125.784 281.191,129.283 282.781 C 133.517 284.703,137.720 280.516,135.703 276.385 C 134.519 273.959,131.574 273.022,129.170 274.307 M309.845 278.190 L 308.122 278.353 309.833 281.548 L 311.544 284.742 314.253 281.857 C 318.290 277.559,318.254 277.919,314.636 277.977 C 312.949 278.004,310.793 278.099,309.845 278.190 M295.813 278.313 C 295.813 279.295,296.751 280.388,297.847 280.682 C 301.739 281.727,303.804 286.431,302.083 290.334 C 301.439 291.795,301.438 291.823,301.945 293.152 L 302.458 294.495 304.970 291.818 C 306.351 290.346,308.313 288.224,309.329 287.102 L 311.178 285.064 309.347 281.709 L 307.516 278.353 301.664 278.277 C 298.446 278.235,295.813 278.251,295.813 278.313 M142.796 281.223 L 142.796 283.951 145.313 281.653 C 149.050 278.241,149.022 278.495,145.670 278.495 L 142.796 278.495 142.796 281.223 M145.990 281.509 L 142.796 284.510 142.796 293.142 L 142.796 301.774 133.737 301.774 L 124.677 301.774 120.181 306.032 C 117.708 308.373,115.685 310.407,115.685 310.552 C 115.685 310.874,128.580 323.066,128.920 323.066 C 129.826 323.066,143.797 305.950,143.932 304.675 C 144.071 303.359,144.093 303.334,145.148 303.247 C 146.094 303.169,160.301 287.318,166.891 278.988 C 167.259 278.523,166.780 278.496,158.232 278.502 L 149.184 278.509 145.990 281.509 M171.966 295.401 L 160.114 312.276 160.114 322.213 L 160.114 332.150 153.087 332.154 L 146.061 332.157 145.417 333.151 L 144.774 334.145 155.460 334.070 L 166.146 333.996 167.522 331.583 C 169.222 328.600,169.231 328.744,167.353 328.744 L 165.791 328.744 165.791 323.918 L 165.791 319.092 166.696 319.092 L 167.601 319.092 166.838 318.295 C 166.004 317.424,165.865 314.382,166.323 306.989 L 166.501 304.112 171.753 309.170 C 175.715 312.985,177.083 314.145,177.322 313.891 C 177.655 313.538,196.615 279.707,196.909 278.941 C 197.061 278.544,196.359 278.497,190.449 278.511 L 183.818 278.526 171.966 295.401 M209.820 279.702 C 208.155 283.552,192.680 318.702,192.573 318.879 C 192.502 318.996,196.003 319.092,200.353 319.092 L 208.263 319.092 209.596 314.984 C 210.870 311.059,210.930 310.730,210.930 307.603 C 210.930 304.105,210.970 304.002,211.969 304.940 C 212.475 305.416,212.648 305.462,212.756 305.153 C 213.294 303.595,221.150 278.814,221.150 278.673 C 221.150 278.576,218.718 278.495,215.746 278.495 L 210.342 278.495 209.820 279.702 M217.513 291.909 C 215.128 299.287,213.182 305.472,213.189 305.654 C 213.200 305.975,223.986 315.782,224.149 315.619 C 224.263 315.505,231.938 279.266,231.938 278.842 C 231.938 278.582,230.675 278.495,226.894 278.495 L 221.850 278.495 217.513 291.909 M232.644 278.850 C 232.574 279.045,231.293 284.890,229.798 291.838 C 228.302 298.786,226.511 307.087,225.817 310.284 L 224.556 316.098 225.195 316.709 C 225.546 317.046,228.389 319.597,231.512 322.378 L 237.189 327.435 237.410 325.322 C 237.532 324.159,238.006 319.759,238.463 315.543 C 238.921 311.327,239.689 304.237,240.169 299.787 C 240.649 295.337,241.357 288.801,241.742 285.263 C 242.127 281.725,242.441 278.755,242.441 278.663 C 242.441 278.299,232.775 278.484,232.644 278.850 M243.009 278.887 C 243.009 279.103,242.434 284.373,241.731 290.598 C 237.682 326.446,237.563 327.648,238.029 328.163 C 238.500 328.682,238.598 329.048,238.254 328.994 C 237.533 328.880,237.373 329.197,237.198 331.086 C 237.093 332.218,236.943 333.368,236.866 333.641 C 236.735 334.103,237.159 334.138,242.990 334.138 L 249.255 334.138 249.255 327.324 L 249.255 320.511 245.422 320.511 L 241.590 320.511 241.590 311.001 L 241.590 301.490 246.984 301.490 C 249.950 301.490,252.383 301.458,252.390 301.419 C 252.396 301.380,252.478 296.207,252.572 289.922 L 252.742 278.495 247.876 278.495 C 243.926 278.495,243.009 278.569,243.009 278.887 M253.229 286.116 C 253.229 290.307,253.146 295.480,253.043 297.613 L 252.857 301.490 256.876 301.490 L 260.894 301.490 260.894 320.278 L 260.894 339.066 263.401 336.389 C 264.780 334.917,266.339 333.218,266.865 332.615 L 267.823 331.518 266.751 319.982 C 266.162 313.637,265.567 307.360,265.430 306.033 C 265.292 304.705,265.111 302.853,265.026 301.916 C 264.942 300.979,264.426 295.550,263.879 289.851 C 263.332 284.152,262.883 279.265,262.883 278.992 C 262.882 278.539,262.462 278.495,258.055 278.495 L 253.229 278.495 253.229 286.116 M263.541 279.844 C 263.632 280.586,264.675 292.051,265.859 305.323 C 267.043 318.595,268.103 329.810,268.214 330.245 C 268.410 331.007,268.647 330.789,274.521 324.463 C 281.609 316.828,280.988 318.052,280.088 313.494 C 276.072 293.143,273.333 279.401,273.211 278.992 C 273.078 278.544,272.587 278.495,268.220 278.495 L 263.376 278.495 263.541 279.844 M274.677 283.244 C 275.186 285.863,276.847 294.457,278.370 302.342 C 279.892 310.227,281.214 316.760,281.307 316.859 C 281.456 317.018,291.877 306.009,292.046 305.515 C 292.082 305.409,290.275 299.319,288.031 291.980 L 283.950 278.637 278.851 278.560 L 273.753 278.483 274.677 283.244 M118.098 284.821 L 116.537 286.018 118.058 286.105 C 119.885 286.210,119.859 286.230,119.748 284.780 L 119.659 283.624 118.098 284.821 M108.813 304.270 C 110.251 305.642,112.286 307.576,113.336 308.567 L 115.246 310.368 118.872 306.950 C 120.866 305.070,122.873 303.136,123.332 302.653 L 124.166 301.774 115.183 301.774 L 106.200 301.774 108.813 304.270 M136.436 314.984 L 129.083 323.481 131.515 325.758 C 132.852 327.010,135.409 329.407,137.198 331.086 L 140.450 334.138 142.421 334.138 C 144.277 334.138,144.429 334.088,145.014 333.298 C 145.814 332.216,145.801 332.150,144.786 332.150 L 143.938 332.150 143.864 319.319 L 143.790 306.488 136.436 314.984 M249.544 307.368 C 245.829 309.286,247.040 314.545,251.198 314.548 C 255.984 314.552,256.363 307.727,251.617 307.020 C 250.868 306.908,250.227 307.016,249.544 307.368 M149.784 309.180 C 146.237 311.971,149.269 317.436,153.473 315.830 C 156.340 314.735,156.748 310.592,154.141 309.052 C 152.995 308.375,150.722 308.443,149.784 309.180 M209.620 316.198 L 208.737 319.092 210.454 319.092 L 212.172 319.092 211.423 318.310 C 210.773 317.631,210.662 317.249,210.589 315.416 L 210.504 313.304 209.620 316.198 M149.978 319.932 C 147.542 321.417,147.665 325.165,150.195 326.522 C 152.891 327.967,155.852 326.142,155.854 323.033 C 155.857 320.130,152.531 318.375,149.978 319.932 M219.163 326.105 C 218.498 326.348,217.446 327.389,217.002 328.241 L 216.599 329.016 211.023 329.093 L 205.446 329.170 204.808 331.062 C 204.457 332.103,204.085 333.221,203.982 333.546 C 203.752 334.272,220.078 334.508,220.416 333.783 C 220.549 333.499,220.615 333.499,220.748 333.783 C 220.874 334.054,222.742 334.138,228.669 334.138 L 236.424 334.138 236.609 332.363 C 236.710 331.388,236.861 330.238,236.943 329.808 L 237.093 329.028 230.853 329.028 L 224.613 329.028 224.028 328.037 C 223.027 326.340,220.867 325.482,219.163 326.105 M168.398 330.660 C 167.075 332.945,166.643 333.761,166.643 333.977 C 166.643 334.065,170.905 334.138,176.114 334.138 L 185.586 334.138 186.623 331.654 C 187.193 330.287,187.657 329.074,187.655 328.957 C 187.653 328.840,183.568 328.744,178.579 328.744 L 169.507 328.744 168.398 330.660 M187.520 330.472 C 187.129 331.344,186.613 332.526,186.374 333.098 L 185.940 334.138 194.711 334.138 L 203.482 334.138 204.243 331.696 C 204.662 330.352,204.964 329.213,204.915 329.164 C 204.866 329.115,201.092 329.032,196.529 328.980 L 188.232 328.886 187.520 330.472 M153.442 346.459 C 155.472 348.390,157.229 349.913,157.346 349.844 C 157.463 349.775,157.569 349.885,157.582 350.090 C 157.595 350.294,160.501 353.178,164.041 356.498 C 167.580 359.818,170.987 363.017,171.611 363.607 C 172.236 364.197,176.324 368.049,180.696 372.167 C 185.067 376.285,190.816 381.718,193.471 384.242 C 204.229 394.469,206.792 396.812,207.080 396.680 C 207.246 396.604,213.063 390.427,220.007 382.953 L 232.632 369.365 233.978 357.074 C 234.718 350.314,235.328 344.368,235.334 343.861 L 235.344 342.938 227.035 342.938 L 218.726 342.938 217.945 346.700 C 217.515 348.769,217.087 350.749,216.994 351.100 C 216.852 351.636,216.938 351.739,217.530 351.739 C 219.834 351.739,220.719 354.897,218.602 355.569 C 218.068 355.739,218.097 355.818,219.021 356.689 C 219.953 357.568,220.163 358.166,220.021 359.546 C 219.868 361.041,217.554 362.191,215.742 361.671 C 215.205 361.517,214.754 361.391,214.739 361.391 C 214.724 361.391,214.544 362.317,214.339 363.449 C 214.135 364.581,213.920 365.371,213.861 365.204 C 213.803 365.037,213.931 364.067,214.144 363.047 C 214.470 361.492,214.471 361.108,214.151 360.670 C 213.484 359.758,213.685 358.574,214.663 357.661 L 215.556 356.826 214.836 356.057 C 213.395 354.516,213.631 352.983,215.440 352.140 C 216.004 351.878,216.493 351.642,216.526 351.616 C 216.612 351.551,218.311 343.547,218.311 343.208 C 218.311 343.031,215.149 342.957,209.605 343.005 L 200.900 343.080 198.847 349.326 C 197.718 352.761,196.781 355.453,196.765 355.309 C 196.740 355.085,197.831 351.610,200.138 344.571 L 200.672 342.938 191.355 342.938 L 182.037 342.938 179.975 347.627 C 178.841 350.206,177.869 352.271,177.814 352.217 C 177.760 352.163,178.496 350.340,179.451 348.167 C 180.405 345.994,181.296 343.928,181.430 343.577 L 181.675 342.938 171.533 342.941 L 161.391 342.944 159.972 345.538 C 159.192 346.964,158.385 348.337,158.180 348.587 C 157.814 349.032,159.442 345.900,160.452 344.216 C 160.733 343.747,160.964 343.268,160.964 343.151 C 160.965 343.034,158.442 342.940,155.358 342.943 L 149.752 342.947 153.442 346.459 M235.783 343.861 C 235.434 345.948,233.044 367.983,233.126 368.358 C 233.176 368.588,237.326 364.353,242.654 358.634 L 252.094 348.502 252.094 345.720 L 252.094 342.938 244.016 342.938 L 235.938 342.938 235.783 343.861 M252.661 345.351 C 252.661 346.678,252.698 347.764,252.743 347.764 C 252.788 347.764,253.819 346.678,255.033 345.351 L 257.242 342.938 254.952 342.938 L 252.661 342.938 252.661 345.351 M196.172 354.081 C 196.175 355.831,196.254 356.315,196.483 355.997 C 196.728 355.656,196.748 355.684,196.583 356.139 C 195.798 358.305,196.115 360.866,197.223 361.303 C 197.879 361.562,197.530 361.616,195.174 361.622 C 192.480 361.628,192.382 361.608,193.258 361.225 L 194.180 360.822 194.180 357.132 L 194.180 353.442 193.258 353.428 C 192.423 353.416,194.905 351.883,195.955 351.763 C 196.072 351.750,196.169 352.793,196.172 354.081 M204.271 352.436 C 205.123 353.287,205.152 353.983,204.379 354.966 C 203.858 355.629,203.843 355.735,204.248 355.890 C 205.716 356.454,205.807 359.089,204.407 360.489 C 202.704 362.192,199.006 362.215,199.006 360.524 C 199.006 359.639,200.068 359.564,201.130 360.374 C 202.765 361.621,203.833 361.226,203.833 359.372 C 203.833 358.265,202.843 357.114,201.534 356.698 C 200.971 356.519,200.987 356.477,201.817 355.973 C 202.516 355.548,202.697 355.245,202.697 354.497 C 202.697 352.815,201.232 352.298,199.909 353.513 L 199.213 354.152 199.554 353.498 C 200.433 351.810,203.055 351.219,204.271 352.436 M211.837 352.844 C 214.517 355.844,211.338 361.769,207.112 361.651 C 206.252 361.626,206.251 361.624,206.980 361.404 C 208.247 361.020,209.239 360.208,209.811 359.088 C 210.500 357.736,210.498 357.619,209.788 357.844 C 207.353 358.617,205.507 355.600,206.958 353.219 C 208.024 351.472,210.444 351.286,211.837 352.844 M208.858 352.202 C 208.498 352.562,208.639 356.430,209.032 356.967 C 209.841 358.074,210.498 357.418,210.577 355.426 C 210.672 353.034,209.752 351.308,208.858 352.202 M216.253 352.329 C 215.463 352.790,215.647 353.965,216.658 354.909 L 217.561 355.752 217.926 355.094 C 218.880 353.373,217.728 351.470,216.253 352.329 M177.322 353.630 C 177.082 354.073,176.881 354.346,176.874 354.236 C 176.855 353.899,177.516 352.581,177.641 352.706 C 177.706 352.771,177.563 353.187,177.322 353.630 M176.328 355.899 C 176.012 356.500,175.747 356.899,175.740 356.787 C 175.720 356.461,176.670 354.574,176.792 354.696 C 176.854 354.758,176.645 355.299,176.328 355.899 M175.335 358.172 C 175.095 358.615,174.893 358.888,174.887 358.778 C 174.868 358.441,175.528 357.123,175.654 357.248 C 175.719 357.313,175.575 357.729,175.335 358.172 M215.766 357.966 C 215.037 359.327,215.615 361.391,216.725 361.391 C 218.232 361.391,218.625 359.180,217.318 358.055 C 216.410 357.274,216.144 357.259,215.766 357.966 M173.348 362.714 C 173.108 363.158,172.906 363.430,172.900 363.321 C 172.881 362.983,173.541 361.665,173.667 361.791 C 173.732 361.856,173.588 362.271,173.348 362.714 M213.611 366.911 C 213.504 367.481,213.360 367.890,213.290 367.821 C 213.221 367.751,213.252 367.229,213.359 366.659 C 213.465 366.089,213.610 365.680,213.679 365.749 C 213.748 365.818,213.718 366.341,213.611 366.911 M196.167 370.168 C 196.167 374.806,196.253 375.302,197.050 375.302 C 197.345 375.302,197.587 375.429,197.587 375.586 C 197.587 375.948,192.854 375.966,192.631 375.605 C 192.541 375.459,192.821 375.300,193.253 375.250 L 194.038 375.160 194.038 371.327 L 194.038 367.495 193.223 367.553 C 192.775 367.585,192.495 367.524,192.601 367.418 C 192.805 367.214,195.593 366.000,195.955 365.958 C 196.072 365.944,196.167 367.839,196.167 370.168 M203.808 366.347 C 207.599 368.307,204.998 374.968,200.142 375.737 L 199.148 375.894 200.371 375.275 C 201.496 374.705,202.981 373.023,202.981 372.319 C 202.981 372.157,202.477 372.024,201.861 372.024 C 199.830 372.024,198.605 370.140,199.288 368.068 C 199.919 366.157,201.948 365.385,203.808 366.347 M212.633 366.324 C 212.633 366.648,211.211 370.953,209.784 374.947 C 209.569 375.549,209.267 375.869,208.915 375.869 C 208.186 375.869,208.194 375.830,209.652 371.864 C 210.355 369.953,210.930 368.284,210.930 368.155 C 210.930 367.595,207.534 367.909,206.916 368.527 L 206.310 369.134 206.506 368.030 C 206.900 365.809,206.704 365.933,209.813 365.933 C 212.018 365.933,212.633 366.018,212.633 366.324 M218.873 366.356 C 220.330 367.110,220.335 368.729,218.882 369.480 L 218.074 369.898 219.044 370.868 C 221.067 372.891,220.107 375.524,217.248 375.798 C 214.059 376.105,212.406 373.172,214.909 371.649 L 215.751 371.138 215.014 370.452 C 212.304 367.931,215.454 364.588,218.873 366.356 M201.467 366.406 C 201.034 366.839,201.273 370.408,201.777 371.029 C 202.714 372.187,203.265 371.544,203.265 369.291 C 203.265 366.728,202.451 365.422,201.467 366.406 M216.107 366.547 C 215.527 367.127,215.708 368.187,216.515 368.935 C 217.415 369.769,217.789 369.707,218.160 368.659 C 218.674 367.201,217.087 365.568,216.107 366.547 M192.599 368.894 C 192.494 369.310,192.354 369.596,192.287 369.529 C 192.220 369.462,192.251 369.067,192.355 368.651 C 192.460 368.234,192.600 367.949,192.667 368.016 C 192.734 368.083,192.703 368.478,192.599 368.894 M215.813 371.909 C 214.974 373.253,215.682 375.586,216.928 375.586 C 218.152 375.586,218.476 373.250,217.388 372.271 C 216.392 371.374,216.178 371.325,215.813 371.909 " stroke="none" fill="#a45d45" fill-rule="evenodd"></path></g></svg>