<?xml version="1.0" encoding="UTF-8" standalone="no"?>
<!-- Generator: Adobe Illustrator 18.0.0, SVG Export Plug-In . SVG Version: 6.00 Build 0)  -->

<svg
   xmlns:dc="http://purl.org/dc/elements/1.1/"
   xmlns:cc="http://creativecommons.org/ns#"
   xmlns:rdf="http://www.w3.org/1999/02/22-rdf-syntax-ns#"
   xmlns:svg="http://www.w3.org/2000/svg"
   xmlns="http://www.w3.org/2000/svg"
   xmlns:sodipodi="http://sodipodi.sourceforge.net/DTD/sodipodi-0.dtd"
   xmlns:inkscape="http://www.inkscape.org/namespaces/inkscape"
   version="1.1"
   id="Layer_1"
   x="0px"
   y="0px"
   viewBox="0 0 980.1 245.7"
   enable-background="new 0 0 980.1 245.7"
   xml:space="preserve"
   sodipodi:docname="title.svg"
   inkscape:version="0.92.2 (5c3e80d, 2017-08-06)"><metadata
     id="metadata153"><rdf:RDF><cc:Work
         rdf:about=""><dc:format>image/svg+xml</dc:format><dc:type
           rdf:resource="http://purl.org/dc/dcmitype/StillImage" /></cc:Work></rdf:RDF></metadata><defs
     id="defs151" /><sodipodi:namedview
     pagecolor="#ffffff"
     bordercolor="#666666"
     borderopacity="1"
     objecttolerance="10"
     gridtolerance="10"
     guidetolerance="10"
     inkscape:pageopacity="0"
     inkscape:pageshadow="2"
     inkscape:window-width="1366"
     inkscape:window-height="706"
     id="namedview149"
     showgrid="false"
     inkscape:zoom="0.36322825"
     inkscape:cx="503.81544"
     inkscape:cy="122.85"
     inkscape:window-x="-8"
     inkscape:window-y="-8"
     inkscape:window-maximized="1"
     inkscape:current-layer="Layer_1" /><g
     id="g38"
     transform="matrix(1.3489341,0,0,1,-180.52894,0)"><path
       d="m 174.6,29.2 c 0,-0.8 0.4,-1.6 1.1,-2.4 0.8,-0.8 1.7,-1.1 2.9,-1.1 1.2,0 2.1,0.3 2.7,0.9 0.5,0.6 0.8,1.4 0.8,2.6 0,1 -0.3,1.9 -1,2.8 -0.7,0.8 -1.7,1.2 -3,1.2 -0.7,0 -1.4,-0.4 -2.3,-1.3 -0.8,-0.8 -1.2,-1.7 -1.2,-2.7 z m 5.9,26.8 c 0,-3.7 1.6,-6.9 4.7,-9.5 3.1,-2.6 6.8,-3.9 10.9,-3.9 0.3,0 0.6,0 1,0.1 0.4,0 0.7,0.1 0.9,0.1 0,-2 -0.7,-3.9 -2.1,-5.6 -1.4,-1.7 -2.1,-2.9 -2.1,-3.6 0,-1.5 0.4,-2.7 1.3,-3.7 0.9,-1 2.1,-1.5 3.5,-1.5 1.8,0 3.1,0.4 3.8,1.2 0.7,0.8 1.1,1.8 1.1,3 0,0.6 -0.1,1.2 -0.2,1.7 -0.2,0.5 -0.3,0.9 -0.4,1.2 0.7,2.1 1.3,4.4 2,7.1 0.6,2.7 0.9,5.6 0.9,8.8 0,3.8 -0.7,7.5 -2.1,10.9 -1.4,3.4 -3.7,6.1 -6.8,8 0,-0.3 -0.1,-0.7 -0.1,-1.1 0,-0.8 0.3,-1.8 0.8,-3.2 0.5,-1.4 0.9,-2.5 1,-3.4 -1.5,0.6 -2.9,1.2 -4.4,1.8 -1.5,0.6 -2.9,0.9 -4.4,0.9 -3.2,0 -5.6,-0.8 -7,-2.5 -1.5,-1.8 -2.3,-4.1 -2.3,-6.8 z m 4.9,-28 c 0,-0.8 0.4,-1.6 1.1,-2.3 0.7,-0.7 1.7,-1.1 2.9,-1.1 1.4,0 2.3,0.3 2.8,1 0.5,0.6 0.7,1.5 0.7,2.5 0,1.4 -0.5,2.4 -1.4,3 -1,0.6 -2,1 -3.2,1 -0.7,-0.2 -1.3,-0.6 -2,-1.1 -0.6,-0.6 -0.9,-1.5 -0.9,-3 z m 2.6,28.6 c 0.2,0.9 0.7,1.6 1.5,2.1 0.8,0.5 1.7,0.7 2.8,0.7 1.2,0 2.4,-0.3 3.7,-0.8 1.3,-0.6 2.2,-1.2 2.7,-2 0.6,-0.8 0.9,-1.6 1.1,-2.3 0.2,-0.8 0.2,-1.7 0.2,-2.7 -0.1,-1.7 -0.5,-2.8 -1,-3.3 -0.5,-0.4 -1.1,-0.7 -1.6,-0.7 -1.2,0 -2.7,0.4 -4.3,1.3 -1.7,0.9 -2.8,1.8 -3.5,2.9 -0.6,1.1 -1.1,2 -1.3,2.7 -0.3,0.8 -0.4,1.4 -0.3,2.1 z"
       id="path2"
       inkscape:connector-curvature="0"
       style="fill:#282828" /><path
       d="m 246.1,64.3 h -3.6 c -0.9,0 -1.9,-0.3 -3.2,-0.8 -1.3,-0.5 -2,-0.8 -2.1,-0.8 -0.1,0 -0.5,0.2 -1,0.7 -0.6,0.5 -1.6,0.7 -3.2,0.7 -0.9,0 -2.1,-0.2 -3.7,-0.5 -1.6,-0.3 -2.9,-0.5 -3.8,-0.5 -2.8,0 -5.3,0.9 -7.4,2.7 -1.9,2.2 -3.7,4.4 -5.6,6.6 -0.2,-0.8 -0.2,-1.3 0,-1.4 0,-2.7 1.1,-5.3 3.4,-7.8 2.3,-2.5 4.3,-4 6.2,-4.7 1.9,-0.6 3.5,-1.1 4.9,-1.3 1.4,-0.2 2.3,-0.3 2.7,-0.4 -2.7,-1.5 -5,-2.9 -6.9,-4.3 -1.9,-1.3 -2.8,-3.4 -2.8,-6.2 0,-1.8 0.6,-3.3 1.7,-4.6 1.1,-1.3 2.5,-1.9 4.3,-1.9 1.2,0 2.1,0.5 2.7,1.4 0.6,0.9 0.9,1.7 0.9,2.4 0,1.5 -0.7,2.4 -2,2.6 -1.3,0.2 -2,0.5 -2,0.9 0,1.1 2,2.3 6.1,3.3 4.1,1 6.6,3.1 7.7,6.2 1.3,0.4 3,0.6 5.1,0.6 h 1.4 v 7.1 z"
       id="path4"
       inkscape:connector-curvature="0"
       style="fill:#282828" /><path
       d="m 244.5,57.4 c 0.8,0 1.7,0 2.6,0 0.9,0 2,0 3.3,0 2.9,0 5.9,-0.1 9,-0.3 3.1,-0.2 5.8,-0.4 8.2,-0.6 0,-2.5 -1,-4.2 -3,-5.2 -1.6,-0.7 -3.2,-1.3 -4.7,-2 -0.9,0.7 -1.6,1.3 -2.3,1.8 -0.6,0.5 -1.3,0.7 -1.9,0.7 -1.7,0 -2.8,-0.6 -3.4,-1.7 -0.6,-1.1 -0.8,-2.3 -0.8,-3.6 0,-2 0.7,-3.5 2.2,-4.4 1.5,-0.9 3.2,-1.4 5.3,-1.4 3.9,0 7.2,1.9 9.9,5.6 2.7,3.7 4.7,6.1 5.9,7.1 1.2,1 2.4,1.6 3.4,1.8 1,0.2 2.2,0.4 3.6,0.4 h 1.9 c 1.8,0 3.2,0.3 4,0.9 0.9,0.6 1.3,2 1.3,4.2 0,1.5 -0.3,2.7 -0.9,3.5 -0.6,0.8 -1.5,1.2 -2.8,1.2 -0.3,0 -1.8,-0.3 -4.5,-1 -2.7,-0.7 -5.1,-1 -7.2,-1 -6.9,0 -12.2,0.1 -16,0.3 -3.8,0.2 -6.8,0.3 -9,0.3 l -4,0.1 V 57.4 Z M 267,72.9 c 0,-0.8 0.4,-1.6 1.1,-2.3 0.8,-0.7 1.7,-1.1 2.9,-1.1 2.3,0 3.4,1.1 3.4,3.4 0,1 -0.4,1.9 -1.1,2.7 -0.7,0.9 -1.7,1.3 -2.9,1.3 -0.7,0 -1.4,-0.4 -2.3,-1.3 -0.7,-0.9 -1.1,-1.8 -1.1,-2.7 z"
       id="path6"
       inkscape:connector-curvature="0"
       style="fill:#282828" /><path
       d="m 318.1,64.3 h -3.6 c -2.2,4.8 -4.3,8.7 -6.4,11.6 -2,3 -4.6,5.4 -7.8,7.2 -3.2,1.8 -7.1,2.7 -12,2.7 -2.1,0 -3.7,-0.3 -4.8,-0.8 -1.1,-0.5 -2.5,-1.5 -4,-3 -1.5,-1.5 -2.7,-3.2 -3.6,-5.1 -0.9,-1.9 -1.6,-5.4 -2.2,-10.3 l 0.3,-2.3 c 0.6,0.3 1.1,1.2 1.6,2.7 0.5,1.5 1.2,3.6 2.2,6.4 1.8,4 3.8,6.2 5.9,6.8 2.1,0.6 4,0.8 5.5,0.8 1.5,0 2.5,0.1 3.2,0.1 3.5,0 6.9,-1.9 10.2,-5.8 3.4,-3.8 5,-7.6 5,-11.3 -3.7,0 -6.3,-0.8 -7.9,-2.3 -1.6,-1.5 -2.3,-3.5 -2.3,-6.1 0,-1.8 0.8,-4.3 2.3,-7.5 1.5,-3.2 3.5,-4.8 5.9,-4.8 3.3,0 5.7,2.2 7.3,6.7 1.1,4.6 1.6,7 1.7,7.2 h 3.5 z m -13.8,-11 c -0.4,0.4 -0.6,0.9 -0.6,1.4 0,0.7 0.3,1.3 0.9,1.9 0.6,0.6 1.4,0.9 2.4,0.9 0.4,0 0.8,0 1.1,-0.1 0.3,-0.1 0.5,-0.4 0.5,-1 0,-1.3 -0.4,-2.2 -1.1,-2.7 -0.7,-0.5 -1.3,-0.8 -1.9,-0.8 -0.5,0 -0.9,0.1 -1.3,0.4 z"
       id="path8"
       inkscape:connector-curvature="0"
       style="fill:#282828" /><path
       d="m 316.1,57.4 h 4.8 c 2,0 3.1,0 3.3,0 0.2,0 1.3,0.3 3.4,0.8 0.1,-0.2 0.2,-0.4 0.2,-0.6 0,-0.2 0.1,-0.5 0.1,-0.8 0,-0.5 -0.1,-0.9 -0.2,-1.2 -0.2,-0.2 -0.3,-0.5 -0.5,-0.8 -0.1,-0.3 -0.8,-0.4 -1.9,-0.4 -1,0 -1.8,-0.4 -2.5,-1.1 -0.7,-0.8 -1,-1.6 -1,-2.7 0,-1.1 0.5,-2.1 1.4,-3.1 0.9,-1 2.1,-1.5 3.7,-1.5 1.2,0 2.5,1.1 4,3.2 1.5,2.1 2.2,4.7 2.2,7.9 0,2.3 -0.4,4.3 -1.2,5.9 -0.8,1.7 -1.8,2.5 -3,2.5 -0.6,-0.2 -1.4,-0.5 -2.5,-0.8 -1.1,-0.3 -3.1,-0.5 -6.2,-0.5 h -4 v -6.8 z m 11.6,17 c 0,-0.8 0.4,-1.6 1.1,-2.3 0.8,-0.7 1.7,-1.1 2.9,-1.1 1.3,0 2.2,0.3 2.7,1 0.5,0.6 0.7,1.5 0.7,2.5 0,1.4 -0.5,2.4 -1.4,3.1 -1,0.6 -2,1 -3.2,1 -0.7,-0.2 -1.3,-0.6 -2,-1.1 -0.5,-0.7 -0.8,-1.7 -0.8,-3.1 z"
       id="path10"
       inkscape:connector-curvature="0"
       style="fill:#282828" /><path
       d="m 395.1,63.7 c 0,-3.7 -0.5,-9 -1.4,-15.6 -0.9,-6.6 -1.8,-11.6 -2.7,-14.8 -0.9,-3.2 -1.9,-5.7 -3.3,-7.5 -1.3,-1.8 -2,-3.9 -2,-6.2 0,-1.7 0.6,-3.2 1.9,-4.4 1.3,-1.2 2.6,-1.8 4,-1.8 0.9,0 1.7,0.6 2.6,1.8 0.9,1.2 1.3,2.6 1.3,4.1 0,0.3 -0.1,0.9 -0.2,1.8 -0.1,0.9 -0.2,1.6 -0.2,2.2 0,2.5 0.6,6.9 1.8,13.2 1.2,6.2 1.9,10.5 2.2,12.7 0.3,2.2 0.6,4.1 0.8,5.7 0.2,1.6 0.3,3.2 0.3,4.7 0,1.4 -0.2,3.3 -0.5,5.6 -0.4,2.3 -0.8,3.9 -1.2,5 -0.4,1 -2.3,3.9 -5.7,8.6 -3.4,4.7 -8,8.4 -13.8,11.2 -5.8,2.8 -10.8,4.2 -15,4.2 -9.7,0 -16.8,-2.4 -21.3,-7.2 -4.5,-4.8 -7,-9.3 -7.6,-13.4 -0.6,-4.1 -0.9,-6.5 -0.9,-7 V 65 c 0,-0.4 0,-0.7 0,-0.8 0,-0.2 0,-0.3 0.1,-0.4 0.5,2.3 1.2,4.8 1.8,7.3 0.7,2.6 1.7,4.9 3.1,7.2 1.4,2.2 4.2,4.5 8.6,6.9 4.3,2.4 9.4,3.6 15.1,3.6 3.2,0 7,-1.1 11.4,-3.3 4.4,-2.2 8.4,-5 11.9,-8.3 0.8,-0.5 2.4,-2.7 4.9,-6.5 2.8,-3.8 4,-6.2 4,-7 z"
       id="path12"
       inkscape:connector-curvature="0"
       style="fill:#282828" /><path
       d="m 405.2,83.8 c 5.6,-0.8 10.4,-3.1 14.4,-6.8 4.1,-3.7 6.1,-8.1 6.1,-13.1 -0.6,0 -1.6,0.2 -3,0.5 -1.4,0.4 -2.4,0.5 -2.9,0.5 -0.3,0 -1.3,-0.1 -2.9,-0.4 -1.6,-0.3 -2.8,-1.2 -3.6,-2.7 -0.8,-1.5 -1.2,-3.8 -1.2,-6.8 0,-4.7 1.1,-8.1 3.2,-10.2 2.2,-2.2 4.4,-3.2 6.7,-3.2 3.3,0 5.9,1.8 7.9,5.4 2,3.6 3,7.9 3,13 0,8.2 -2.9,15.2 -8.7,20.9 -5.8,5.7 -12.3,8.5 -19.5,8.5 -2.6,0 -5.6,-0.4 -9.1,-1.2 -3.5,-0.8 -6.6,-2.5 -9.4,-5.2 -2.8,-2.7 -5,-4.9 -6.6,-6.8 -1.6,-1.9 -2.7,-3.6 -3.2,-5.2 -0.5,-1.6 -0.9,-2.6 -1,-3.1 -0.1,-0.5 -0.2,-0.9 -0.2,-1 0,-0.5 0.2,-0.7 0.6,-0.6 0.4,0 0.6,0.3 0.7,0.8 0.1,0.5 0.1,0.9 0.2,1.3 2.1,3.2 3.9,5.4 5.4,6.8 1.5,1.4 3.6,2.9 6.3,4.7 2.7,1.7 5.1,2.8 7.2,3.4 2.1,0.6 4.2,0.8 6.2,0.8 1.3,-0.1 2.3,-0.1 3.4,-0.3 z M 421,49.1 c -1.1,0 -1.8,0.7 -2.2,2.2 -0.2,1.7 -0.4,2.8 -0.4,3.1 -0.1,0.7 0.3,1.5 1.1,2.4 0.8,0.9 1.5,1.3 2.3,1.2 1.5,-0.2 2.4,-0.5 2.9,-1 0.5,-0.5 0.7,-1.1 0.7,-1.8 0,-0.5 -0.1,-0.9 -0.1,-1.1 0,-0.8 -0.4,-1.9 -1.2,-3.2 -0.8,-1.3 -1.9,-1.9 -3.1,-1.8 z"
       id="path14"
       inkscape:connector-curvature="0"
       style="fill:#282828" /><path
       d="m 444.4,9.8 c -0.9,0.4 -1.3,1 -1,1.9 0.1,0.5 0.4,0.8 0.9,1.1 0.5,0.3 1,0.4 1.5,0.4 0.2,0 1,-0.1 2.5,-0.4 1.5,-0.3 2.4,-0.4 2.7,-0.4 0.9,0 1.3,0.5 1.3,1.4 0,0.7 -0.5,1.2 -1.5,1.3 -1,0.1 -2,0.4 -2.9,0.7 -1,0.3 -1.9,0.8 -2.8,1.3 -0.9,0.5 -2,1.2 -3.1,2.1 -1.1,0.8 -1.8,1.2 -1.9,1.2 -1.4,-0.1 -1.9,-0.7 -1.6,-1.7 0.2,-0.5 0.7,-1.2 1.4,-1.9 0.7,-0.7 1.3,-1.3 1.9,-1.6 -0.9,-0.7 -1.5,-1.4 -1.7,-2.3 -0.2,-0.9 -0.3,-1.4 -0.3,-1.7 0,-1.2 0.3,-2.2 1,-3.1 0.7,-0.9 1.4,-1.5 2.2,-1.8 0.8,-0.3 1.4,-0.4 1.9,-0.4 1,0 1.8,0.2 2.6,0.6 0.8,0.4 1.2,0.8 1.2,1.4 0,1.3 -0.5,1.9 -1.6,1.9 -0.2,0 -0.5,-0.1 -1,-0.2 -0.5,-0.1 -0.8,-0.2 -0.9,-0.2 -0.3,0 -0.5,0.2 -0.8,0.4 z m 30,59.1 c -1.9,1.1 -3.6,1.7 -5.3,1.7 -0.9,0 -1.6,-0.2 -2.2,-0.6 -0.6,-0.4 -1.1,-1.1 -1.5,-2 -0.4,-0.9 -0.6,-1.8 -0.5,-2.7 l -2,0.1 c -5.2,0 -9.1,-0.5 -11.9,-1.4 -2.8,-0.9 -5.8,-3.6 -9.2,-8 -0.6,-0.8 -1.2,-2.2 -1.8,-4 -0.6,-1.8 -0.9,-3.6 -0.9,-5.4 0,-0.7 0,-1.2 0.1,-1.5 0.3,0.5 0.5,1.1 0.8,1.6 0.4,1.1 0.7,1.9 0.8,2.4 2.2,3.9 5,6.8 8.3,8.6 3.3,1.8 7,2.8 11.1,2.8 1.8,0 3.9,-0.2 6.3,-0.6 2.4,-0.4 4.3,-0.8 5.7,-1.4 1.3,-0.5 2,-1.3 2,-2.4 v -2.8 c 0,-7.1 -2,-13.6 -5.9,-19.3 -4,-5.8 -8.9,-8.6 -14.9,-8.6 -0.4,0 -0.8,0 -1.2,0.1 -0.4,0 -1.4,0.2 -3.1,0.4 -1.7,0.2 -3.2,1.2 -4.5,2.9 -1.3,1.7 -2.9,4.5 -4.7,8.3 -0.1,0 -0.3,-0.1 -0.5,-0.2 0,-1.6 0.4,-3.7 1.3,-6.3 0.9,-2.6 2.5,-5 5,-7.2 2.4,-2.2 4.8,-3.4 7.2,-3.4 7.3,0 13.3,2.9 17.9,8.8 4.6,5.9 6.9,12.7 6.9,20.4 v 5.3 c 0.5,-1.9 0.9,-4 1.4,-6.3 0.5,-2.3 0.7,-4.5 0.7,-6.5 0,-0.9 0,-2.2 0.1,-4 0,-1.7 0.1,-3 0.1,-3.8 0,-2.1 -0.1,-3.8 -0.2,-5.2 -0.2,-1.4 -0.5,-2.8 -1,-4.2 -0.3,0 -0.5,-0.1 -0.8,-0.2 -0.3,-0.1 -0.6,-0.2 -0.9,-0.4 -1.4,-0.4 -2.1,-1.2 -2.1,-2.5 0,-1 0.4,-2.1 1.1,-3.2 0.8,-1.1 1.5,-2.1 2.2,-3 l 0.1,-0.1 c 1,-0.6 1.8,-0.8 2.5,-0.8 1.4,0 2.4,1 3.1,3 0.7,2 1,4.4 1,7.3 l -0.2,7 c 0,6.1 -0.3,11.4 -1,15.6 -0.7,4.3 -1.6,7.5 -2.7,9.5 -1.1,2.1 -2.3,3.5 -3.4,4.4 -0.3,1.8 -0.6,3.4 -0.9,4.7 -0.5,1.2 -1.2,2.2 -2.4,3.1 z"
       id="path16"
       inkscape:connector-curvature="0"
       style="fill:#282828" /><path
       d="m 492.3,30.7 c -0.2,-1.2 -0.6,-2.2 -1.1,-2.8 -0.6,-0.7 -1.2,-1.4 -1.7,-2.1 -0.2,-2.1 0.4,-4 2,-5.8 1.6,-1.7 3.2,-2.6 4.9,-2.6 1.2,0 2.1,0.6 2.6,1.7 0.5,1.1 0.7,2 0.5,2.7 -0.3,1.1 -0.7,2.4 -1,3.7 -0.4,1.3 -0.5,2.7 -0.5,4.3 0,3.1 0.3,7.1 1,12 0.7,4.9 1,8.5 1,11.1 0,2 -1.2,4.9 -3.5,8.7 -2.3,3.8 -5.5,6.2 -9.4,7.3 2.1,-2.6 3.6,-4.6 4.4,-6.2 0.8,-1.5 1.4,-3 1.8,-4.5 0.3,-1.5 0.6,-2.7 0.7,-3.7 0.1,-1 0.1,-2 0.1,-3 0,-0.9 0,-2 -0.1,-3.3 -0.1,-1.3 -0.2,-2.6 -0.3,-3.7 z"
       id="path18"
       inkscape:connector-curvature="0"
       style="fill:#282828" /><path
       d="m 555.1,64.3 h -3.6 c -0.9,0 -1.9,-0.3 -3.2,-0.8 -1.3,-0.5 -2,-0.8 -2.1,-0.8 -0.1,0 -0.5,0.2 -1,0.7 -0.6,0.5 -1.6,0.7 -3.2,0.7 -0.9,0 -2.1,-0.2 -3.7,-0.5 -1.6,-0.3 -2.9,-0.5 -3.8,-0.5 -2.8,0 -5.3,0.9 -7.4,2.7 -1.9,2.2 -3.7,4.4 -5.6,6.6 -0.2,-0.8 -0.2,-1.3 0,-1.4 0,-2.7 1.1,-5.3 3.4,-7.8 2.3,-2.5 4.3,-4 6.2,-4.7 1.9,-0.6 3.5,-1.1 4.9,-1.3 1.4,-0.2 2.3,-0.3 2.7,-0.4 -2.7,-1.5 -5,-2.9 -6.9,-4.3 -1.9,-1.3 -2.8,-3.4 -2.8,-6.2 0,-1.8 0.6,-3.3 1.7,-4.6 1.1,-1.3 2.5,-1.9 4.3,-1.9 1.2,0 2.1,0.5 2.7,1.4 0.6,0.9 0.9,1.7 0.9,2.4 0,1.5 -0.7,2.4 -2,2.6 -1.3,0.2 -2,0.5 -2,0.9 0,1.1 2,2.3 6.1,3.3 4.1,1 6.6,3.1 7.7,6.2 1.3,0.4 3,0.6 5.1,0.6 h 1.4 v 7.1 z"
       id="path20"
       inkscape:connector-curvature="0"
       style="fill:#282828" /><path
       d="m 553.5,57.4 h 6 c 0.6,-2.1 1.5,-3.9 2.7,-5.5 1.2,-1.6 2.8,-2.4 5,-2.4 3.1,0 5.3,1.3 6.8,4 1.4,2.6 2.4,4 2.8,4 h 4.6 v 6.9 h -4.6 c -0.6,0 -1.6,1 -2.8,3.1 -1.2,2.1 -3.1,3.1 -5.6,3.1 -2.7,0 -4.7,-1 -6.1,-3.1 -1.3,-2 -2.1,-3.1 -2.4,-3.1 -0.2,0 -0.6,-0.1 -1.2,-0.1 -0.6,0 -1,0 -1.4,0 -0.9,0 -1.6,0 -2.2,0 -0.6,0 -1.2,0 -1.7,0.1 v -7 z m 12,3.3 c 0.4,2 1.2,3 2.5,3 0.8,0 1.3,-0.4 1.6,-1.1 0.2,-0.7 0.4,-1.6 0.4,-2.8 -0.1,-1 -0.3,-1.9 -0.7,-2.6 -0.4,-0.7 -1,-1.1 -1.8,-1.1 -0.6,0 -1.1,0.3 -1.5,1 -0.4,0.7 -0.5,1.5 -0.5,2.4 -0.1,0.4 -0.1,0.7 0,1.2 z"
       id="path22"
       inkscape:connector-curvature="0"
       style="fill:#282828" /><path
       d="m 579.3,57.4 2.8,0.1 c 2.9,0 5.6,-0.1 8.3,-0.2 2.6,-0.2 5.2,-0.4 7.6,-0.6 0,-2.5 -1,-4.2 -3,-5.2 -1.6,-0.7 -3.2,-1.3 -4.7,-2 -0.5,0.4 -1.1,0.9 -1.8,1.6 -0.7,0.6 -1.5,0.9 -2.3,0.9 -1.8,0 -2.9,-0.5 -3.5,-1.6 -0.6,-1.1 -0.8,-2.3 -0.8,-3.6 0,-2 0.7,-3.5 2.2,-4.4 1.5,-0.9 3.2,-1.4 5.3,-1.4 4,0 7.4,1.9 10.1,5.7 2.8,3.8 4.9,6.3 6.3,7.5 1.5,1.2 3.3,2 5.7,2.4 2.3,0.4 4.6,0.7 6.7,0.9 v 6.9 h -2.3 c -0.3,0 -1.8,-0.1 -4.5,-0.3 -2.7,-0.2 -5.2,-0.3 -7.4,-0.3 -6.8,0 -11.6,0.1 -14.4,0.3 -2.8,0.2 -5.4,0.3 -7.7,0.3 l -2.6,0.1 z"
       id="path24"
       inkscape:connector-curvature="0"
       style="fill:#282828" /><path
       d="m 616.3,57.4 h 7.6 c 0,-2.2 0.4,-4 1.2,-5.5 0.8,-1.5 2.6,-2.2 5.4,-2.2 1.9,0 3.8,1.1 5.8,3.4 1.9,2.2 2.9,5.3 2.9,9.3 0,2.6 -0.6,4.4 -1.7,5.3 -1.1,0.9 -2.6,1.5 -4.4,1.5 -1.6,0 -3,-0.5 -4.1,-1.5 -1,-1.1 -2,-2.3 -3,-3.4 h -9.6 v -6.9 z m 13.5,3.7 c 0.6,1.2 1.4,1.8 2.2,1.8 0.2,0 0.6,-0.1 1.1,-0.3 0.5,-0.2 0.8,-0.7 0.8,-1.7 0,-0.5 -0.1,-1.2 -0.4,-2 -0.2,-0.8 -0.6,-1.4 -1.2,-1.9 -0.6,-0.5 -1.2,-0.7 -2,-0.5 -0.4,0.1 -0.7,0.4 -0.9,0.8 -0.2,0.4 -0.3,0.8 -0.3,1.2 0,0.5 0,1 0.1,1.3 0.2,0.4 0.4,0.8 0.6,1.3 z"
       id="path26"
       inkscape:connector-curvature="0"
       style="fill:#282828" /><path
       d="m 660,25.1 c 0,-1.5 0.4,-2.4 1.2,-2.8 0.8,-0.4 1.7,-0.6 2.8,-0.6 1.2,0 2,0.2 2.5,0.5 0.5,0.4 1,1.1 1.5,2.3 0.6,-1.5 1.2,-2.5 1.9,-3.1 0.7,-0.6 1.7,-0.9 3.3,-0.9 1,0 1.9,0.5 2.5,1.5 0.7,1 1,1.8 1,2.5 0,1 -0.5,1.8 -1.5,2.5 -1,0.7 -2.1,1 -3.2,1 -1.1,0 -1.8,-0.2 -2.3,-0.7 -0.5,-0.7 -0.9,-1.2 -1.2,-1.6 -1.3,1.7 -2.3,2.7 -3,3 -0.6,0.3 -1.4,0.5 -2.2,0.5 -0.9,0 -1.7,-0.4 -2.4,-1.1 -0.6,-0.8 -0.9,-1.8 -0.9,-3 z m 28.7,39.2 1.3,0.1 c -0.2,0 -0.6,0 -1.1,0 -0.5,0 -1.2,0 -2,0 -2.4,0 -4.4,0.8 -5.7,2.3 -1.4,1.5 -3.7,2.3 -6.9,2.3 0.2,-0.6 0.8,-1.4 1.8,-2.4 1,-1 1.6,-1.7 1.8,-2.3 -0.4,0 -0.8,-0.1 -1.2,-0.1 -0.4,0 -0.8,0 -1,0 -1.8,0 -2.9,0 -3.3,0 -0.4,0 -0.8,0.1 -1,0.2 -1.9,-0.3 -3.7,-1 -5.6,-2.1 -1.9,-1.1 -2.8,-3.8 -2.8,-8 0,-3.9 1.5,-6.8 4.5,-8.5 3.5,-1 7,-1.9 10.6,-2.9 0.2,-0.4 0.2,-1.1 0,-2.1 -0.2,-0.9 -0.5,-1.7 -0.7,-2.2 -0.3,-0.6 -1,-1.2 -2.2,-2 -1.2,-0.8 -1.8,-1.5 -1.8,-2.2 0,-1.8 0.5,-3 1.4,-3.5 1,-0.5 2.2,-0.7 3.7,-0.7 1.7,0 3.1,0.7 4.2,2.1 1.1,1.4 1.7,3.2 1.7,5.5 0,1.5 0,3 -0.1,4.5 -0.1,1.5 -0.1,3.1 -0.1,4.7 0,1.6 0,3.2 0,4.7 0.1,2.4 0.3,4.3 0.6,5.4 h 4.1 v 7.2 z M 670,55.5 c 0,0.7 0.4,1.1 1.1,1.4 0.8,0.2 1.7,0.4 2.8,0.4 1.1,0 1.8,-0.1 2.1,-0.1 2.1,0 3.1,-0.8 3.1,-2.3 l -0.1,-1.2 -0.4,-3.4 c 0,-0.9 -0.5,-1.3 -1.6,-1.3 -0.9,0 -1.9,0.3 -3.1,0.8 -1.2,0.5 -2,1 -2.5,1.4 -0.5,0.4 -0.9,1.1 -1.1,1.8 -0.2,0.8 -0.3,1.6 -0.3,2.5 z"
       id="path28"
       inkscape:connector-curvature="0"
       style="fill:#282828" /><path
       d="m 704.3,62.7 c -1.1,-1.1 -1.9,-1.7 -2.2,-1.7 -0.3,0 -1,0.6 -2.2,1.7 -1.1,1.1 -1.9,1.7 -2.1,1.7 h -11.1 v -6.9 h 7 c 1,-0.1 1.7,-0.3 2.1,-0.6 0.4,-0.3 1,-0.6 1.7,-0.9 -1.5,-0.1 -2.9,-0.3 -4.3,-0.5 -2.1,-0.4 -3.2,-1.4 -3.2,-2.8 0,-1.5 0.6,-2.7 1.8,-3.4 1.2,-0.8 2.7,-1.6 4.5,-2.5 0.8,-0.6 1.8,-1.6 3.1,-3.1 1.2,-1.5 2.3,-2.3 3.2,-2.3 1.2,0 2.5,0.8 3.6,2.3 1.2,1.5 2.1,2.6 2.9,3.1 1.3,0.7 2.5,1.5 3.8,2.2 1.4,1 2.1,2.2 2.1,3.8 0,1.5 -0.8,2.4 -2.3,2.7 -1.6,0.3 -3.2,0.5 -4.9,0.6 0.4,0.3 0.9,0.6 1.4,0.9 0.5,0.3 1.3,0.5 2.5,0.6 h 6.9 v 6.9 h -12.1 c -0.3,-0.2 -1,-0.7 -2.2,-1.8 z m -2.6,-14.5 c -0.2,0.9 -0.6,1.4 -1.2,1.5 -0.6,0.1 -1.3,0.4 -2.3,0.7 -1,0.3 -1.4,0.7 -1.4,0.9 0,0.4 0.6,0.7 1.7,0.9 1.1,0.2 2.4,0.4 3.9,0.5 0.8,0 1.9,-0.1 3.5,-0.4 1.5,-0.3 2.3,-0.6 2.3,-1.1 0,-0.2 -0.3,-0.4 -1,-0.8 -0.7,-0.3 -1.4,-0.6 -2.1,-0.7 -0.8,-0.2 -1.3,-0.7 -1.6,-1.6 -0.3,-0.9 -0.6,-1.3 -0.9,-1.3 -0.4,0 -0.7,0.5 -0.9,1.4 z"
       id="path30"
       inkscape:connector-curvature="0"
       style="fill:#282828" /><path
       d="m 716.4,57.4 h 7.6 c 0,-2.2 0.4,-4 1.2,-5.5 0.8,-1.5 2.6,-2.2 5.4,-2.2 1.9,0 3.8,1.1 5.8,3.4 1.9,2.2 2.9,5.3 2.9,9.3 0,2.6 -0.6,4.4 -1.7,5.3 -1.1,0.9 -2.6,1.5 -4.4,1.5 -1.6,0 -3,-0.5 -4.1,-1.5 -1,-1.1 -2,-2.3 -3,-3.4 h -9.6 v -6.9 z m 13.6,3.7 c 0.6,1.2 1.4,1.8 2.2,1.8 0.2,0 0.6,-0.1 1.1,-0.3 0.5,-0.2 0.8,-0.7 0.8,-1.7 0,-0.5 -0.1,-1.2 -0.4,-2 -0.2,-0.8 -0.6,-1.4 -1.2,-1.9 -0.6,-0.5 -1.2,-0.7 -2,-0.5 -0.4,0.1 -0.7,0.4 -0.9,0.8 -0.2,0.4 -0.3,0.8 -0.3,1.2 0,0.5 0,1 0.1,1.3 0.2,0.4 0.4,0.8 0.6,1.3 z"
       id="path32"
       inkscape:connector-curvature="0"
       style="fill:#282828" /><path
       d="m 763.3,64.3 c -0.3,-0.1 -0.7,-0.2 -1.1,-0.2 -0.4,0 -1.3,0 -2.7,0 -1.1,0 -1.8,0.1 -2.3,0.4 -0.5,0.3 -1.3,1.2 -2.6,2.9 -1.3,1.7 -3,2.9 -5.3,3.7 L 748.9,70 c 0.5,-0.9 1.3,-2.2 2.6,-3.9 0.9,-1.9 1.4,-4.8 1.4,-8.7 L 749,35.7 c -0.8,-1.4 -1.7,-2.9 -2.6,-4.5 -0.9,-1.6 -1.3,-3.2 -1.3,-4.7 0,-2.4 0.7,-4.2 2,-5.4 1.3,-1.2 2.6,-1.8 3.9,-1.8 1,0 1.7,0.5 2.3,1.4 0.5,1 0.8,2.1 0.8,3.5 0,0.9 -0.2,2.5 -0.6,4.7 -0.4,2.2 -0.5,3.6 -0.5,4.1 0.6,4.2 1.3,8.2 2.1,11.8 0.8,3.6 1.4,6.4 1.9,8.3 0.5,1.9 0.9,3.3 1.1,4.2 h 5 v 7 z"
       id="path34"
       inkscape:connector-curvature="0"
       style="fill:#282828" /><path
       d="m 761.3,57.4 c 0.8,0 1.7,0 2.6,0 0.9,0 2,0 3.3,0 2.9,0 5.9,-0.1 9,-0.3 3.1,-0.2 5.8,-0.4 8.2,-0.6 0,-2.5 -1,-4.2 -3,-5.2 -1.6,-0.7 -3.2,-1.3 -4.7,-2 -0.9,0.7 -1.6,1.3 -2.3,1.8 -0.6,0.5 -1.3,0.7 -1.9,0.7 -1.7,0 -2.8,-0.6 -3.4,-1.7 -0.6,-1.1 -0.8,-2.3 -0.8,-3.6 0,-2 0.7,-3.5 2.2,-4.4 1.5,-0.9 3.2,-1.4 5.3,-1.4 3.9,0 7.2,1.9 9.9,5.6 2.7,3.7 4.7,6.1 5.9,7.1 1.2,1 2.4,1.6 3.4,1.8 1,0.2 2.2,0.4 3.6,0.4 h 1.9 c 1.8,0 3.2,0.3 4,0.9 0.9,0.6 1.3,2 1.3,4.2 0,1.5 -0.3,2.7 -0.9,3.5 -0.6,0.8 -1.5,1.2 -2.8,1.2 -0.3,0 -1.8,-0.3 -4.5,-1 -2.7,-0.7 -5.1,-1 -7.2,-1 -6.9,0 -12.2,0.1 -16,0.3 -3.8,0.2 -6.8,0.3 -9,0.3 l -4,0.1 v -6.7 z m 22.5,15.5 c 0,-0.8 0.4,-1.6 1.1,-2.3 0.8,-0.7 1.7,-1.1 2.9,-1.1 2.3,0 3.4,1.1 3.4,3.4 0,1 -0.4,1.9 -1.1,2.7 -0.7,0.9 -1.7,1.3 -2.9,1.3 -0.7,0 -1.4,-0.4 -2.3,-1.3 -0.7,-0.9 -1.1,-1.8 -1.1,-2.7 z"
       id="path36"
       inkscape:connector-curvature="0"
       style="fill:#282828" /></g><g
     id="g100"
     transform="matrix(0.87461345,0,0,1,57.4704,0)"><path
       d="m 7,114.5 h 8.8 v 22.9 c 0,3.2 0.1,5.5 0.4,6.7 0.3,1.3 0.9,2.2 1.8,2.9 0.9,0.7 2.1,1 3.4,1 1.5,0 2.6,-0.4 3.5,-1.1 0.9,-0.7 1.4,-1.7 1.6,-2.9 0.2,-1.2 0.3,-3.4 0.3,-6.7 v -22.9 h 7.4 V 137 c 0,4.5 -0.3,7.8 -0.8,10 -0.5,2.2 -1.8,4.1 -4,5.7 -2.1,1.6 -5,2.4 -8.7,2.4 -3.5,0 -6.2,-0.6 -8.2,-1.7 -2,-1.1 -3.4,-2.8 -4.2,-4.9 C 7.5,146.4 7,142.7 7,137.4 Z"
       id="path40"
       inkscape:connector-curvature="0"
       style="fill:#282828" /><path
       d="m 41.4,114.5 h 9.8 l 10.3,24.8 v -24.8 h 6.8 v 40 H 60.4 L 48.2,125.6 v 28.9 h -6.8 z"
       id="path42"
       inkscape:connector-curvature="0"
       style="fill:#282828" /><path
       d="m 75.5,114.5 h 8.8 v 40 h -8.8 z"
       id="path44"
       inkscape:connector-curvature="0"
       style="fill:#282828" /><path
       d="m 87.2,114.5 h 9.2 l 6.2,30.5 6.4,-30.5 h 7.5 l -9.8,40.2 -9.8,-0.2 z"
       id="path46"
       inkscape:connector-curvature="0"
       style="fill:#282828" /><path
       d="m 119.4,114.5 h 24.3 v 6.9 h -15.5 v 9.3 h 12.1 v 6.9 h -12.1 v 9.8 h 15.5 v 7.1 h -24.3 z"
       id="path48"
       inkscape:connector-curvature="0"
       style="fill:#282828" /><path
       d="m 148.1,114.5 h 12.6 c 2.4,0 4.3,0.1 5.6,0.3 1.3,0.2 2.6,0.8 3.9,1.8 1.3,1 2.4,2.3 3.1,4 0.8,1.7 1.1,3.6 1.1,5.8 0,5 -1.9,8.5 -5.6,10.5 l 7.4,17.5 h -9.6 l -5.3,-15.8 h -4.4 v 15.8 h -8.8 z m 8.7,6.5 v 11.2 h 3.9 c 3.4,0 5.2,-1.9 5.2,-5.8 0,-1.3 -0.3,-2.4 -0.8,-3.3 -0.5,-0.8 -1.1,-1.4 -1.8,-1.7 -0.7,-0.3 -1.7,-0.5 -3,-0.5 h -3.5 z"
       id="path50"
       inkscape:connector-curvature="0"
       style="fill:#282828" /><path
       d="m 205.2,123.2 -7.3,2.8 c -1,-3.3 -2.9,-5 -5.7,-5 -1.3,0 -2.3,0.4 -3.1,1.1 -0.8,0.7 -1.1,1.6 -1.1,2.6 0,1.1 0.4,2 1.3,2.7 0.9,0.7 2.7,1.6 5.6,2.7 2.6,1 4.6,1.9 6.1,2.8 1.5,0.9 2.7,2.2 3.6,3.8 0.9,1.6 1.4,3.5 1.4,5.6 0,3.7 -1.3,6.8 -3.9,9.2 -2.6,2.4 -6,3.6 -10.3,3.6 -7.2,0 -11.9,-3.7 -13.9,-11 l 7.7,-2.2 c 0.9,4 3.1,6 6.4,6 1.5,0 2.8,-0.4 3.7,-1.2 0.9,-0.8 1.4,-1.8 1.4,-3.1 0,-1 -0.3,-1.9 -1,-2.6 -0.7,-0.8 -2.2,-1.6 -4.6,-2.4 -3.1,-1.1 -5.4,-2.1 -6.9,-3 -1.5,-0.9 -2.7,-2.2 -3.7,-3.8 -1,-1.7 -1.5,-3.5 -1.5,-5.6 0,-3.6 1.2,-6.5 3.5,-8.8 2.3,-2.3 5.4,-3.4 9.2,-3.4 7.1,-0.1 11.4,3 13.1,9.2 z"
       id="path52"
       inkscape:connector-curvature="0"
       style="fill:#282828" /><path
       d="m 211.4,114.5 h 8.8 v 40 h -8.8 z"
       id="path54"
       inkscape:connector-curvature="0"
       style="fill:#282828" /><path
       d="m 223.3,114.5 h 24.9 V 122 H 240 v 32.5 h -8.8 V 122 h -8 v -7.5 z"
       id="path56"
       inkscape:connector-curvature="0"
       style="fill:#282828" /><path
       d="m 251.3,114.5 h 24.3 v 6.9 h -15.5 v 9.3 h 12.1 v 6.9 h -12.1 v 9.8 h 15.5 v 7.1 h -24.3 z"
       id="path58"
       inkscape:connector-curvature="0"
       style="fill:#282828" /><path
       d="M 291.1,114.5 H 304 l 5.7,24.7 6.4,-24.7 h 12.5 v 40 h -8.2 V 121 l -8.2,33.5 h -6.4 L 298.3,121 v 33.5 h -7.1 v -40 z"
       id="path60"
       inkscape:connector-curvature="0"
       style="fill:#282828" /><path
       d="m 363.7,134.5 c 0,13.8 -4.8,20.6 -14.5,20.6 -4.8,0 -8.4,-1.8 -10.9,-5.3 -2.4,-3.5 -3.7,-8.6 -3.7,-15.4 0,-13.7 4.8,-20.6 14.5,-20.6 4.7,0 8.3,1.7 10.8,5.2 2.5,3.5 3.8,8.6 3.8,15.5 z m -9.3,0 c 0,-5.4 -0.4,-9 -1.3,-10.8 -0.8,-1.8 -2.2,-2.7 -4,-2.7 -1.8,0 -3.1,0.9 -4,2.7 -0.8,1.8 -1.3,5.4 -1.3,10.8 0,5.3 0.4,8.8 1.2,10.7 0.8,1.9 2.2,2.8 4,2.8 1.8,0 3.1,-0.9 4,-2.7 1,-1.8 1.4,-5.4 1.4,-10.8 z"
       id="path62"
       inkscape:connector-curvature="0"
       style="fill:#282828" /><path
       d="m 369.8,114.5 h 8.8 v 16.1 h 9.6 v -16.1 h 8.8 v 40 h -8.8 v -16.3 h -9.6 v 16.3 h -8.8 z"
       id="path64"
       inkscape:connector-curvature="0"
       style="fill:#282828" /><path
       d="m 411.6,114.5 h 8.8 l 11.4,40 h -9 l -2,-8.3 h -11.3 l -2,8.3 h -8.1 z m 7.6,24.9 -4,-16.4 -3.9,16.4 z"
       id="path66"
       inkscape:connector-curvature="0"
       style="fill:#282828" /><path
       d="m 435.2,114.5 h 12.9 l 5.7,24.7 6.4,-24.7 h 12.5 v 40 h -8.2 V 121 l -8.2,33.5 h -6.4 L 442.4,121 v 33.5 h -7.1 v -40 z"
       id="path68"
       inkscape:connector-curvature="0"
       style="fill:#282828" /><path
       d="m 480.2,114.5 h 12.9 l 5.7,24.7 6.4,-24.7 h 12.5 v 40 h -8.2 V 121 l -8.2,33.5 h -6.4 L 487.4,121 v 33.5 h -7.1 v -40 z"
       id="path70"
       inkscape:connector-curvature="0"
       style="fill:#282828" /><path
       d="m 525.1,114.5 h 24.3 v 6.9 h -15.5 v 9.3 H 546 v 6.9 h -12.1 v 9.8 h 15.5 v 7.1 h -24.3 z"
       id="path72"
       inkscape:connector-curvature="0"
       style="fill:#282828" /><path
       d="m 553.8,114.5 h 9.5 c 4.1,0 7.4,0.6 10,1.7 2.6,1.1 4.6,3.1 6.2,6.1 1.5,3 2.3,7 2.3,12 0,3.6 -0.5,6.8 -1.4,9.6 -0.9,2.8 -2.2,5 -3.7,6.6 -1.5,1.6 -3.2,2.7 -5.2,3.2 -1.9,0.5 -4.3,0.8 -7.2,0.8 h -10.5 z m 8.7,6.9 v 26.3 h 1.5 c 2,0 3.6,-0.4 4.7,-1.2 1.1,-0.8 2,-2.1 2.7,-4.1 0.7,-1.9 1,-4.8 1,-8.4 0,-3.4 -0.4,-6 -1.1,-7.9 -0.7,-1.9 -1.7,-3.1 -2.8,-3.7 -1.1,-0.7 -2.6,-1 -4.5,-1 z"
       id="path74"
       inkscape:connector-curvature="0"
       style="fill:#282828" /><path
       d="m 598.7,114.5 h 11.5 c 3.5,0 6.2,0.3 8.1,0.9 1.9,0.6 3.5,1.9 4.8,4 1.3,2.1 2,4.6 2,7.7 0,2.9 -0.5,5.4 -1.6,7.3 -1.1,1.9 -2.5,3.3 -4.4,4.1 -1.9,0.8 -4.7,1.3 -8.6,1.3 h -3.1 v 14.8 h -8.8 v -40.1 z m 8.8,6.5 v 11.9 h 2.7 c 2.4,0 4,-0.6 4.6,-1.7 0.7,-1.1 1,-2.6 1,-4.3 0,-1.5 -0.3,-2.7 -0.8,-3.7 -0.5,-0.9 -1.2,-1.5 -1.9,-1.8 -0.7,-0.3 -1.7,-0.4 -3,-0.4 z"
       id="path76"
       inkscape:connector-curvature="0"
       style="fill:#282828" /><path
       d="m 629.3,114.5 h 12.6 c 2.4,0 4.3,0.1 5.6,0.3 1.3,0.2 2.6,0.8 3.9,1.8 1.3,1 2.4,2.3 3.1,4 0.8,1.7 1.1,3.6 1.1,5.8 0,5 -1.9,8.5 -5.6,10.5 l 7.4,17.5 h -9.6 l -5.3,-15.8 h -4.4 v 15.8 h -8.8 z m 8.8,6.5 v 11.2 h 3.9 c 3.4,0 5.2,-1.9 5.2,-5.8 0,-1.3 -0.3,-2.4 -0.8,-3.3 -0.5,-0.8 -1.1,-1.4 -1.8,-1.7 -0.7,-0.3 -1.7,-0.5 -3,-0.5 h -3.5 z"
       id="path78"
       inkscape:connector-curvature="0"
       style="fill:#282828" /><path
       d="m 662,114.5 h 24.3 v 6.9 h -15.5 v 9.3 h 12.1 v 6.9 h -12.1 v 9.8 h 15.5 v 7.1 H 662 Z"
       id="path80"
       inkscape:connector-curvature="0"
       style="fill:#282828" /><path
       d="m 690.7,114.5 h 12.9 l 5.7,24.7 6.4,-24.7 h 12.5 v 40 H 720 V 121 l -8.2,33.5 h -6.4 L 697.9,121 v 33.5 h -7.1 v -40 z"
       id="path82"
       inkscape:connector-curvature="0"
       style="fill:#282828" /><path
       d="m 735.6,114.5 h 8.8 v 40 h -8.8 z"
       id="path84"
       inkscape:connector-curvature="0"
       style="fill:#282828" /><path
       d="m 752,114.5 h 24.3 v 6.9 h -15.5 v 9.3 h 12.1 v 6.9 h -12.1 v 9.8 h 15.5 v 7.1 H 752 Z"
       id="path86"
       inkscape:connector-curvature="0"
       style="fill:#282828" /><path
       d="m 780.6,114.5 h 12.6 c 2.4,0 4.3,0.1 5.6,0.3 1.3,0.2 2.6,0.8 3.9,1.8 1.3,1 2.4,2.3 3.1,4 0.8,1.7 1.1,3.6 1.1,5.8 0,5 -1.9,8.5 -5.6,10.5 l 7.4,17.5 h -9.6 l -5.3,-15.8 h -4.4 v 15.8 h -8.8 z m 8.8,6.5 v 11.2 h 3.9 c 3.4,0 5.2,-1.9 5.2,-5.8 0,-1.3 -0.3,-2.4 -0.8,-3.3 -0.5,-0.8 -1.1,-1.4 -1.8,-1.7 -0.7,-0.3 -1.7,-0.5 -3,-0.5 h -3.5 z"
       id="path88"
       inkscape:connector-curvature="0"
       style="fill:#282828" /><path
       d="m 852.1,134.5 c 0,13.8 -4.8,20.6 -14.5,20.6 -4.8,0 -8.4,-1.8 -10.9,-5.3 -2.4,-3.5 -3.7,-8.6 -3.7,-15.4 0,-13.7 4.8,-20.6 14.5,-20.6 4.7,0 8.3,1.7 10.8,5.2 2.5,3.5 3.8,8.6 3.8,15.5 z m -9.3,0 c 0,-5.4 -0.4,-9 -1.3,-10.8 -0.8,-1.8 -2.2,-2.7 -4,-2.7 -1.8,0 -3.1,0.9 -4,2.7 -0.8,1.8 -1.3,5.4 -1.3,10.8 0,5.3 0.4,8.8 1.2,10.7 0.8,1.9 2.2,2.8 4,2.8 1.8,0 3.1,-0.9 4,-2.7 1,-1.8 1.4,-5.4 1.4,-10.8 z"
       id="path90"
       inkscape:connector-curvature="0"
       style="fill:#282828" /><path
       d="m 858.2,114.5 h 8.8 v 22.9 c 0,3.2 0.1,5.5 0.4,6.7 0.3,1.3 0.9,2.2 1.8,2.9 0.9,0.7 2.1,1 3.4,1 1.5,0 2.6,-0.4 3.5,-1.1 0.9,-0.7 1.4,-1.7 1.6,-2.9 0.2,-1.2 0.3,-3.4 0.3,-6.7 v -22.9 h 7.4 V 137 c 0,4.5 -0.3,7.8 -0.8,10 -0.5,2.2 -1.8,4.1 -4,5.7 -2.1,1.6 -5,2.4 -8.7,2.4 -3.5,0 -6.2,-0.6 -8.2,-1.7 -2,-1.1 -3.4,-2.8 -4.2,-4.9 -0.8,-2.1 -1.3,-5.8 -1.3,-11.1 z"
       id="path92"
       inkscape:connector-curvature="0"
       style="fill:#282828" /><path
       d="M 896.2,114.5 H 905 V 141 c 0,3.4 -0.2,6 -0.7,7.9 -0.5,1.9 -1.5,3.4 -3.1,4.5 -1.6,1.1 -3.9,1.7 -6.9,1.7 -1.3,0 -3.1,-0.2 -5.4,-0.6 v -7.4 c 1.4,0.3 2.6,0.4 3.5,0.4 1.5,0 2.6,-0.4 3.1,-1.2 0.5,-0.8 0.7,-2.6 0.7,-5.3 z"
       id="path94"
       inkscape:connector-curvature="0"
       style="fill:#282828" /><path
       d="m 912.4,114.5 h 9.5 c 4.1,0 7.4,0.6 10,1.7 2.6,1.1 4.6,3.1 6.2,6.1 1.5,3 2.3,7 2.3,12 0,3.6 -0.5,6.8 -1.4,9.6 -0.9,2.8 -2.2,5 -3.7,6.6 -1.5,1.6 -3.2,2.7 -5.2,3.2 -1.9,0.5 -4.3,0.8 -7.2,0.8 h -10.5 z m 8.8,6.9 v 26.3 h 1.5 c 2,0 3.6,-0.4 4.7,-1.2 1.1,-0.8 2,-2.1 2.7,-4.1 0.7,-1.9 1,-4.8 1,-8.4 0,-3.4 -0.4,-6 -1.1,-7.9 -0.7,-1.9 -1.7,-3.1 -2.8,-3.7 -1.1,-0.7 -2.6,-1 -4.5,-1 z"
       id="path96"
       inkscape:connector-curvature="0"
       style="fill:#282828" /><path
       d="m 952.9,114.5 h 8.8 l 11.4,40 h -9 l -2,-8.3 h -11.3 l -2,8.3 h -8.1 z m 7.6,24.9 -4,-16.4 -3.9,16.4 z"
       id="path98"
       inkscape:connector-curvature="0"
       style="fill:#282828" /></g><g
     id="g146"
     transform="matrix(1.2171207,0,0,1,-111.61067,0)"><path
       d="m 163.8,210.3 h -9 v 16.6 h -5 v -16.6 h -9.1 v -5 h 9.1 v -16.6 h 5 v 16.6 h 9 z"
       id="path102"
       inkscape:connector-curvature="0" /><path
       d="m 178.6,209.3 c 2.5,0 4.6,0.8 6.2,2.5 1.7,1.7 2.5,3.8 2.5,6.3 0,2.5 -0.8,4.6 -2.5,6.3 -1.7,1.7 -3.8,2.5 -6.2,2.5 -2.4,0 -4.5,-0.8 -6.2,-2.5 -1.7,-1.7 -2.5,-3.8 -2.5,-6.3 0,-2.5 0.8,-4.6 2.5,-6.3 1.7,-1.6 3.7,-2.5 6.2,-2.5 z m 4.7,8.8 c 0,-1.4 -0.5,-2.6 -1.4,-3.5 -0.9,-0.9 -2,-1.4 -3.4,-1.4 -1.3,0 -2.4,0.5 -3.3,1.4 -0.9,0.9 -1.4,2.1 -1.4,3.5 0,1.4 0.5,2.5 1.4,3.5 0.9,0.9 2,1.4 3.3,1.4 1.3,0 2.5,-0.5 3.4,-1.4 0.9,-1 1.4,-2.2 1.4,-3.5 z"
       id="path104"
       inkscape:connector-curvature="0" /><path
       d="m 229.7,208.1 c 0,5.2 -1.9,9.6 -5.6,13.3 -3.7,3.6 -8.2,5.5 -13.4,5.5 -5.2,0 -9.6,-1.8 -13.3,-5.5 -3.7,-3.7 -5.5,-8.1 -5.6,-13.2 0,-5.3 1.8,-9.8 5.4,-13.6 3.7,-3.8 8.1,-5.7 13.4,-5.7 5.3,0 9.8,1.9 13.5,5.7 3.7,3.8 5.7,8.2 5.6,13.5 z m -5.2,0 c 0,-3.9 -1.3,-7.3 -4,-10 -2.7,-2.8 -6,-4.1 -9.7,-4.1 -3.8,0 -7,1.4 -9.6,4.2 -2.6,2.8 -3.9,6.1 -3.9,9.9 0,3.7 1.4,6.9 4,9.6 2.6,2.7 5.8,4.1 9.6,4.1 3.8,0 7,-1.3 9.7,-4 2.5,-2.8 3.8,-6 3.9,-9.7 z m -18.6,0 c -0.1,-1.4 0.3,-2.6 1.3,-3.6 0.9,-1.1 2.1,-1.6 3.7,-1.5 1.4,0 2.5,0.6 3.5,1.6 0.9,1 1.3,2.2 1.2,3.6 -0.1,1.2 -0.6,2.3 -1.4,3.2 -0.9,0.9 -2,1.3 -3.3,1.3 -1.4,0 -2.6,-0.4 -3.5,-1.3 -0.9,-0.9 -1.5,-2.1 -1.5,-3.3 z"
       id="path106"
       inkscape:connector-curvature="0" /><path
       d="m 257.3,188.8 16.1,38.1 H 268 l -13.4,-31.6 -13.4,31.6 h -5.5 l 16.1,-38.1 z"
       id="path108"
       inkscape:connector-curvature="0" /><path
       d="m 286.6,209.3 c 2.5,0 4.6,0.8 6.2,2.5 1.7,1.7 2.5,3.8 2.5,6.3 0,2.5 -0.8,4.6 -2.5,6.3 -1.7,1.7 -3.8,2.5 -6.2,2.5 -2.4,0 -4.5,-0.8 -6.2,-2.5 -1.7,-1.7 -2.5,-3.8 -2.5,-6.3 0,-2.5 0.8,-4.6 2.5,-6.3 1.7,-1.6 3.8,-2.5 6.2,-2.5 z m 4.7,8.8 c 0,-1.4 -0.5,-2.6 -1.4,-3.5 -0.9,-0.9 -2,-1.4 -3.4,-1.4 -1.3,0 -2.4,0.5 -3.3,1.4 -0.9,0.9 -1.4,2.1 -1.4,3.5 0,1.4 0.5,2.5 1.4,3.5 0.9,0.9 2,1.4 3.3,1.4 1.3,0 2.5,-0.5 3.4,-1.4 1,-1 1.4,-2.2 1.4,-3.5 z"
       id="path110"
       inkscape:connector-curvature="0" /><path
       d="m 325.7,221.9 v -33.1 h 5 v 38.1 h -30.9 v -38.1 h 5.1 v 33.1 z"
       id="path112"
       inkscape:connector-curvature="0" /><path
       d="m 345.6,215.7 16.7,6.8 v 5.1 l -25.8,-10.4 12,-10.1 -11.5,-10 25.4,-9.7 v 5 l -15.8,6.1 9.3,8.1 z"
       id="path114"
       inkscape:connector-curvature="0" /><path
       d="m 390.4,210.3 h -9 v 16.6 h -5 v -16.6 h -9.1 v -5 h 9.1 v -16.6 h 5 v 16.6 h 9 z"
       id="path116"
       inkscape:connector-curvature="0" /><path
       d="m 424.9,226.9 h -28.2 v -38 h 28.2 v 5 h -23.1 v 27.9 h 23.1 z"
       id="path118"
       inkscape:connector-curvature="0" /><path
       d="m 440.3,210.4 c 2.5,0 4.6,0.8 6.2,2.4 1.7,1.6 2.5,3.6 2.5,5.9 0,2.3 -0.8,4.2 -2.5,5.8 -1.7,1.6 -3.8,2.4 -6.2,2.4 -2.4,0 -4.5,-0.8 -6.2,-2.4 -1.7,-1.6 -2.5,-3.5 -2.5,-5.8 0,-2.3 0.8,-4.3 2.5,-5.9 1.7,-1.6 3.8,-2.4 6.2,-2.4 z m 0.2,-21.5 c 2.5,0 4.6,0.8 6.2,2.4 1.7,1.6 2.5,3.5 2.5,5.9 0,2.3 -0.8,4.2 -2.5,5.8 -1.7,1.6 -3.8,2.4 -6.2,2.4 -2.4,0 -4.5,-0.8 -6.2,-2.4 -1.7,-1.6 -2.5,-3.5 -2.5,-5.8 0,-2.3 0.8,-4.3 2.5,-5.9 1.7,-1.6 3.8,-2.4 6.2,-2.4 z m 4.8,29.7 c 0,-1.4 -0.5,-2.6 -1.4,-3.5 -1,-0.9 -2.1,-1.4 -3.5,-1.4 -1.3,0 -2.5,0.5 -3.5,1.4 -1,0.9 -1.5,2.1 -1.5,3.5 0,1.4 0.5,2.5 1.5,3.5 1,1 2.1,1.4 3.5,1.4 1.4,0 2.6,-0.5 3.5,-1.4 0.9,-1 1.4,-2.1 1.4,-3.5 z m 0.2,-21.5 c 0,-1.4 -0.5,-2.6 -1.4,-3.5 -1,-0.9 -2.1,-1.4 -3.5,-1.4 -1.3,0 -2.5,0.5 -3.5,1.4 -1,0.9 -1.4,2.1 -1.4,3.5 0,1.4 0.5,2.5 1.4,3.5 1,0.9 2.1,1.4 3.5,1.4 1.4,0 2.6,-0.5 3.5,-1.4 0.9,-1 1.4,-2.2 1.4,-3.5 z"
       id="path120"
       inkscape:connector-curvature="0" /><path
       d="m 481.1,226.9 h -5.5 l -8,-16.4 -8,16.4 h -5.4 l 18.5,-38.1 h 5.4 l -7.8,16 z"
       id="path122"
       inkscape:connector-curvature="0" /><path
       d="m 513.8,226.9 h -28.2 v -38 h 28.2 v 5 h -23.1 v 27.9 h 23.1 z"
       id="path124"
       inkscape:connector-curvature="0" /><path
       d="m 549,226.9 h -28.2 v -38 H 549 v 5 h -23.1 v 27.9 H 549 Z"
       id="path126"
       inkscape:connector-curvature="0" /><path
       d="m 556.1,208.5 v -3 h 16.7 v 3 z m 8.3,4 c 2.2,0 4,0.7 5.5,2.1 1.5,1.4 2.3,3.1 2.3,5.2 0,2 -0.8,3.7 -2.3,5.1 -1.5,1.4 -3.4,2.1 -5.5,2.1 -2.2,0 -4,-0.7 -5.5,-2.1 -1.5,-1.4 -2.2,-3.1 -2.2,-5.1 0,-2 0.7,-3.8 2.2,-5.2 1.5,-1.4 3.3,-2.1 5.5,-2.1 z m 0.1,-25.1 c 2.2,0 4,0.7 5.5,2.1 1.5,1.4 2.3,3.1 2.3,5.2 0,2 -0.8,3.7 -2.3,5.1 -1.5,1.4 -3.4,2.1 -5.5,2.1 -2.2,0 -4,-0.7 -5.5,-2.1 -1.5,-1.4 -2.2,-3.1 -2.2,-5.1 0,-2 0.7,-3.8 2.2,-5.2 1.4,-1.4 3.3,-2.1 5.5,-2.1 z m 3.7,32.2 c 0,-1.1 -0.4,-2 -1.1,-2.8 -0.7,-0.7 -1.6,-1.1 -2.7,-1.1 -1.1,0 -2,0.4 -2.7,1.1 -0.7,0.7 -1.1,1.7 -1.1,2.8 0,1.1 0.4,2 1.1,2.8 0.7,0.8 1.7,1.1 2.7,1.1 1.1,0 2,-0.4 2.7,-1.1 0.7,-0.7 1.1,-1.8 1.1,-2.8 z m 0.1,-25.1 c 0,-1.1 -0.4,-2 -1.1,-2.8 -0.7,-0.7 -1.6,-1.1 -2.7,-1.1 -1.1,0 -2,0.4 -2.7,1.1 -0.7,0.7 -1.1,1.7 -1.1,2.8 0,1.1 0.4,2 1.1,2.8 0.7,0.8 1.7,1.1 2.7,1.1 1.1,0 2,-0.4 2.7,-1.1 0.7,-0.7 1.1,-1.7 1.1,-2.8 z"
       id="path128"
       inkscape:connector-curvature="0" /><path
       d="m 601.1,188.8 16.1,38.1 h -5.4 L 598.4,195.3 585,226.9 h -5.5 l 16.1,-38.1 z"
       id="path130"
       inkscape:connector-curvature="0" /><path
       d="m 630.4,209.3 c 2.5,0 4.6,0.8 6.2,2.5 1.6,1.7 2.5,3.8 2.5,6.3 0,2.5 -0.8,4.6 -2.5,6.3 -1.7,1.7 -3.8,2.5 -6.2,2.5 -2.4,0 -4.5,-0.8 -6.2,-2.5 -1.7,-1.7 -2.5,-3.8 -2.5,-6.3 0,-2.5 0.8,-4.6 2.5,-6.3 1.7,-1.7 3.8,-2.5 6.2,-2.5 z m 4.7,8.8 c 0,-1.4 -0.5,-2.6 -1.4,-3.5 -0.9,-0.9 -2,-1.4 -3.4,-1.4 -1.3,0 -2.4,0.5 -3.3,1.4 -0.9,0.9 -1.4,2.1 -1.4,3.5 0,1.4 0.5,2.5 1.4,3.5 0.9,1 2,1.4 3.3,1.4 1.3,0 2.5,-0.5 3.4,-1.4 0.9,-0.9 1.4,-2.2 1.4,-3.5 z"
       id="path132"
       inkscape:connector-curvature="0" /><path
       d="m 671.8,226.9 h -28.2 v -38 h 28.2 v 5 h -23.1 v 27.9 h 23.1 z"
       id="path134"
       inkscape:connector-curvature="0" /><path
       d="m 698.4,210.4 c 4.1,-0.1 7.6,1.2 10.4,3.7 2.8,2.5 4.2,6.8 4.1,12.8 h -5 c 0.1,-4.4 -1,-7.7 -3.5,-9.8 -1.3,-1 -3.3,-1.5 -5.9,-1.6 v 11.4 h -5.1 v -11.5 c -2.7,0.1 -4.7,0.6 -5.9,1.6 -2.4,2.2 -3.6,5.5 -3.5,9.9 h -5 c -0.1,-6 1.2,-10.3 4,-12.9 2.8,-2.5 6.3,-3.8 10.5,-3.7 v -4.9 c -4.2,0.1 -7.6,-1.2 -10.4,-3.7 -2.8,-2.5 -4.2,-6.8 -4.1,-12.9 h 5.1 c -0.2,4.4 1,7.7 3.5,9.9 1.3,1 3.2,1.5 5.9,1.6 v -11.5 h 5.1 v 11.4 c 2.7,-0.1 4.7,-0.6 5.9,-1.6 2.5,-2.1 3.6,-5.4 3.5,-9.9 h 5 c 0.1,6 -1.2,10.3 -4,12.9 -2.8,2.5 -6.3,3.8 -10.4,3.7 v 5.1 z"
       id="path136"
       inkscape:connector-curvature="0" /><path
       d="m 744,221.9 v -33.1 h 5 v 38.1 h -30.9 v -38.1 h 5.1 v 33.1 z"
       id="path138"
       inkscape:connector-curvature="0" /><path
       d="m 763.6,209.3 c 2.5,0 4.6,0.8 6.2,2.5 1.6,1.7 2.5,3.8 2.5,6.3 0,2.5 -0.8,4.6 -2.5,6.3 -1.7,1.7 -3.8,2.5 -6.2,2.5 -2.4,0 -4.5,-0.8 -6.2,-2.5 -1.7,-1.7 -2.5,-3.8 -2.5,-6.3 0,-2.5 0.8,-4.6 2.5,-6.3 1.7,-1.7 3.8,-2.5 6.2,-2.5 z m 4.8,8.8 c 0,-1.4 -0.5,-2.6 -1.4,-3.5 -0.9,-0.9 -2,-1.4 -3.4,-1.4 -1.3,0 -2.4,0.5 -3.3,1.4 -0.9,0.9 -1.4,2.1 -1.4,3.5 0,1.4 0.5,2.5 1.4,3.5 0.9,1 2,1.4 3.3,1.4 1.3,0 2.5,-0.5 3.4,-1.4 0.9,-0.9 1.4,-2.2 1.4,-3.5 z"
       id="path140"
       inkscape:connector-curvature="0" /><path
       d="m 814.4,208.1 c -0.1,5.2 -2,9.6 -5.6,13.3 -3.6,3.6 -8.1,5.5 -13.3,5.5 -5.1,0 -9.5,-1.8 -13.1,-5.5 -3.6,-3.7 -5.5,-8.1 -5.5,-13.2 -0.1,-5.4 1.7,-9.9 5.4,-13.6 3.6,-3.7 8.1,-5.6 13.3,-5.6 5.3,0 9.7,1.9 13.4,5.6 3.6,3.7 5.5,8.2 5.4,13.5 z m -5.2,-0.1 c 0,-3.9 -1.3,-7.3 -4,-10.1 -2.7,-2.8 -5.8,-4.2 -9.5,-4.1 -3.8,0 -7.1,1.4 -9.7,4.2 -2.6,2.8 -3.9,6.1 -3.9,10 0.1,3.7 1.5,6.9 4,9.6 2.6,2.7 5.7,4.1 9.5,4.1 3.6,0 6.7,-1.4 9.4,-4.1 2.7,-2.7 4.1,-5.9 4.2,-9.6 z"
       id="path142"
       inkscape:connector-curvature="0" /><path
       d="m 829.2,210.4 c 2.5,0 4.6,0.8 6.2,2.4 1.7,1.6 2.5,3.6 2.5,5.9 0,2.3 -0.8,4.2 -2.5,5.8 -1.7,1.6 -3.8,2.4 -6.2,2.4 -2.4,0 -4.5,-0.8 -6.2,-2.4 -1.7,-1.6 -2.5,-3.5 -2.5,-5.8 0,-2.3 0.8,-4.3 2.5,-5.9 1.7,-1.6 3.8,-2.4 6.2,-2.4 z m 0.2,-21.5 c 2.5,0 4.6,0.8 6.2,2.4 1.7,1.6 2.5,3.5 2.5,5.9 0,2.3 -0.8,4.2 -2.5,5.8 -1.7,1.6 -3.8,2.4 -6.2,2.4 -2.4,0 -4.5,-0.8 -6.2,-2.4 -1.7,-1.6 -2.5,-3.5 -2.5,-5.8 0,-2.3 0.8,-4.3 2.5,-5.9 1.7,-1.6 3.8,-2.4 6.2,-2.4 z m 4.8,29.7 c 0,-1.4 -0.5,-2.6 -1.4,-3.5 -1,-0.9 -2.1,-1.4 -3.5,-1.4 -1.3,0 -2.5,0.5 -3.5,1.4 -1,0.9 -1.5,2.1 -1.5,3.5 0,1.4 0.5,2.5 1.5,3.5 1,1 2.1,1.4 3.5,1.4 1.4,0 2.6,-0.5 3.5,-1.4 0.9,-0.9 1.4,-2.1 1.4,-3.5 z m 0.2,-21.5 c 0,-1.4 -0.5,-2.6 -1.4,-3.5 -0.9,-0.9 -2.1,-1.4 -3.5,-1.4 -1.3,0 -2.5,0.5 -3.5,1.4 -1,0.9 -1.4,2.1 -1.4,3.5 0,1.4 0.5,2.5 1.4,3.5 0.9,1 2.1,1.4 3.5,1.4 1.4,0 2.6,-0.5 3.5,-1.4 0.9,-0.9 1.4,-2.2 1.4,-3.5 z"
       id="path144"
       inkscape:connector-curvature="0" /></g></svg>