<?xml version="1.0" encoding="utf-8"?>
<!-- Generator: Adobe Illustrator 22.0.1, SVG Export Plug-In . SVG Version: 6.00 Build 0)  -->
<svg version="1.1" id="Layer_1" xmlns="http://www.w3.org/2000/svg" xmlns:xlink="http://www.w3.org/1999/xlink" x="0px" y="0px"
	 viewBox="0 0 980.1 245.7" style="enable-background:new 0 0 980.1 245.7;" xml:space="preserve">
<style type="text/css">
	.st0{display:none;}
	.st1{display:inline;}
	.st2{fill:none;}
	.st3{display:none;enable-background:new    ;}
	.st4{stroke:#000000;stroke-width:0.5;stroke-miterlimit:10;}
	.st5{stroke:#000000;stroke-width:2;stroke-miterlimit:10;}
</style>
<g class="st0">
	<path class="st1" d="M163.8,210.3h-9v16.6h-5v-16.6h-9.1v-5h9.1v-16.6h5v16.6h9V210.3z"/>
	<path class="st1" d="M178.6,209.3c2.5,0,4.6,0.8,6.2,2.5c1.7,1.7,2.5,3.8,2.5,6.3s-0.8,4.6-2.5,6.3s-3.8,2.5-6.2,2.5
		s-4.5-0.8-6.2-2.5s-2.5-3.8-2.5-6.3s0.8-4.6,2.5-6.3C174.1,210.2,176.1,209.3,178.6,209.3z M183.3,218.1c0-1.4-0.5-2.6-1.4-3.5
		s-2-1.4-3.4-1.4c-1.3,0-2.4,0.5-3.3,1.4c-0.9,0.9-1.4,2.1-1.4,3.5s0.5,2.5,1.4,3.5c0.9,0.9,2,1.4,3.3,1.4s2.5-0.5,3.4-1.4
		C182.8,220.6,183.3,219.4,183.3,218.1z"/>
	<path class="st1" d="M229.7,208.1c0,5.2-1.9,9.6-5.6,13.3c-3.7,3.6-8.2,5.5-13.4,5.5s-9.6-1.8-13.3-5.5s-5.5-8.1-5.6-13.2
		c0-5.3,1.8-9.8,5.4-13.6c3.7-3.8,8.1-5.7,13.4-5.7c5.3,0,9.8,1.9,13.5,5.7S229.8,202.8,229.7,208.1z M224.5,208.1
		c0-3.9-1.3-7.3-4-10c-2.7-2.8-6-4.1-9.7-4.1c-3.8,0-7,1.4-9.6,4.2s-3.9,6.1-3.9,9.9c0,3.7,1.4,6.9,4,9.6c2.6,2.7,5.8,4.1,9.6,4.1
		s7-1.3,9.7-4C223.1,215,224.4,211.8,224.5,208.1z M205.9,208.1c-0.1-1.4,0.3-2.6,1.3-3.6c0.9-1.1,2.1-1.6,3.7-1.5
		c1.4,0,2.5,0.6,3.5,1.6c0.9,1,1.3,2.2,1.2,3.6c-0.1,1.2-0.6,2.3-1.4,3.2c-0.9,0.9-2,1.3-3.3,1.3c-1.4,0-2.6-0.4-3.5-1.3
		S205.9,209.3,205.9,208.1z"/>
	<path class="st1" d="M257.3,188.8l16.1,38.1H268l-13.4-31.6l-13.4,31.6h-5.5l16.1-38.1L257.3,188.8L257.3,188.8z"/>
	<path class="st1" d="M286.6,209.3c2.5,0,4.6,0.8,6.2,2.5c1.7,1.7,2.5,3.8,2.5,6.3s-0.8,4.6-2.5,6.3s-3.8,2.5-6.2,2.5
		c-2.4,0-4.5-0.8-6.2-2.5s-2.5-3.8-2.5-6.3s0.8-4.6,2.5-6.3C282.1,210.2,284.2,209.3,286.6,209.3z M291.3,218.1
		c0-1.4-0.5-2.6-1.4-3.5s-2-1.4-3.4-1.4c-1.3,0-2.4,0.5-3.3,1.4s-1.4,2.1-1.4,3.5s0.5,2.5,1.4,3.5c0.9,0.9,2,1.4,3.3,1.4
		s2.5-0.5,3.4-1.4C290.9,220.6,291.3,219.4,291.3,218.1z"/>
	<path class="st1" d="M325.7,221.9v-33.1h5v38.1h-30.9v-38.1h5.1v33.1H325.7z"/>
	<path class="st1" d="M345.6,215.7l16.7,6.8v5.1l-25.8-10.4l12-10.1l-11.5-10l25.4-9.7v5l-15.8,6.1l9.3,8.1L345.6,215.7z"/>
	<path class="st1" d="M390.4,210.3h-9v16.6h-5v-16.6h-9.1v-5h9.1v-16.6h5v16.6h9V210.3z"/>
	<path class="st1" d="M424.9,226.9h-28.2v-38h28.2v5h-23.1v27.9h23.1V226.9z"/>
	<path class="st1" d="M440.3,210.4c2.5,0,4.6,0.8,6.2,2.4c1.7,1.6,2.5,3.6,2.5,5.9c0,2.3-0.8,4.2-2.5,5.8s-3.8,2.4-6.2,2.4
		c-2.4,0-4.5-0.8-6.2-2.4c-1.7-1.6-2.5-3.5-2.5-5.8s0.8-4.3,2.5-5.9S437.9,210.4,440.3,210.4z M440.5,188.9c2.5,0,4.6,0.8,6.2,2.4
		c1.7,1.6,2.5,3.5,2.5,5.9c0,2.3-0.8,4.2-2.5,5.8s-3.8,2.4-6.2,2.4c-2.4,0-4.5-0.8-6.2-2.4c-1.7-1.6-2.5-3.5-2.5-5.8
		s0.8-4.3,2.5-5.9S438.1,188.9,440.5,188.9z M445.3,218.6c0-1.4-0.5-2.6-1.4-3.5c-1-0.9-2.1-1.4-3.5-1.4c-1.3,0-2.5,0.5-3.5,1.4
		s-1.5,2.1-1.5,3.5s0.5,2.5,1.5,3.5s2.1,1.4,3.5,1.4s2.6-0.5,3.5-1.4C444.8,221.1,445.3,220,445.3,218.6z M445.5,197.1
		c0-1.4-0.5-2.6-1.4-3.5c-1-0.9-2.1-1.4-3.5-1.4c-1.3,0-2.5,0.5-3.5,1.4s-1.4,2.1-1.4,3.5s0.5,2.5,1.4,3.5c1,0.9,2.1,1.4,3.5,1.4
		s2.6-0.5,3.5-1.4C445,199.6,445.5,198.4,445.5,197.1z"/>
	<path class="st1" d="M481.1,226.9h-5.5l-8-16.4l-8,16.4h-5.4l18.5-38.1h5.4l-7.8,16L481.1,226.9z"/>
	<path class="st1" d="M513.8,226.9h-28.2v-38h28.2v5h-23.1v27.9h23.1V226.9z"/>
	<path class="st1" d="M549,226.9h-28.2v-38H549v5h-23.1v27.9H549V226.9z"/>
	<path class="st1" d="M556.1,208.5v-3h16.7v3H556.1z M564.4,212.5c2.2,0,4,0.7,5.5,2.1c1.5,1.4,2.3,3.1,2.3,5.2c0,2-0.8,3.7-2.3,5.1
		c-1.5,1.4-3.4,2.1-5.5,2.1c-2.2,0-4-0.7-5.5-2.1c-1.5-1.4-2.2-3.1-2.2-5.1s0.7-3.8,2.2-5.2C560.4,213.2,562.2,212.5,564.4,212.5z
		 M564.5,187.4c2.2,0,4,0.7,5.5,2.1s2.3,3.1,2.3,5.2c0,2-0.8,3.7-2.3,5.1c-1.5,1.4-3.4,2.1-5.5,2.1c-2.2,0-4-0.7-5.5-2.1
		c-1.5-1.4-2.2-3.1-2.2-5.1s0.7-3.8,2.2-5.2C560.4,188.1,562.3,187.4,564.5,187.4z M568.2,219.6c0-1.1-0.4-2-1.1-2.8
		c-0.7-0.7-1.6-1.1-2.7-1.1c-1.1,0-2,0.4-2.7,1.1c-0.7,0.7-1.1,1.7-1.1,2.8s0.4,2,1.1,2.8c0.7,0.8,1.7,1.1,2.7,1.1
		c1.1,0,2-0.4,2.7-1.1S568.2,220.6,568.2,219.6z M568.3,194.5c0-1.1-0.4-2-1.1-2.8c-0.7-0.7-1.6-1.1-2.7-1.1c-1.1,0-2,0.4-2.7,1.1
		c-0.7,0.7-1.1,1.7-1.1,2.8s0.4,2,1.1,2.8c0.7,0.8,1.7,1.1,2.7,1.1c1.1,0,2-0.4,2.7-1.1S568.3,195.6,568.3,194.5z"/>
	<path class="st1" d="M601.1,188.8l16.1,38.1h-5.4l-13.4-31.6L585,226.9h-5.5l16.1-38.1L601.1,188.8L601.1,188.8z"/>
	<path class="st1" d="M630.4,209.3c2.5,0,4.6,0.8,6.2,2.5s2.5,3.8,2.5,6.3s-0.8,4.6-2.5,6.3s-3.8,2.5-6.2,2.5s-4.5-0.8-6.2-2.5
		s-2.5-3.8-2.5-6.3s0.8-4.6,2.5-6.3S628,209.3,630.4,209.3z M635.1,218.1c0-1.4-0.5-2.6-1.4-3.5s-2-1.4-3.4-1.4
		c-1.3,0-2.4,0.5-3.3,1.4c-0.9,0.9-1.4,2.1-1.4,3.5s0.5,2.5,1.4,3.5s2,1.4,3.3,1.4s2.5-0.5,3.4-1.4S635.1,219.4,635.1,218.1z"/>
	<path class="st1" d="M671.8,226.9h-28.2v-38h28.2v5h-23.1v27.9h23.1V226.9z"/>
	<path class="st1" d="M698.4,210.4c4.1-0.1,7.6,1.2,10.4,3.7c2.8,2.5,4.2,6.8,4.1,12.8h-5c0.1-4.4-1-7.7-3.5-9.8
		c-1.3-1-3.3-1.5-5.9-1.6v11.4h-5.1v-11.5c-2.7,0.1-4.7,0.6-5.9,1.6c-2.4,2.2-3.6,5.5-3.5,9.9h-5c-0.1-6,1.2-10.3,4-12.9
		c2.8-2.5,6.3-3.8,10.5-3.7v-4.9c-4.2,0.1-7.6-1.2-10.4-3.7c-2.8-2.5-4.2-6.8-4.1-12.9h5.1c-0.2,4.4,1,7.7,3.5,9.9
		c1.3,1,3.2,1.5,5.9,1.6v-11.5h5.1v11.4c2.7-0.1,4.7-0.6,5.9-1.6c2.5-2.1,3.6-5.4,3.5-9.9h5c0.1,6-1.2,10.3-4,12.9
		c-2.8,2.5-6.3,3.8-10.4,3.7v5.1H698.4z"/>
	<path class="st1" d="M744,221.9v-33.1h5v38.1h-30.9v-38.1h5.1v33.1H744z"/>
	<path class="st1" d="M763.6,209.3c2.5,0,4.6,0.8,6.2,2.5s2.5,3.8,2.5,6.3s-0.8,4.6-2.5,6.3s-3.8,2.5-6.2,2.5s-4.5-0.8-6.2-2.5
		s-2.5-3.8-2.5-6.3s0.8-4.6,2.5-6.3S761.2,209.3,763.6,209.3z M768.4,218.1c0-1.4-0.5-2.6-1.4-3.5s-2-1.4-3.4-1.4
		c-1.3,0-2.4,0.5-3.3,1.4c-0.9,0.9-1.4,2.1-1.4,3.5s0.5,2.5,1.4,3.5s2,1.4,3.3,1.4s2.5-0.5,3.4-1.4S768.4,219.4,768.4,218.1z"/>
	<path class="st1" d="M814.4,208.1c-0.1,5.2-2,9.6-5.6,13.3c-3.6,3.6-8.1,5.5-13.3,5.5c-5.1,0-9.5-1.8-13.1-5.5s-5.5-8.1-5.5-13.2
		c-0.1-5.4,1.7-9.9,5.4-13.6c3.6-3.7,8.1-5.6,13.3-5.6c5.3,0,9.7,1.9,13.4,5.6C812.6,198.3,814.5,202.8,814.4,208.1z M809.2,208
		c0-3.9-1.3-7.3-4-10.1s-5.8-4.2-9.5-4.1c-3.8,0-7.1,1.4-9.7,4.2c-2.6,2.8-3.9,6.1-3.9,10c0.1,3.7,1.5,6.9,4,9.6
		c2.6,2.7,5.7,4.1,9.5,4.1c3.6,0,6.7-1.4,9.4-4.1S809.1,211.7,809.2,208z"/>
	<path class="st1" d="M829.2,210.4c2.5,0,4.6,0.8,6.2,2.4c1.7,1.6,2.5,3.6,2.5,5.9c0,2.3-0.8,4.2-2.5,5.8s-3.8,2.4-6.2,2.4
		s-4.5-0.8-6.2-2.4s-2.5-3.5-2.5-5.8s0.8-4.3,2.5-5.9S826.8,210.4,829.2,210.4z M829.4,188.9c2.5,0,4.6,0.8,6.2,2.4
		c1.7,1.6,2.5,3.5,2.5,5.9c0,2.3-0.8,4.2-2.5,5.8s-3.8,2.4-6.2,2.4s-4.5-0.8-6.2-2.4s-2.5-3.5-2.5-5.8s0.8-4.3,2.5-5.9
		S827,188.9,829.4,188.9z M834.2,218.6c0-1.4-0.5-2.6-1.4-3.5c-1-0.9-2.1-1.4-3.5-1.4c-1.3,0-2.5,0.5-3.5,1.4s-1.5,2.1-1.5,3.5
		s0.5,2.5,1.5,3.5s2.1,1.4,3.5,1.4s2.6-0.5,3.5-1.4S834.2,220,834.2,218.6z M834.4,197.1c0-1.4-0.5-2.6-1.4-3.5s-2.1-1.4-3.5-1.4
		c-1.3,0-2.5,0.5-3.5,1.4s-1.4,2.1-1.4,3.5s0.5,2.5,1.4,3.5s2.1,1.4,3.5,1.4s2.6-0.5,3.5-1.4S834.4,198.4,834.4,197.1z"/>
</g>
<polyline class="st2" points="974.6,27 974.6,85 -0.5,85 -0.5,27 "/>
<g class="st3">
	<path class="st1" d="M1298,72.1h-2.9c-0.5,0.6-1,1-1.5,1.3s-1.1,0.3-1.7,0.3c-0.9,0-1.7-0.2-2.3-0.5c-0.6-0.3-1.1-0.7-1.5-1.2
		h-48.2c-0.1,0-0.7,0.6-1.8,1.8s-1.9,1.8-2.6,1.8c-1,0-1.8-0.3-2.3-0.9c-0.2-0.8-0.4-1.5-0.6-2.2c-0.5-0.8-0.7-1.8-0.7-3.1
		c0-0.9,0.2-1.6,0.5-2.2c0.3-0.6,0.9-0.9,1.7-0.9h52.3h3.5c0-1.8-0.4-3.1-1.1-4s-1.6-1.3-2.4-1.3h-39.7c-2.9,0-5.3-0.5-7.4-1.6
		s-3.1-2.8-3.1-5.2c0-3,1.9-6.1,5.7-9.4c3.8-3.3,7.8-5,11.9-5c2,0,3.5,0.3,4.4,1s1.4,1.9,1.4,3.8c0,1.1-0.2,1.9-0.5,2.3
		c-0.4,0.4-1.2,0.6-2.4,0.6c-1.3,0-2.3-0.4-3-1.1s-1.4-1.1-2.1-1.1c-0.9,0-2.7,1.1-5.5,3.2c-2.8,2.2-4.1,4.1-4.1,5.7
		c0,0.8,0.7,1.4,2.2,1.6s4.4,0.3,8.8,0.3h10.3h24.3c2.8,0,5,1.1,6.4,3.3s2.2,4.5,2.2,6.8h2V72.1z"/>
	<path class="st1" d="M1296.5,66.3h6.2c0.6-0.2,1.3-0.4,1.9-0.7s1-0.6,1-1.1c-0.4-3.7-0.9-7.2-1.3-10.6c-0.4-3.4-0.7-5.8-1-7.3
		s-0.9-2.9-2.1-4.4s-1.7-3.1-1.7-4.9c0-1.4,0.5-2.7,1.6-3.7s2.2-1.5,3.3-1.5c0.8,0,1.5,0.5,2.1,1.5c0.7,1,1,2.1,1,3.4
		c0,0.3,0,0.9-0.1,1.8s-0.1,1.4-0.1,1.6c0,2,0.2,4.2,0.7,6.7s0.9,4.6,1.1,6.2c0.2,1.7,0.4,4.2,0.6,7.5s0.3,5.1,0.5,5.4
		c0.1,0,0.4,0.1,0.9,0.1s0.9,0,1.4,0c0.6,0,1,0,1.2,0s0.4,0,0.7,0v5.8h-5.3c-0.4,1.2-1.1,2.6-2.2,4c-1.1,1.5-2.3,2.4-3.6,2.9
		c0-0.8,0.2-1.8,0.7-3.1c0.5-1.3,0.8-2.6,0.9-3.8h-8.4V66.3z"/>
	<path class="st1" d="M1312.6,66.3h4c1.6,0,2.5,0,2.7,0s1.1,0.3,2.8,0.7c0.1-0.2,0.1-0.3,0.2-0.5s0.1-0.4,0.1-0.7
		c0-0.4-0.1-0.8-0.2-1s-0.3-0.4-0.4-0.6s-0.6-0.3-1.6-0.3c-0.8,0-1.5-0.3-2.1-1s-0.8-1.4-0.8-2.2c0-0.9,0.4-1.7,1.1-2.6
		s1.8-1.3,3.1-1.3c1,0,2.1,0.9,3.3,2.6s1.8,4,1.8,6.6c0,1.9-0.3,3.5-1,5s-1.5,2.1-2.5,2.1c-0.5-0.2-1.2-0.4-2.1-0.7
		s-2.6-0.4-5.2-0.4h-3.3V66.3z M1314.9,81.2c0-0.7,0.3-1.3,0.9-2s1.4-0.9,2.4-0.9c1,0,1.8,0.2,2.2,0.7s0.7,1.2,0.7,2.2
		c0,0.8-0.3,1.6-0.9,2.3c-0.6,0.7-1.4,1-2.5,1c-0.6,0-1.2-0.4-1.9-1.1S1314.9,82,1314.9,81.2z M1322.2,80.5c0-0.7,0.3-1.3,0.9-1.9
		s1.4-0.9,2.4-0.9c1.1,0,1.9,0.3,2.3,0.8c0.4,0.5,0.6,1.2,0.6,2.1c0,1.2-0.4,2-1.2,2.6s-1.7,0.8-2.6,0.8c-0.6-0.2-1.1-0.5-1.6-0.9
		C1322.5,82.5,1322.2,81.7,1322.2,80.5z"/>
	<path class="st1" d="M1329.9,42.8c0-0.7,0.3-1.3,0.9-2s1.4-0.9,2.4-0.9c1,0,1.8,0.2,2.2,0.7s0.7,1.2,0.7,2.2c0,0.8-0.3,1.6-0.9,2.3
		c-0.6,0.7-1.4,1-2.5,1c-0.6,0-1.2-0.4-1.9-1.1S1329.9,43.7,1329.9,42.8z M1334.9,65.1c0-3.1,1.3-5.7,3.9-7.9s5.6-3.2,9.1-3.2
		c0.2,0,0.5,0,0.9,0.1c0.3,0,0.6,0.1,0.7,0.1c0-1.7-0.6-3.2-1.8-4.7c-1.2-1.4-1.8-2.5-1.8-3c0-1.2,0.4-2.3,1.1-3.1s1.7-1.2,2.9-1.2
		c1.5,0,2.6,0.3,3.2,1s0.9,1.5,0.9,2.5c0,0.5-0.1,1-0.2,1.4c-0.1,0.4-0.2,0.8-0.3,1c0.6,1.7,1.1,3.7,1.6,5.9
		c0.5,2.2,0.8,4.7,0.8,7.3c0,3.2-0.6,6.2-1.7,9.1c-1.2,2.9-3,5.1-5.6,6.7c0-0.2-0.1-0.5-0.1-0.9c0-0.6,0.2-1.5,0.7-2.7
		s0.7-2.1,0.8-2.8c-1.2,0.5-2.4,1-3.6,1.5s-2.4,0.7-3.7,0.7c-2.7,0-4.7-0.7-5.9-2.1C1335.5,69.3,1334.9,67.5,1334.9,65.1z
		 M1338.9,41.9c0-0.7,0.3-1.3,0.9-1.9s1.4-0.9,2.4-0.9c1.1,0,1.9,0.3,2.3,0.8c0.4,0.5,0.6,1.2,0.6,2.1c0,1.2-0.4,2-1.2,2.5
		s-1.7,0.8-2.6,0.8c-0.6-0.2-1.1-0.5-1.6-0.9C1339.2,43.9,1338.9,43.1,1338.9,41.9z M1341.1,65.7c0.2,0.8,0.6,1.3,1.2,1.7
		c0.7,0.4,1.4,0.6,2.3,0.6c1,0,2-0.2,3.1-0.7c1-0.5,1.8-1,2.3-1.7c0.5-0.6,0.8-1.3,0.9-1.9s0.2-1.4,0.2-2.2
		c-0.1-1.4-0.4-2.3-0.8-2.7s-0.9-0.5-1.4-0.5c-1,0-2.2,0.4-3.6,1.1c-1.4,0.7-2.4,1.5-2.9,2.4c-0.5,0.9-0.9,1.6-1.1,2.2
		S1341,65.1,1341.1,65.7z"/>
	<path class="st1" d="M1397.5,69.9c1.2-0.9,2.1-2.5,2.9-4.7s1.3-4.6,1.7-7c0.4-2.4,0.5-4.6,0.5-6.5c0-3.2-0.5-6.1-1.4-8.6
		c-0.3,0-0.9-0.2-1.6-0.6s-1.2-1.2-1.2-2.5c0-0.9,0.2-1.7,0.7-2.6s1-1.5,1.6-1.9c0.6-0.4,1.2-0.6,1.7-0.6c1.2,0,2.2,0.8,2.9,2.4
		s1.1,3.6,1.1,5.9s-0.1,5.5-0.4,9.4s-0.7,7.5-1.3,10.5c-0.2,1.4,0.2,2.3,1.3,2.7s2.1,0.6,3.3,0.7v5.6h-5.4c-0.8,0-1.5,0.1-1.9,0.3
		c-0.4,0.3-1,0.6-1.6,1s-1.7,0.8-3.1,1.3c-1.4,0.5-2.7,1-4,1.4c0,0.5-0.4,1.5-1.2,2.9s-1.6,2.4-2.5,3.1s-1.4,1-1.7,1.1
		s-0.5,0-0.5-0.2c0-0.3,0.4-1.1,1.2-2.4s1.2-2.5,1.3-3.4c-2.2-0.2-4.4-0.7-6.5-1.4s-3.6-1.8-4.4-3.1s-1.4-2.8-1.9-4.4
		c-0.5-1.6-0.8-3.1-0.8-4.6c0-0.5,0-0.8,0.1-1.1c0.2,0.5,0.5,0.9,0.7,1.4c0.1,0.4,0.3,1.1,0.6,1.9c1.4,2,2.9,3.5,4.5,4.6
		s3.5,1.7,5.9,1.7c0.6,0,1.3-0.1,1.9-0.2c0-1.2-0.1-2.4-0.4-3.8s-0.9-3.9-1.9-7.5l-2.9-11c-0.4-1.2-1.1-2-2.1-2.5s-1.5-0.9-1.6-1.3
		s-0.2-0.9-0.2-1.5c0-1.5,0.5-2.9,1.4-4.1s2-2,3.1-2.2c1.1-0.2,1.9,0.1,2.4,1s0.8,1.6,0.8,2.2c0,0.2-0.1,0.7-0.2,1.6
		s-0.2,1.7-0.2,2.5c0,0.4,0,0.8,0,1s0.1,1.1,0.4,2.5s0.8,3.6,1.6,6.6s1.6,5.9,2.3,8.8s1.3,5.1,1.6,6.8c0.5-0.1,1.1-0.2,1.7-0.3
		S1397,70.4,1397.5,69.9z"/>
	<path class="st1" d="M1421.7,70.7c-1-0.9-1.6-1.4-1.8-1.4c-0.3,0-0.9,0.5-1.8,1.4s-1.6,1.4-1.8,1.4h-9.2v-5.8h5.9
		c0.8-0.1,1.4-0.2,1.7-0.5c0.4-0.2,0.8-0.5,1.4-0.8c-1.2-0.1-2.4-0.3-3.6-0.4c-1.8-0.4-2.6-1.1-2.6-2.3c0-1.3,0.5-2.2,1.5-2.9
		s2.3-1.3,3.8-2.1c0.7-0.5,1.5-1.3,2.5-2.6s1.9-1.9,2.7-1.9c1,0,2,0.6,3,1.9c1,1.3,1.8,2.1,2.4,2.6c1.1,0.6,2.1,1.2,3.2,1.8
		c1.2,0.8,1.7,1.9,1.7,3.2c0,1.3-0.6,2-1.9,2.3c-1.3,0.3-2.7,0.4-4.1,0.5c0.4,0.3,0.7,0.5,1.1,0.7s1.1,0.4,2.1,0.5h5.8v5.8h-10.1
		C1423.3,72.1,1422.7,71.7,1421.7,70.7z M1419.5,58.6c-0.2,0.7-0.5,1.2-1,1.3c-0.5,0.1-1.1,0.3-1.9,0.6s-1.2,0.5-1.2,0.8
		c0,0.3,0.5,0.6,1.4,0.7s2,0.3,3.3,0.4c0.6,0,1.6-0.1,2.9-0.4c1.3-0.2,1.9-0.5,1.9-0.9c0-0.2-0.3-0.4-0.8-0.6s-1.1-0.5-1.8-0.6
		c-0.6-0.1-1.1-0.6-1.3-1.3c-0.2-0.7-0.5-1.1-0.7-1.1C1419.9,57.5,1419.7,57.9,1419.5,58.6z"/>
	<path class="st1" d="M1445.1,61.1c0,3-0.4,6.1-1.2,9.1s-2.4,4.5-4.7,4.5c-0.3,0-0.9-0.4-1.6-1.3s-1.4-1.3-2-1.3h-3.8v-5.8h5.3
		c0.5,0,1,0.2,1.5,0.5c0.5,0.3,0.9,0.6,1.2,0.7c0.1-1.6,0.2-3.4,0.3-5.3s0.1-3.7,0.1-5.4c0-2-0.2-3.8-0.5-5.3
		c-0.4-1.6-0.6-2.7-0.8-3.6s-0.9-2.2-2-4.2c-1.2-1.9-1.8-3.7-1.8-5.1c0-1.4,0.5-2.7,1.6-3.7c1.1-1,2.2-1.5,3.3-1.5
		c0.7,0,1.4,0.5,2.1,1.5c0.7,1,1,2.1,1,3.4c0,0.4,0,1-0.1,1.8s-0.1,1.3-0.1,1.6c0,2,0.2,4.2,0.7,6.7s0.7,4.2,0.8,5.1
		c0.1,0.9,0.3,2.1,0.5,3.6S1445.1,59.8,1445.1,61.1z"/>
	<path class="st1" d="M1468.5,72.1h-3c-1.8,4-3.6,7.2-5.3,9.7s-3.9,4.5-6.5,6s-6,2.3-10,2.3c-1.7,0-3.1-0.2-4-0.7s-2.1-1.3-3.4-2.5
		c-1.3-1.2-2.3-2.7-3-4.3s-1.4-4.5-1.8-8.6l0.3-1.9c0.5,0.2,0.9,1,1.4,2.2s1,3,1.8,5.3c1.5,3.3,3.1,5.2,5,5.6s3.3,0.7,4.6,0.7
		c1.2,0,2.1,0,2.7,0.1c2.9,0,5.7-1.6,8.5-4.8c2.8-3.2,4.2-6.3,4.2-9.4c-3.1,0-5.3-0.6-6.6-1.9c-1.3-1.3-1.9-3-1.9-5.1
		c0-1.5,0.6-3.6,1.9-6.3c1.3-2.7,2.9-4,4.9-4c2.7,0,4.8,1.9,6.1,5.6c0.9,3.8,1.3,5.8,1.4,6h2.9V72.1z M1457,62.9
		c-0.4,0.3-0.5,0.7-0.5,1.2c0,0.5,0.3,1.1,0.8,1.6c0.5,0.5,1.2,0.7,2,0.7c0.3,0,0.6,0,0.9-0.1s0.4-0.3,0.4-0.8
		c0-1.1-0.3-1.9-0.9-2.3c-0.6-0.4-1.1-0.6-1.6-0.6C1457.6,62.6,1457.3,62.7,1457,62.9z"/>
	<path class="st1" d="M1466.8,66.3h6.3c0-1.8,0.3-3.4,1-4.6s2.2-1.8,4.5-1.8c1.6,0,3.2,0.9,4.8,2.8s2.4,4.5,2.4,7.8
		c0,2.1-0.5,3.6-1.5,4.5s-2.2,1.2-3.7,1.2c-1.3,0-2.5-0.4-3.4-1.3c-0.8-1-1.7-1.9-2.5-2.8h-8V66.3z M1478.1,69.4
		c0.5,1,1.1,1.5,1.8,1.5c0.2,0,0.5-0.1,0.9-0.2c0.4-0.2,0.6-0.6,0.6-1.4c0-0.4-0.1-1-0.3-1.6s-0.5-1.2-1-1.6c-0.5-0.4-1-0.6-1.6-0.4
		c-0.3,0.1-0.6,0.3-0.7,0.6s-0.2,0.6-0.2,1c0,0.4,0,0.8,0.1,1.1S1477.9,69,1478.1,69.4z"/>
	<path class="st1" d="M1526.4,69.9c1.2-0.9,2.1-2.5,2.9-4.7s1.3-4.6,1.7-7c0.4-2.4,0.5-4.6,0.5-6.5c0-3.2-0.5-6.1-1.4-8.6
		c-0.3,0-0.9-0.2-1.6-0.6s-1.2-1.2-1.2-2.5c0-0.9,0.2-1.7,0.7-2.6s1-1.5,1.6-1.9c0.6-0.4,1.2-0.6,1.7-0.6c1.2,0,2.2,0.8,2.9,2.4
		s1.1,3.6,1.1,5.9s-0.1,5.5-0.4,9.4s-0.7,7.5-1.3,10.5c-0.2,1.4,0.2,2.3,1.3,2.7s2.1,0.6,3.3,0.7v5.6h-5.4c-0.8,0-1.5,0.1-1.9,0.3
		c-0.4,0.3-1,0.6-1.6,1s-1.7,0.8-3.1,1.3c-1.4,0.5-2.7,1-4,1.4c0,0.5-0.4,1.5-1.2,2.9s-1.6,2.4-2.5,3.1s-1.4,1-1.7,1.1
		s-0.5,0-0.5-0.2c0-0.3,0.4-1.1,1.2-2.4s1.2-2.5,1.3-3.4c-2.2-0.2-4.4-0.7-6.5-1.4s-3.6-1.8-4.4-3.1s-1.4-2.8-1.9-4.4
		c-0.5-1.6-0.8-3.1-0.8-4.6c0-0.5,0-0.8,0.1-1.1c0.2,0.5,0.5,0.9,0.7,1.4c0.1,0.4,0.3,1.1,0.6,1.9c1.4,2,2.9,3.5,4.5,4.6
		s3.5,1.7,5.9,1.7c0.6,0,1.3-0.1,1.9-0.2c0-1.2-0.1-2.4-0.4-3.8s-0.9-3.9-1.9-7.5l-2.9-11c-0.4-1.2-1.1-2-2.1-2.5s-1.5-0.9-1.6-1.3
		s-0.2-0.9-0.2-1.5c0-1.5,0.5-2.9,1.4-4.1s2-2,3.1-2.2c1.1-0.2,1.9,0.1,2.4,1s0.8,1.6,0.8,2.2c0,0.2-0.1,0.7-0.2,1.6
		s-0.2,1.7-0.2,2.5c0,0.4,0,0.8,0,1s0.1,1.1,0.4,2.5s0.8,3.6,1.6,6.6s1.6,5.9,2.3,8.8s1.3,5.1,1.6,6.8c0.5-0.1,1.1-0.2,1.7-0.3
		S1525.9,70.4,1526.4,69.9z"/>
	<path class="st1" d="M1536,66.3h1.8c1.3-0.2,2.6-0.3,4-0.3c1.5,0,2.9,0.1,4,0.4s2.2,0.8,3.1,1.5c0.5-1.5,0.7-2.5,0.7-3
		c0-0.6-0.4-0.9-1.1-0.9c-2.3,0-4.3-0.4-5.9-1.1s-2.4-2-2.4-3.8c0-2.1,0.8-4.3,2.4-6.6s3.1-3.5,4.3-3.7s2-0.3,2.3-0.3
		c1.8,0,3.2,0.8,4.4,2.5s1.9,3.4,2.1,5.1s0.3,2.8,0.4,3.5s0.1,1.2,0.1,1.6c0,1.9-0.2,3.6-0.5,5.3s-0.8,3.1-1.5,4.4s-1.2,2.1-1.6,2.5
		s-0.9,0.6-1.6,0.7c-1,0.2-1.9,0-2.9-0.5c-1.1-0.6-2.2-1.3-3.3-1.9c-0.7,0.1-1.8,0.2-3.3,0.3s-3,0.1-4.4,0.1l-1.3,0.1V66.3z
		 M1538.2,41.4c0-0.7,0.3-1.3,0.9-1.9s1.4-0.9,2.4-0.9c1,0,1.8,0.2,2.2,0.7s0.7,1.2,0.7,2.2c0,0.8-0.3,1.6-0.9,2.3s-1.4,1.1-2.5,1.1
		c-0.6,0-1.2-0.4-1.9-1.1S1538.2,42.2,1538.2,41.4z M1546.3,56.4c-0.3,0.6-0.4,1.1-0.4,1.5c0,0.5,0.4,1,1.3,1.4s1.7,0.6,2.3,0.6
		c0.8,0,1.3-0.5,1.3-1.6c0-0.3,0-0.7-0.1-1.3s-0.5-1.1-1.1-1.8s-1.1-1-1.5-1c-0.3,0-0.6,0.2-0.9,0.5S1546.6,55.7,1546.3,56.4z
		 M1547.2,40.5c0-0.7,0.3-1.3,0.9-2s1.4-0.9,2.4-0.9c1.1,0,1.9,0.3,2.3,0.8s0.6,1.2,0.6,2.1c0,1.2-0.4,2-1.2,2.5s-1.7,0.8-2.6,0.8
		c-0.5-0.2-1.1-0.5-1.6-0.9S1547.2,41.7,1547.2,40.5z"/>
	<path class="st1" d="M1575.4,72.1c-0.3-0.1-0.6-0.1-0.9-0.1s-1.1,0-2.2,0c-0.9,0-1.5,0.1-1.9,0.3s-1.1,1-2.1,2.4s-2.5,2.4-4.4,3.1
		l-0.3-0.9c0.4-0.8,1.1-1.8,2.2-3.2c0.8-1.6,1.2-4,1.2-7.3l-3.2-18c-0.7-1.2-1.4-2.4-2.1-3.7s-1.1-2.6-1.1-3.9c0-2,0.6-3.5,1.7-4.5
		s2.2-1.5,3.2-1.5c0.8,0,1.4,0.4,1.9,1.2s0.7,1.8,0.7,2.9c0,0.8-0.2,2.1-0.5,3.9s-0.4,3-0.4,3.4c0.5,3.5,1.1,6.8,1.7,9.8
		s1.2,5.4,1.6,7s0.7,2.8,0.9,3.5h4.1V72.1z"/>
	<path class="st1" d="M1573.6,66.3h4c1.6,0,2.5,0,2.7,0s1.1,0.3,2.8,0.7c0.1-0.2,0.1-0.3,0.2-0.5s0.1-0.4,0.1-0.7
		c0-0.4-0.1-0.8-0.2-1s-0.3-0.4-0.4-0.6s-0.6-0.3-1.6-0.3c-0.8,0-1.5-0.3-2.1-1s-0.8-1.4-0.8-2.2c0-0.9,0.4-1.7,1.1-2.6
		s1.8-1.3,3.1-1.3c1,0,2.1,0.9,3.3,2.6s1.8,4,1.8,6.6c0,1.9-0.3,3.5-1,5s-1.5,2.1-2.5,2.1c-0.5-0.2-1.2-0.4-2.1-0.7
		s-2.6-0.4-5.2-0.4h-3.3V66.3z M1578.9,48.9c0-0.7,0.3-1.3,0.9-1.9s1.4-0.9,2.4-0.9c1.9,0,2.9,1,2.9,2.9c0,0.8-0.3,1.6-0.9,2.3
		s-1.4,1.1-2.5,1.1c-0.6,0-1.2-0.4-1.9-1.1S1578.9,49.7,1578.9,48.9z"/>
	<path class="st1" d="M1613,72.1h-3c-1.8,4-3.6,7.2-5.3,9.7s-3.9,4.5-6.5,6s-6,2.3-10,2.3c-1.7,0-3.1-0.2-4-0.7s-2.1-1.3-3.4-2.5
		s-2.3-2.7-3-4.3s-1.4-4.5-1.8-8.6l0.3-1.9c0.5,0.2,0.9,1,1.4,2.2s1,3,1.8,5.3c1.5,3.3,3.1,5.2,5,5.6s3.3,0.7,4.6,0.7s2.1,0,2.7,0.1
		c2.9,0,5.7-1.6,8.5-4.8s4.2-6.3,4.2-9.4c-3.1,0-5.3-0.6-6.6-1.9s-1.9-3-1.9-5.1c0-1.5,0.6-3.6,1.9-6.3s2.9-4,4.9-4
		c2.7,0,4.8,1.9,6.1,5.6c0.9,3.8,1.3,5.8,1.4,6h2.9V72.1z M1601.6,62.9c-0.4,0.3-0.5,0.7-0.5,1.2c0,0.5,0.3,1.1,0.8,1.6
		s1.2,0.7,2,0.7c0.3,0,0.6,0,0.9-0.1s0.4-0.3,0.4-0.8c0-1.1-0.3-1.9-0.9-2.3s-1.1-0.6-1.6-0.6C1602.2,62.6,1601.9,62.7,1601.6,62.9z
		"/>
	<path class="st1" d="M1629.9,72.1h-5.9c-0.4,0.1-0.6,0.2-0.9,0.2c-0.4,0-1-0.4-1.6-1.3s-1.2-1.6-1.7-2c-0.6,1.1-1,1.9-1.3,2.4
		s-0.8,0.8-1.5,0.8h-5.5v-5.8h2.9c3.1,0,4.9-0.9,5.3-2.6s1.2-2.6,2.4-2.6c0.2,0,0.8,0.9,1.9,2.6s2.5,2.6,4.1,2.6h1.9V72.1z
		 M1614.3,50.5c0-0.7,0.3-1.3,0.9-2s1.4-0.9,2.4-0.9c1.9,0,2.9,1,2.9,2.9c0,0.8-0.3,1.6-0.9,2.3s-1.4,1.1-2.5,1.1
		c-0.6,0-1.2-0.4-1.9-1.1S1614.3,51.3,1614.3,50.5z"/>
	<path class="st1" d="M1628.2,66.3h4c1.6,0,2.5,0,2.7,0s1.1,0.3,2.8,0.7c0.1-0.2,0.1-0.3,0.2-0.5s0.1-0.4,0.1-0.7
		c0-0.4-0.1-0.8-0.2-1s-0.3-0.4-0.4-0.6s-0.6-0.3-1.6-0.3c-0.8,0-1.5-0.3-2.1-1s-0.8-1.4-0.8-2.2c0-0.9,0.4-1.7,1.1-2.6
		s1.8-1.3,3.1-1.3c1,0,2.1,0.9,3.3,2.6s1.8,4,1.8,6.6c0,1.9-0.3,3.5-1,5s-1.5,2.1-2.5,2.1c-0.5-0.2-1.2-0.4-2.1-0.7
		s-2.6-0.4-5.2-0.4h-3.3V66.3z M1630.4,81.2c0-0.7,0.3-1.3,0.9-2s1.4-0.9,2.4-0.9c1,0,1.8,0.2,2.2,0.7s0.7,1.2,0.7,2.2
		c0,0.8-0.3,1.6-0.9,2.3s-1.4,1-2.5,1c-0.6,0-1.2-0.4-1.9-1.1S1630.4,82,1630.4,81.2z M1637.8,80.5c0-0.7,0.3-1.3,0.9-1.9
		s1.4-0.9,2.4-0.9c1.1,0,1.9,0.3,2.3,0.8s0.6,1.2,0.6,2.1c0,1.2-0.4,2-1.2,2.6s-1.7,0.8-2.6,0.8c-0.6-0.2-1.1-0.5-1.6-0.9
		S1637.8,81.7,1637.8,80.5z"/>
	<path class="st1" d="M1645.5,42.8c0-0.7,0.3-1.3,0.9-2s1.4-0.9,2.4-0.9c1,0,1.8,0.2,2.2,0.7s0.7,1.2,0.7,2.2c0,0.8-0.3,1.6-0.9,2.3
		s-1.4,1-2.5,1c-0.6,0-1.2-0.4-1.9-1.1S1645.5,43.7,1645.5,42.8z M1650.4,65.1c0-3.1,1.3-5.7,3.9-7.9s5.6-3.2,9.1-3.2
		c0.2,0,0.5,0,0.9,0.1s0.6,0.1,0.7,0.1c0-1.7-0.6-3.2-1.8-4.7s-1.8-2.5-1.8-3c0-1.2,0.4-2.3,1.1-3.1s1.7-1.2,2.9-1.2
		c1.5,0,2.6,0.3,3.2,1s0.9,1.5,0.9,2.5c0,0.5-0.1,1-0.2,1.4s-0.2,0.8-0.3,1c0.6,1.7,1.1,3.7,1.6,5.9s0.8,4.7,0.8,7.3
		c0,3.2-0.6,6.2-1.7,9.1s-3,5.1-5.6,6.7c0-0.2-0.1-0.5-0.1-0.9c0-0.6,0.2-1.5,0.7-2.7s0.7-2.1,0.8-2.8c-1.2,0.5-2.4,1-3.6,1.5
		s-2.4,0.7-3.7,0.7c-2.7,0-4.7-0.7-5.9-2.1S1650.4,67.5,1650.4,65.1z M1654.5,41.9c0-0.7,0.3-1.3,0.9-1.9s1.4-0.9,2.4-0.9
		c1.1,0,1.9,0.3,2.3,0.8s0.6,1.2,0.6,2.1c0,1.2-0.4,2-1.2,2.5s-1.7,0.8-2.6,0.8c-0.6-0.2-1.1-0.5-1.6-0.9S1654.5,43.1,1654.5,41.9z
		 M1656.7,65.7c0.2,0.8,0.6,1.3,1.2,1.7s1.4,0.6,2.3,0.6c1,0,2-0.2,3.1-0.7s1.8-1,2.3-1.7s0.8-1.3,0.9-1.9s0.2-1.4,0.2-2.2
		c-0.1-1.4-0.4-2.3-0.8-2.7s-0.9-0.5-1.4-0.5c-1,0-2.2,0.4-3.6,1.1s-2.4,1.5-2.9,2.4s-0.9,1.6-1.1,2.2S1656.6,65.1,1656.7,65.7z"/>
	<path class="st1" d="M1688.6,88.4c4.6-0.7,8.6-2.6,12-5.7s5.1-6.7,5.1-11c-0.5,0-1.3,0.1-2.5,0.4s-2,0.4-2.4,0.4
		c-0.3,0-1.1-0.1-2.4-0.4s-2.3-1-3-2.2s-1-3.1-1-5.7c0-3.9,0.9-6.7,2.7-8.5s3.7-2.7,5.6-2.7c2.7,0,4.9,1.5,6.6,4.5s2.5,6.6,2.5,10.9
		c0,6.9-2.4,12.7-7.3,17.4s-10.3,7.1-16.2,7.1c-2.2,0-4.7-0.3-7.6-1s-5.5-2.1-7.8-4.4s-4.1-4.1-5.5-5.7s-2.2-3-2.7-4.3
		s-0.7-2.2-0.8-2.6s-0.2-0.7-0.2-0.8c0-0.4,0.2-0.6,0.5-0.5c0.3,0,0.5,0.3,0.6,0.7s0.1,0.8,0.1,1.1c1.8,2.6,3.3,4.5,4.5,5.7
		s3,2.5,5.2,3.9s4.2,2.4,6,2.8s3.5,0.7,5.2,0.7C1686.8,88.6,1687.6,88.5,1688.6,88.4z M1701.7,59.5c-0.9,0-1.5,0.6-1.8,1.8
		c-0.2,1.4-0.3,2.3-0.4,2.6c-0.1,0.6,0.2,1.3,0.9,2s1.3,1.1,1.9,1c1.2-0.2,2-0.4,2.4-0.8s0.6-0.9,0.6-1.5c0-0.4-0.1-0.8-0.1-0.9
		c0-0.7-0.3-1.6-1-2.7S1702.7,59.3,1701.7,59.5z"/>
	<path class="st1" d="M1737.7,69.9c1.2-0.9,2.1-2.5,2.9-4.7s1.3-4.6,1.7-7s0.5-4.6,0.5-6.5c0-3.2-0.5-6.1-1.4-8.6
		c-0.3,0-0.9-0.2-1.6-0.6s-1.2-1.2-1.2-2.5c0-0.9,0.2-1.7,0.7-2.6s1-1.5,1.6-1.9s1.2-0.6,1.7-0.6c1.2,0,2.2,0.8,2.9,2.4
		s1.1,3.6,1.1,5.9s-0.1,5.5-0.4,9.4s-0.7,7.5-1.3,10.5c-0.2,1.4,0.2,2.3,1.3,2.7s2.1,0.6,3.3,0.7v5.6h-5.4c-0.8,0-1.5,0.1-1.9,0.3
		c-0.4,0.3-1,0.6-1.6,1s-1.7,0.8-3.1,1.3s-2.7,1-4,1.4c0,0.5-0.4,1.5-1.2,2.9s-1.6,2.4-2.5,3.1s-1.4,1-1.7,1.1s-0.5,0-0.5-0.2
		c0-0.3,0.4-1.1,1.2-2.4s1.2-2.5,1.3-3.4c-2.2-0.2-4.4-0.7-6.5-1.4s-3.6-1.8-4.4-3.1s-1.4-2.8-1.9-4.4s-0.8-3.1-0.8-4.6
		c0-0.5,0-0.8,0.1-1.1c0.2,0.5,0.5,0.9,0.7,1.4c0.1,0.4,0.3,1.1,0.6,1.9c1.4,2,2.9,3.5,4.5,4.6s3.5,1.7,5.9,1.7
		c0.6,0,1.3-0.1,1.9-0.2c0-1.2-0.1-2.4-0.4-3.8s-0.9-3.9-1.9-7.5l-2.9-11c-0.4-1.2-1.1-2-2.1-2.5s-1.5-0.9-1.6-1.3s-0.2-0.9-0.2-1.5
		c0-1.5,0.5-2.9,1.4-4.1s2-2,3.1-2.2c1.1-0.2,1.9,0.1,2.4,1s0.8,1.6,0.8,2.2c0,0.2-0.1,0.7-0.2,1.6s-0.2,1.7-0.2,2.5
		c0,0.4,0,0.8,0,1s0.1,1.1,0.4,2.5s0.8,3.6,1.6,6.6s1.6,5.9,2.3,8.8s1.3,5.1,1.6,6.8c0.5-0.1,1.1-0.2,1.7-0.3
		S1737.2,70.4,1737.7,69.9z"/>
	<path class="st1" d="M1768.4,72.1h-4.8c-0.7,0-1.4-0.2-2.3-0.6s-1.4-0.5-1.6-0.5c-1,0.3-1.9,0.6-2.8,0.8s-1.7,0.3-2.5,0.3h-1.8
		h-5.2v-5.8h5.9c-0.4,0-0.7-0.6-1.1-1.9s-0.6-2.5-0.6-3.8c0-2.1,0.6-3.7,1.9-4.8s2.9-1.6,4.8-1.6c2.2,0,4,0.9,5.4,2.6
		s2.1,3.7,2.1,5.8c0,0.4-0.1,0.8-0.2,1.3s-0.4,1.3-0.8,2.3h3.5V72.1z M1754.1,47.2c0,1-0.3,1.7-0.9,2.2s-1.4,0.7-2.3,0.7
		c-0.7,0-1.3-0.3-1.8-0.8s-0.7-1.2-0.7-2.1c0-0.9,0.4-1.7,1.1-2.3s1.3-0.9,1.8-0.9c1.2,0,1.9,0.3,2.3,0.9S1754.1,46.3,1754.1,47.2z
		 M1761.4,47.2c0,1-0.3,1.7-0.8,2.2s-1.3,0.7-2.1,0.7c-2.3,0-3.5-0.8-3.5-2.5c0-1.1,0.3-2,1-2.7s1.6-1.1,2.8-1.1
		c0.5,0.3,1.1,0.6,1.7,1S1761.4,46,1761.4,47.2z M1757.1,62.5c0.1,0.6,0.3,1.2,0.5,1.7s0.6,0.7,1,0.7c0.3,0,0.6-0.2,0.9-0.6
		s0.6-0.8,0.8-1.2s0.3-0.9,0.2-1.4c-0.1-0.6-0.3-1.1-0.5-1.6s-0.8-0.7-1.6-0.5c-0.6,0.1-1,0.3-1.2,0.6s-0.2,0.6-0.2,0.9
		C1756.9,61.4,1756.9,61.9,1757.1,62.5z"/>
	<path class="st1" d="M1785.1,72.1h-5.9c-0.4,0.1-0.6,0.2-0.9,0.2c-0.4,0-1-0.4-1.6-1.3s-1.2-1.6-1.7-2c-0.6,1.1-1,1.9-1.3,2.4
		s-0.8,0.8-1.5,0.8h-5.5v-5.8h2.9c3.1,0,4.9-0.9,5.3-2.6s1.2-2.6,2.4-2.6c0.2,0,0.8,0.9,1.9,2.6s2.5,2.6,4.1,2.6h1.9V72.1z
		 M1768.9,49.1c0-0.7,0.3-1.3,0.9-2s1.4-0.9,2.4-0.9c1,0,1.8,0.2,2.2,0.7s0.7,1.2,0.7,2.2c0,0.8-0.3,1.6-0.9,2.3s-1.4,1-2.5,1
		c-0.6,0-1.2-0.4-1.9-1.1S1768.9,49.9,1768.9,49.1z M1776.7,49.1c0-0.7,0.3-1.3,0.9-2s1.4-0.9,2.4-0.9c1.1,0,1.9,0.3,2.3,0.8
		s0.6,1.2,0.6,2.1c0,1.2-0.4,2-1.2,2.5s-1.7,0.8-2.7,0.8c-0.5-0.2-1.1-0.5-1.6-0.9S1776.7,50.3,1776.7,49.1z"/>
	<path class="st1" d="M1825.5,74.4c-1,0-1.8-0.6-2.4-1.8s-1.3-1.8-2-1.8c-0.8,0-1.5,0.2-2.1,0.5s-3,0.5-7.4,0.5
		c-3.3,0-5.7,0-7.3-0.1s-2.9-0.2-4-0.3c-0.8,0-1.5,0.1-2.2,0.2s-1.3,0.2-1.8,0.3s-1.1,0.5-1.9,1.2s-1.6,1-2.5,1c-1,0-1.7-0.3-2.2-1
		s-0.8-1-1.1-1h-1.7h-1.1h-0.8c-0.6,0-1,0-1.2-0.1v-5.8l2.9,0.1c0-1.7,0.1-2.9,0.4-3.8s0.7-1.2,1.3-1.2c1.4,0,2.5,1.5,3,4.4
		c1.3-1.5,2.7-3.2,4.4-5.2s3.9-3.8,6.7-5.4s6.3-2.4,10.6-2.4c3.8,0,7.1,1.3,9.9,3.9s4.3,5.8,4.6,9.6c0,1.8-0.2,3.6-0.4,5.4
		S1826.5,74.4,1825.5,74.4z M1821.4,65c-0.6-1.6-1.9-3-3.9-4.2s-3.6-1.9-4.9-2.1s-2.2-0.2-2.6-0.2c-2,0-4.1,0.6-6.4,1.9
		s-4.1,3.1-5.6,5.4c0.7,0.2,1.6,0.4,2.7,0.5s2.9,0.2,5.4,0.2c2.1,0,4.7-0.1,7.9-0.4S1819.7,65.5,1821.4,65z"/>
	<path class="st1" d="M1834.1,44.1c-0.2-1-0.5-1.8-1-2.4s-1-1.1-1.5-1.7c-0.2-1.8,0.4-3.4,1.7-4.8s2.7-2.2,4.1-2.2
		c1,0,1.8,0.5,2.2,1.4s0.6,1.7,0.5,2.3c-0.3,1-0.6,2-0.9,3s-0.5,2.3-0.5,3.5c0,2.6,0.3,5.9,0.8,10s0.8,7.1,0.8,9.2
		c0,1.7-1,4.1-2.9,7.2s-4.6,5.2-7.8,6.1c1.8-2.1,3-3.9,3.7-5.1s1.2-2.5,1.5-3.8s0.5-2.3,0.5-3.1s0.1-1.7,0.1-2.5
		c0-0.7,0-1.6-0.1-2.8s-0.2-2.1-0.2-3L1834.1,44.1z"/>
	<path class="st1" d="M1871.7,72.1h-3c-0.7,0-1.6-0.2-2.7-0.6s-1.6-0.6-1.7-0.6c-0.1,0-0.4,0.2-0.9,0.6s-1.3,0.6-2.7,0.6
		c-0.7,0-1.7-0.1-3.1-0.4s-2.4-0.4-3.2-0.4c-2.3,0-4.4,0.7-6.2,2.2c-1.6,1.8-3.1,3.7-4.6,5.5c-0.2-0.6-0.2-1,0-1.2
		c0-2.2,0.9-4.4,2.8-6.5s3.6-3.4,5.2-3.9s2.9-0.9,4.1-1.1s1.9-0.3,2.2-0.4c-2.3-1.3-4.2-2.5-5.7-3.6s-2.3-2.8-2.3-5.1
		c0-1.5,0.5-2.8,1.4-3.8s2.1-1.6,3.6-1.6c1,0,1.8,0.4,2.3,1.1s0.8,1.4,0.8,2c0,1.3-0.5,2-1.6,2.2s-1.6,0.4-1.6,0.8
		c0,1,1.7,1.9,5.1,2.8s5.5,2.6,6.4,5.2c1.1,0.4,2.5,0.5,4.2,0.5h1.1V72.1z"/>
	<path class="st1" d="M1870.4,66.3h4c1.6,0,2.5,0,2.7,0s1.1,0.3,2.8,0.7c0.1-0.2,0.1-0.3,0.2-0.5s0.1-0.4,0.1-0.7
		c0-0.4-0.1-0.8-0.2-1s-0.3-0.4-0.4-0.6s-0.6-0.3-1.6-0.3c-0.8,0-1.5-0.3-2.1-1s-0.8-1.4-0.8-2.2c0-0.9,0.4-1.7,1.1-2.6
		s1.8-1.3,3.1-1.3c1,0,2.1,0.9,3.3,2.6s1.8,4,1.8,6.6c0,1.9-0.3,3.5-1,5s-1.5,2.1-2.5,2.1c-0.5-0.2-1.2-0.4-2.1-0.7
		s-2.6-0.4-5.2-0.4h-3.3V66.3z M1872.6,81.2c0-0.7,0.3-1.3,0.9-2s1.4-0.9,2.4-0.9c1,0,1.8,0.2,2.2,0.7s0.7,1.2,0.7,2.2
		c0,0.8-0.3,1.6-0.9,2.3s-1.4,1-2.5,1c-0.6,0-1.2-0.4-1.9-1.1S1872.6,82,1872.6,81.2z M1880,80.5c0-0.7,0.3-1.3,0.9-1.9
		s1.4-0.9,2.4-0.9c1.1,0,1.9,0.3,2.3,0.8s0.6,1.2,0.6,2.1c0,1.2-0.4,2-1.2,2.6s-1.7,0.8-2.6,0.8c-0.6-0.2-1.1-0.5-1.6-0.9
		S1880,81.7,1880,80.5z"/>
	<path class="st1" d="M1887.6,42.8c0-0.7,0.3-1.3,0.9-2s1.4-0.9,2.4-0.9c1,0,1.8,0.2,2.2,0.7s0.7,1.2,0.7,2.2c0,0.8-0.3,1.6-0.9,2.3
		s-1.4,1-2.5,1c-0.6,0-1.2-0.4-1.9-1.1S1887.6,43.7,1887.6,42.8z M1892.6,65.1c0-3.1,1.3-5.7,3.9-7.9s5.6-3.2,9.1-3.2
		c0.2,0,0.5,0,0.9,0.1s0.6,0.1,0.7,0.1c0-1.7-0.6-3.2-1.8-4.7s-1.8-2.5-1.8-3c0-1.2,0.4-2.3,1.1-3.1s1.7-1.2,2.9-1.2
		c1.5,0,2.6,0.3,3.2,1s0.9,1.5,0.9,2.5c0,0.5-0.1,1-0.2,1.4s-0.2,0.8-0.3,1c0.6,1.7,1.1,3.7,1.6,5.9s0.8,4.7,0.8,7.3
		c0,3.2-0.6,6.2-1.7,9.1s-3,5.1-5.6,6.7c0-0.2-0.1-0.5-0.1-0.9c0-0.6,0.2-1.5,0.7-2.7s0.7-2.1,0.8-2.8c-1.2,0.5-2.4,1-3.6,1.5
		s-2.4,0.7-3.7,0.7c-2.7,0-4.7-0.7-5.9-2.1S1892.6,67.5,1892.6,65.1z M1896.7,41.9c0-0.7,0.3-1.3,0.9-1.9s1.4-0.9,2.4-0.9
		c1.1,0,1.9,0.3,2.3,0.8s0.6,1.2,0.6,2.1c0,1.2-0.4,2-1.2,2.5s-1.7,0.8-2.6,0.8c-0.6-0.2-1.1-0.5-1.6-0.9S1896.7,43.1,1896.7,41.9z
		 M1898.9,65.7c0.2,0.8,0.6,1.3,1.2,1.7s1.4,0.6,2.3,0.6c1,0,2-0.2,3.1-0.7s1.8-1,2.3-1.7s0.8-1.3,0.9-1.9s0.2-1.4,0.2-2.2
		c-0.1-1.4-0.4-2.3-0.8-2.7s-0.9-0.5-1.4-0.5c-1,0-2.2,0.4-3.6,1.1s-2.4,1.5-2.9,2.4s-0.9,1.6-1.1,2.2S1898.8,65.1,1898.9,65.7z"/>
	<path class="st1" d="M1930.7,88.4c4.6-0.7,8.6-2.6,12-5.7s5.1-6.7,5.1-11c-0.5,0-1.3,0.1-2.5,0.4s-2,0.4-2.4,0.4
		c-0.3,0-1.1-0.1-2.4-0.4s-2.3-1-3-2.2s-1-3.1-1-5.7c0-3.9,0.9-6.7,2.7-8.5s3.7-2.7,5.6-2.7c2.7,0,4.9,1.5,6.6,4.5s2.5,6.6,2.5,10.9
		c0,6.9-2.4,12.7-7.3,17.4s-10.3,7.1-16.2,7.1c-2.2,0-4.7-0.3-7.6-1s-5.5-2.1-7.8-4.4s-4.1-4.1-5.5-5.7s-2.2-3-2.7-4.3
		s-0.7-2.2-0.8-2.6s-0.2-0.7-0.2-0.8c0-0.4,0.2-0.6,0.5-0.5c0.3,0,0.5,0.3,0.6,0.7s0.1,0.8,0.1,1.1c1.8,2.6,3.3,4.5,4.5,5.7
		s3,2.5,5.2,3.9s4.2,2.4,6,2.8s3.5,0.7,5.2,0.7C1928.9,88.6,1929.8,88.5,1930.7,88.4z M1943.9,59.5c-0.9,0-1.5,0.6-1.8,1.8
		c-0.2,1.4-0.3,2.3-0.4,2.6c-0.1,0.6,0.2,1.3,0.9,2s1.3,1.1,1.9,1c1.2-0.2,2-0.4,2.4-0.8s0.6-0.9,0.6-1.5c0-0.4-0.1-0.8-0.1-0.9
		c0-0.7-0.3-1.6-1-2.7S1944.9,59.3,1943.9,59.5z"/>
	<path class="st1" d="M1979.9,69.9c1.2-0.9,2.1-2.5,2.9-4.7s1.3-4.6,1.7-7s0.5-4.6,0.5-6.5c0-3.2-0.5-6.1-1.4-8.6
		c-0.3,0-0.9-0.2-1.6-0.6s-1.2-1.2-1.2-2.5c0-0.9,0.2-1.7,0.7-2.6s1-1.5,1.6-1.9s1.2-0.6,1.7-0.6c1.2,0,2.2,0.8,2.9,2.4
		s1.1,3.6,1.1,5.9s-0.1,5.5-0.4,9.4s-0.7,7.5-1.3,10.5c-0.2,1.4,0.2,2.3,1.3,2.7s2.1,0.6,3.3,0.7v5.6h-5.4c-0.8,0-1.5,0.1-1.9,0.3
		c-0.4,0.3-1,0.6-1.6,1s-1.7,0.8-3.1,1.3s-2.7,1-4,1.4c0,0.5-0.4,1.5-1.2,2.9s-1.6,2.4-2.5,3.1s-1.4,1-1.7,1.1s-0.5,0-0.5-0.2
		c0-0.3,0.4-1.1,1.2-2.4s1.2-2.5,1.3-3.4c-2.2-0.2-4.4-0.7-6.5-1.4s-3.6-1.8-4.4-3.1s-1.4-2.8-1.9-4.4s-0.8-3.1-0.8-4.6
		c0-0.5,0-0.8,0.1-1.1c0.2,0.5,0.5,0.9,0.7,1.4c0.1,0.4,0.3,1.1,0.6,1.9c1.4,2,2.9,3.5,4.5,4.6s3.5,1.7,5.9,1.7
		c0.6,0,1.3-0.1,1.9-0.2c0-1.2-0.1-2.4-0.4-3.8s-0.9-3.9-1.9-7.5l-2.9-11c-0.4-1.2-1.1-2-2.1-2.5s-1.5-0.9-1.6-1.3s-0.2-0.9-0.2-1.5
		c0-1.5,0.5-2.9,1.4-4.1s2-2,3.1-2.2c1.1-0.2,1.9,0.1,2.4,1s0.8,1.6,0.8,2.2c0,0.2-0.1,0.7-0.2,1.6s-0.2,1.7-0.2,2.5
		c0,0.4,0,0.8,0,1s0.1,1.1,0.4,2.5s0.8,3.6,1.6,6.6s1.6,5.9,2.3,8.8s1.3,5.1,1.6,6.8c0.5-0.1,1.1-0.2,1.7-0.3
		S1979.4,70.4,1979.9,69.9z"/>
	<path class="st1" d="M1989.3,66.3l2.3,0.1c2.4,0,4.7-0.1,6.9-0.2s4.3-0.3,6.4-0.5c0-2.1-0.8-3.5-2.5-4.3c-1.3-0.5-2.6-1.1-4-1.7
		c-0.4,0.4-0.9,0.8-1.5,1.3s-1.2,0.8-1.9,0.8c-1.5,0-2.4-0.4-2.9-1.3s-0.7-1.9-0.7-3c0-1.7,0.6-2.9,1.8-3.7s2.7-1.1,4.4-1.1
		c3.3,0,6.1,1.6,8.4,4.7s4.1,5.2,5.3,6.2s2.8,1.6,4.7,2s3.8,0.6,5.6,0.7v5.8h-1.9c-0.3,0-1.5-0.1-3.7-0.3s-4.3-0.3-6.2-0.3
		c-5.6,0-9.6,0.1-12,0.2s-4.5,0.2-6.4,0.2l-2.1,0.1V66.3z M2002.9,79.5c0-0.7,0.3-1.3,0.9-1.9s1.4-0.9,2.4-0.9
		c1.1,0,1.9,0.3,2.3,0.8s0.6,1.2,0.6,2.1c0,1.2-0.4,2-1.2,2.6s-1.7,0.8-2.6,0.8c-0.6-0.2-1.1-0.5-1.6-0.9S2002.9,80.7,2002.9,79.5z"
		/>
	<path class="st1" d="M2038.6,72.1h-5.9c-0.4,0.1-0.6,0.2-0.9,0.2c-0.4,0-1-0.4-1.6-1.3s-1.2-1.6-1.7-2c-0.6,1.1-1,1.9-1.3,2.4
		s-0.8,0.8-1.5,0.8h-5.5v-5.8h2.9c3.1,0,4.9-0.9,5.3-2.6s1.2-2.6,2.4-2.6c0.2,0,0.8,0.9,1.9,2.6s2.5,2.6,4.1,2.6h1.9V72.1z
		 M2022.4,49.1c0-0.7,0.3-1.3,0.9-2s1.4-0.9,2.4-0.9c1,0,1.8,0.2,2.2,0.7s0.7,1.2,0.7,2.2c0,0.8-0.3,1.6-0.9,2.3s-1.4,1-2.5,1
		c-0.6,0-1.2-0.4-1.9-1.1S2022.4,49.9,2022.4,49.1z M2030.3,49.1c0-0.7,0.3-1.3,0.9-2s1.4-0.9,2.4-0.9c1.1,0,1.9,0.3,2.3,0.8
		s0.6,1.2,0.6,2.1c0,1.2-0.4,2-1.2,2.5s-1.7,0.8-2.7,0.8c-0.5-0.2-1.1-0.5-1.6-0.9S2030.3,50.3,2030.3,49.1z"/>
	<path class="st1" d="M2037.5,66.3h6.3c0-1.8,0.3-3.4,1-4.6s2.2-1.8,4.5-1.8c1.6,0,3.2,0.9,4.8,2.8s2.4,4.5,2.4,7.8
		c0,2.1-0.5,3.6-1.5,4.5s-2.2,1.2-3.7,1.2c-1.3,0-2.5-0.4-3.4-1.3c-0.8-1-1.7-1.9-2.5-2.8h-8V66.3z M2048.8,69.4
		c0.5,1,1.1,1.5,1.8,1.5c0.2,0,0.5-0.1,0.9-0.2s0.6-0.6,0.6-1.4c0-0.4-0.1-1-0.3-1.6s-0.5-1.2-1-1.6s-1-0.6-1.6-0.4
		c-0.3,0.1-0.6,0.3-0.7,0.6s-0.2,0.6-0.2,1c0,0.4,0,0.8,0.1,1.1S2048.6,69,2048.8,69.4z"/>
	<path class="st1" d="M2076.5,72.1c-0.3-0.1-0.6-0.1-0.9-0.1s-1.1,0-2.2,0c-0.9,0-1.5,0.1-1.9,0.3s-1.1,1-2.1,2.4s-2.5,2.4-4.4,3.1
		l-0.3-0.9c0.4-0.8,1.1-1.8,2.2-3.2c0.8-1.6,1.2-4,1.2-7.3l-3.2-18c-0.7-1.2-1.4-2.4-2.1-3.7s-1.1-2.6-1.1-3.9c0-2,0.6-3.5,1.7-4.5
		s2.2-1.5,3.2-1.5c0.8,0,1.4,0.4,1.9,1.2s0.7,1.8,0.7,2.9c0,0.8-0.2,2.1-0.5,3.9s-0.4,3-0.4,3.4c0.5,3.5,1.1,6.8,1.7,9.8
		s1.2,5.4,1.6,7s0.7,2.8,0.9,3.5h4.1V72.1z"/>
	<path class="st1" d="M2089.5,70.7c-1-0.9-1.6-1.4-1.8-1.4c-0.3,0-0.9,0.5-1.8,1.4s-1.6,1.4-1.8,1.4h-9.2v-5.8h5.9
		c0.8-0.1,1.4-0.2,1.7-0.5s0.8-0.5,1.4-0.8c-1.2-0.1-2.4-0.3-3.6-0.4c-1.8-0.4-2.6-1.1-2.6-2.3c0-1.3,0.5-2.2,1.5-2.9
		s2.3-1.3,3.8-2.1c0.7-0.5,1.5-1.3,2.5-2.6s1.9-1.9,2.7-1.9c1,0,2,0.6,3,1.9s1.8,2.1,2.4,2.6c1.1,0.6,2.1,1.2,3.2,1.8
		c1.2,0.8,1.7,1.9,1.7,3.2c0,1.3-0.6,2-1.9,2.3s-2.7,0.4-4.1,0.5c0.4,0.3,0.7,0.5,1.1,0.7s1.1,0.4,2.1,0.5h5.8v5.8h-10.1
		C2091.1,72.1,2090.4,71.7,2089.5,70.7z M2087.3,58.6c-0.2,0.7-0.5,1.2-1,1.3s-1.1,0.3-1.9,0.6s-1.2,0.5-1.2,0.8
		c0,0.3,0.5,0.6,1.4,0.7s2,0.3,3.3,0.4c0.6,0,1.6-0.1,2.9-0.4s1.9-0.5,1.9-0.9c0-0.2-0.3-0.4-0.8-0.6s-1.1-0.5-1.8-0.6
		s-1.1-0.6-1.3-1.3s-0.5-1.1-0.7-1.1C2087.7,57.5,2087.4,57.9,2087.3,58.6z"/>
	<path class="st1" d="M2099.6,66.3h4c1.6,0,2.5,0,2.7,0s1.1,0.3,2.8,0.7c0.1-0.2,0.1-0.3,0.2-0.5s0.1-0.4,0.1-0.7
		c0-0.4-0.1-0.8-0.2-1s-0.3-0.4-0.4-0.6s-0.6-0.3-1.6-0.3c-0.8,0-1.5-0.3-2.1-1s-0.8-1.4-0.8-2.2c0-0.9,0.4-1.7,1.1-2.6
		s1.8-1.3,3.1-1.3c1,0,2.1,0.9,3.3,2.6s1.8,4,1.8,6.6c0,1.9-0.3,3.5-1,5s-1.5,2.1-2.5,2.1c-0.5-0.2-1.2-0.4-2.1-0.7
		s-2.6-0.4-5.2-0.4h-3.3V66.3z M2101.8,81.2c0-0.7,0.3-1.3,0.9-2s1.4-0.9,2.4-0.9c1,0,1.8,0.2,2.2,0.7s0.7,1.2,0.7,2.2
		c0,0.8-0.3,1.6-0.9,2.3s-1.4,1-2.5,1c-0.6,0-1.2-0.4-1.9-1.1S2101.8,82,2101.8,81.2z M2109.2,80.5c0-0.7,0.3-1.3,0.9-1.9
		s1.4-0.9,2.4-0.9c1.1,0,1.9,0.3,2.3,0.8s0.6,1.2,0.6,2.1c0,1.2-0.4,2-1.2,2.6s-1.7,0.8-2.6,0.8c-0.6-0.2-1.1-0.5-1.6-0.9
		S2109.2,81.7,2109.2,80.5z"/>
	<path class="st1" d="M2116.9,42.8c0-0.7,0.3-1.3,0.9-2s1.4-0.9,2.4-0.9c1,0,1.8,0.2,2.2,0.7s0.7,1.2,0.7,2.2c0,0.8-0.3,1.6-0.9,2.3
		s-1.4,1-2.5,1c-0.6,0-1.2-0.4-1.9-1.1S2116.9,43.7,2116.9,42.8z M2121.8,65.1c0-3.1,1.3-5.7,3.9-7.9s5.6-3.2,9.1-3.2
		c0.2,0,0.5,0,0.9,0.1s0.6,0.1,0.7,0.1c0-1.7-0.6-3.2-1.8-4.7s-1.8-2.5-1.8-3c0-1.2,0.4-2.3,1.1-3.1s1.7-1.2,2.9-1.2
		c1.5,0,2.6,0.3,3.2,1s0.9,1.5,0.9,2.5c0,0.5-0.1,1-0.2,1.4s-0.2,0.8-0.3,1c0.6,1.7,1.1,3.7,1.6,5.9s0.8,4.7,0.8,7.3
		c0,3.2-0.6,6.2-1.7,9.1s-3,5.1-5.6,6.7c0-0.2-0.1-0.5-0.1-0.9c0-0.6,0.2-1.5,0.7-2.7s0.7-2.1,0.8-2.8c-1.2,0.5-2.4,1-3.6,1.5
		s-2.4,0.7-3.7,0.7c-2.7,0-4.7-0.7-5.9-2.1S2121.8,67.5,2121.8,65.1z M2125.9,41.9c0-0.7,0.3-1.3,0.9-1.9s1.4-0.9,2.4-0.9
		c1.1,0,1.9,0.3,2.3,0.8s0.6,1.2,0.6,2.1c0,1.2-0.4,2-1.2,2.5s-1.7,0.8-2.6,0.8c-0.6-0.2-1.1-0.5-1.6-0.9S2125.9,43.1,2125.9,41.9z
		 M2128.1,65.7c0.2,0.8,0.6,1.3,1.2,1.7s1.4,0.6,2.3,0.6c1,0,2-0.2,3.1-0.7s1.8-1,2.3-1.7s0.8-1.3,0.9-1.9s0.2-1.4,0.2-2.2
		c-0.1-1.4-0.4-2.3-0.8-2.7s-0.9-0.5-1.4-0.5c-1,0-2.2,0.4-3.6,1.1s-2.4,1.5-2.9,2.4s-0.9,1.6-1.1,2.2S2128,65.1,2128.1,65.7z"/>
</g>
<g>
	<path class="st4" d="M162.8,109.6h28.9v5.3h-22v16.2H190v5.2h-20.3v22.1h-6.9V109.6z"/>
	<path class="st4" d="M219.1,158.5l-0.6-4.4h-0.2c-2.2,2.8-6.3,5.2-11.8,5.2c-7.8,0-11.8-5-11.8-10.1c0-8.5,8.3-13.1,23.2-13v-0.7
		c0-2.9-0.9-8.1-8.8-8.1c-3.6,0-7.3,1-10,2.6l-1.6-4.2c3.2-1.9,7.8-3.1,12.7-3.1c11.8,0,14.7,7.3,14.7,14.3v13.1c0,3,0.2,6,0.6,8.4
		H219.1z M218.1,140.6c-7.7-0.1-16.3,1.1-16.3,7.9c0,4.1,3,6.1,6.6,6.1c5,0,8.2-2.9,9.3-5.9c0.2-0.7,0.4-1.4,0.4-2V140.6z"/>
	<path class="st4" d="M263.6,157.1c-1.8,0.9-5.9,2-11.1,2c-11.6,0-19.2-7.2-19.2-17.9c0-10.8,8.1-18.6,20.7-18.6
		c4.1,0,7.8,0.9,9.7,1.8l-1.6,4.9c-1.7-0.9-4.3-1.7-8.1-1.7c-8.8,0-13.6,5.9-13.6,13.3c0,8.1,5.7,13.1,13.4,13.1
		c4,0,6.6-0.9,8.6-1.7L263.6,157.1z"/>
	<path class="st4" d="M304.1,148.9c0,3.6,0.1,6.8,0.3,9.6h-6.2l-0.4-5.7h-0.2c-1.8,2.8-5.9,6.5-12.8,6.5c-6.1,0-13.3-3-13.3-15.4
		v-20.5h7v19.4c0,6.7,2.2,11.2,8.6,11.2c4.7,0,8-3,9.2-5.8c0.4-0.9,0.6-2.1,0.6-3.3v-21.5h7V148.9z"/>
	<path class="st4" d="M315.7,107h7v51.4h-7V107z"/>
	<path class="st4" d="M343,113.3v10.1h10v4.9h-10v18.9c0,4.3,1.4,6.8,5.3,6.8c1.8,0,3.2-0.2,4.1-0.4l0.3,4.8
		c-1.4,0.5-3.5,0.9-6.2,0.9c-3.3,0-5.9-0.9-7.6-2.7c-2-1.9-2.7-5-2.7-9.1v-19.1h-6v-4.9h6V115L343,113.3z"/>
	<path class="st4" d="M364.3,142.1c0.2,8.6,6.2,12.2,13.2,12.2c5,0,8-0.8,10.7-1.8l1.2,4.6c-2.5,1-6.7,2.2-12.8,2.2
		c-11.9,0-19-7.1-19-17.7c0-10.6,6.9-18.9,18.1-18.9c12.6,0,15.9,10.1,15.9,16.5c0,1.3-0.2,2.3-0.2,3H364.3z M384.9,137.5
		c0.1-4.1-1.8-10.4-9.7-10.4c-7.1,0-10.2,5.9-10.8,10.4H384.9z M386.6,108.3l-9.7,10.4h-5l7-10.4H386.6z"/>
	<path class="st4" d="M450.6,107v42.4c0,3.1,0.1,6.7,0.3,9.1h-6.3l-0.3-6.1h-0.2c-2.2,3.9-6.9,6.9-13.1,6.9
		c-9.3,0-16.5-7.2-16.5-17.8c-0.1-11.7,7.9-18.8,17.3-18.8c5.9,0,9.9,2.5,11.6,5.4h0.2V107H450.6z M443.6,137.7
		c0-0.8-0.1-1.9-0.3-2.7c-1-4.1-4.9-7.4-10.1-7.4c-7.3,0-11.6,5.8-11.6,13.5c0,7.1,3.8,13,11.4,13c4.7,0,9-2.8,10.3-7.6
		c0.2-0.9,0.3-1.7,0.3-2.8V137.7z"/>
	<path class="st4" d="M466.1,142.1c0.2,8.6,6.2,12.2,13.2,12.2c5,0,8-0.8,10.7-1.8l1.2,4.6c-2.5,1-6.7,2.2-12.8,2.2
		c-11.9,0-19-7.1-19-17.7c0-10.6,6.9-18.9,18.1-18.9c12.6,0,15.9,10.1,15.9,16.5c0,1.3-0.2,2.3-0.2,3H466.1z M486.7,137.5
		c0.1-4.1-1.8-10.4-9.7-10.4c-7.1,0-10.2,5.9-10.8,10.4H486.7z"/>
	<path class="st4" d="M501.2,151.9c2.1,1.2,5.7,2.5,9.2,2.5c5.1,0,7.5-2.3,7.5-5.2c0-3-2-4.7-7.2-6.4c-6.9-2.2-10.2-5.7-10.2-9.9
		c0-5.7,5-10.3,13.3-10.3c3.9,0,7.3,1,9.5,2.2l-1.8,4.6c-1.5-0.9-4.3-2-7.9-2c-4.1,0-6.5,2.2-6.5,4.8c0,2.9,2.3,4.2,7.3,5.9
		c6.7,2.3,10.1,5.4,10.1,10.6c0,6.2-5.3,10.5-14.4,10.5c-4.2,0-8.1-0.9-10.8-2.4L501.2,151.9z"/>
	<path class="st4" d="M549.8,150.8c3.1,1.7,7.6,3.2,12.4,3.2c7.1,0,11.2-3.4,11.2-8.3c0-4.6-2.9-7.2-10.1-9.7
		c-8.8-2.8-14.2-7-14.2-13.8c0-7.6,6.9-13.3,17.4-13.3c5.5,0,9.5,1.2,11.9,2.4l-1.9,5.1c-1.8-0.9-5.3-2.3-10.2-2.3
		c-7.3,0-10.1,4-10.1,7.3c0,4.6,3.3,6.8,10.7,9.4c9.1,3.2,13.7,7.2,13.7,14.3c0,7.5-6.1,14.1-18.8,14.1c-5.2,0-10.8-1.4-13.7-3.1
		L549.8,150.8z"/>
	<path class="st4" d="M617.8,157.1c-1.8,0.9-5.9,2-11.1,2c-11.6,0-19.2-7.2-19.2-17.9c0-10.8,8.1-18.6,20.7-18.6
		c4.1,0,7.8,0.9,9.7,1.8l-1.6,4.9c-1.7-0.9-4.3-1.7-8.1-1.7c-8.8,0-13.6,5.9-13.6,13.3c0,8.1,5.7,13.1,13.4,13.1
		c4,0,6.6-0.9,8.6-1.7L617.8,157.1z"/>
	<path class="st4" d="M633.8,113.5c0.1,2.2-1.7,3.9-4.5,3.9c-2.5,0-4.2-1.7-4.2-3.9c0-2.2,1.8-4,4.4-4
		C632.2,109.6,633.8,111.3,633.8,113.5z M626,158.5v-35.1h7v35.1H626z"/>
	<path class="st4" d="M648.6,142.1c0.2,8.6,6.2,12.2,13.2,12.2c5,0,8-0.8,10.7-1.8l1.2,4.6c-2.5,1-6.7,2.2-12.8,2.2
		c-11.9,0-19-7.1-19-17.7c0-10.6,6.9-18.9,18.1-18.9c12.6,0,15.9,10.1,15.9,16.5c0,1.3-0.2,2.3-0.2,3H648.6z M669.1,137.5
		c0.1-4.1-1.8-10.4-9.7-10.4c-7.1,0-10.2,5.9-10.8,10.4H669.1z"/>
	<path class="st4" d="M684.6,132.9c0-3.6-0.1-6.6-0.3-9.5h6.2l0.4,5.8h0.2c1.9-3.3,6.4-6.6,12.8-6.6c5.3,0,13.6,2.9,13.6,14.9v20.9
		h-7v-20.2c0-5.6-2.3-10.4-8.9-10.4c-4.6,0-8.2,3-9.4,6.5c-0.3,0.8-0.5,1.9-0.5,3v21.1h-7V132.9z"/>
	<path class="st4" d="M756.3,157.1c-1.8,0.9-5.9,2-11.1,2c-11.6,0-19.2-7.2-19.2-17.9c0-10.8,8.1-18.6,20.7-18.6
		c4.1,0,7.8,0.9,9.7,1.8l-1.6,4.9c-1.7-0.9-4.3-1.7-8.1-1.7c-8.8,0-13.6,5.9-13.6,13.3c0,8.1,5.7,13.1,13.4,13.1
		c4,0,6.6-0.9,8.6-1.7L756.3,157.1z"/>
	<path class="st4" d="M767.9,142.1c0.2,8.6,6.2,12.2,13.2,12.2c5,0,8-0.8,10.7-1.8l1.2,4.6c-2.5,1-6.7,2.2-12.8,2.2
		c-11.9,0-19-7.1-19-17.7c0-10.6,6.9-18.9,18.1-18.9c12.6,0,15.9,10.1,15.9,16.5c0,1.3-0.2,2.3-0.2,3H767.9z M788.5,137.5
		c0.1-4.1-1.8-10.4-9.7-10.4c-7.1,0-10.2,5.9-10.8,10.4H788.5z"/>
	<path class="st4" d="M803,151.9c2.1,1.2,5.7,2.5,9.2,2.5c5.1,0,7.5-2.3,7.5-5.2c0-3-2-4.7-7.2-6.4c-6.9-2.2-10.2-5.7-10.2-9.9
		c0-5.7,5-10.3,13.3-10.3c3.9,0,7.3,1,9.5,2.2l-1.8,4.6c-1.5-0.9-4.3-2-7.9-2c-4.1,0-6.5,2.2-6.5,4.8c0,2.9,2.3,4.2,7.3,5.9
		c6.7,2.3,10.1,5.4,10.1,10.6c0,6.2-5.3,10.5-14.4,10.5c-4.2,0-8.1-0.9-10.8-2.4L803,151.9z"/>
</g>
<g>
	<path d="M251,109.9c0-1.1,0.6-3.4,1.9-6.9c1.3-3.5,1.9-5.8,1.9-6.9c-1-2.5-1.8-6.4-2.5-11.8c-0.7-5.4-1.1-11.4-1.1-18.1
		c0-7,1.7-10.9,5.2-11.7c3.4-0.8,6.2-1.4,8.2-1.9c0.6-1.6,1.7-3.4,3.4-5.5c1.7-2.1,5-3.2,10-3.2c4.3,0,7.6,1.4,10.1,4.2
		c2.5,2.8,3.7,5.9,3.7,9.4c0,3.6-1.1,6.5-3.4,8.5c-2.3,2-5.3,3.1-9.2,3.1c-3.4,0-6.2-0.8-8.2-2.4c-2-1.6-3.7-2.4-4.9-2.4
		c-2.3,0-3.9,0.4-4.8,1.2c-0.9,0.8-1.3,2.6-1.3,5.5c0,1,0.1,3.3,0.4,6.9c0.3,3.6,0.6,6.5,0.8,8.8c0.3,2.3,0.5,4.4,0.8,6.3
		c0.3,1.9,0.4,3.3,0.4,4.1c0,1.2,0,2.1-0.1,2.7c-0.1,0.6-0.4,1.9-1.1,3.9c-0.7,2-1.3,3.6-1.9,4.6c-0.6,1.1-1.8,2-3.7,2.8
		c-0.6,0.2-1.3,0.3-1.9,0.3C251.9,111.1,251,110.7,251,109.9z M274.6,58.1c0.8,1,1.9,1.5,3.4,1.5c0.5,0,0.9-0.1,1.4-0.2
		c0.5-0.1,0.9-0.5,1.2-1.1c0.3-0.6,0.5-1.3,0.5-2c0-1-0.5-1.8-1.4-2.5c-0.9-0.6-2-0.8-3.3-0.6c-1.6,0.3-2.5,1.3-2.5,3
		C274.1,56.9,274.3,57.5,274.6,58.1z"/>
	<path d="M345.5,67.3h-5.9c-3.6,6-7,10.9-10.4,14.6c-3.3,3.7-7.6,6.8-12.7,9.1s-11.6,3.4-19.5,3.4c-3.4,0-6-0.3-7.8-1
		c-1.9-0.7-4.1-1.9-6.6-3.8c-2.5-1.9-4.5-4-5.9-6.4c-1.5-2.4-2.7-6.7-3.6-13l0.5-2.9c0.9,0.4,1.8,1.5,2.7,3.3c0.9,1.9,2,4.6,3.5,8.1
		c2.9,5,6.1,7.8,9.7,8.5c3.5,0.7,6.5,1,8.9,1c2.4,0,4.1,0.1,5.2,0.1c5.6,0,11.2-2.4,16.7-7.3c5.5-4.8,8.2-9.6,8.2-14.2
		c-6,0-10.3-1-12.9-2.9c-2.5-1.9-3.8-4.5-3.8-7.7c0-2.3,1.2-5.5,3.7-9.5c2.5-4,5.7-6,9.6-6c5.3,0,9.3,2.8,12,8.4
		c1.7,5.8,2.6,8.8,2.7,9.1h5.7V67.3z M323.1,53.4c-0.7,0.5-1,1.1-1,1.8c0,0.8,0.5,1.6,1.5,2.4c1,0.8,2.3,1.1,3.9,1.1
		c0.6,0,1.2,0,1.7-0.1c0.5-0.1,0.7-0.5,0.7-1.3c0-1.7-0.6-2.8-1.7-3.4c-1.2-0.6-2.2-1-3.1-1C324.4,52.9,323.7,53.1,323.1,53.4z"/>
	<path d="M342.3,58.6h12.1c1.3-0.3,2.5-0.6,3.8-1c1.3-0.4,1.9-0.9,1.9-1.7c-0.9-5.5-1.7-10.9-2.5-16.1c-0.8-5.2-1.4-8.8-1.9-11
		s-1.8-4.3-4-6.6c-2.2-2.2-3.3-4.7-3.3-7.4c0-2.2,1-4,3.1-5.6c2.1-1.5,4.2-2.3,6.5-2.3c1.5,0,2.9,0.8,4.2,2.3
		c1.3,1.5,1.9,3.2,1.9,5.1c0,0.5-0.1,1.4-0.2,2.7c-0.2,1.3-0.2,2.1-0.2,2.4c0,2.9,0.5,6.3,1.5,10.1c1,3.8,1.7,6.9,2.1,9.4
		c0.4,2.5,0.8,6.3,1.1,11.3c0.3,5,0.6,7.7,0.9,8.1c0.3,0.1,0.8,0.1,1.7,0.1c0.9,0,1.7,0,2.7,0c1.3,0,2,0,2.3,0c0.3,0,0.7,0,1.3,0
		v8.7h-10.4c-0.7,1.9-2.1,3.9-4.3,6.1c-2.2,2.2-4.5,3.6-7,4.3c0-1.1,0.4-2.7,1.3-4.7c0.9-2,1.5-3.9,1.8-5.7h-16.4V58.6z"/>
	<path d="M402.5,65.2c-1.9-1.4-3.1-2.1-3.6-2.1c-0.5,0-1.7,0.7-3.5,2.1c-1.9,1.4-3,2.1-3.5,2.1h-18v-8.7h11.4
		c1.6-0.1,2.7-0.4,3.4-0.7c0.7-0.4,1.6-0.8,2.7-1.2c-2.4-0.2-4.7-0.4-7-0.6c-3.4-0.5-5.2-1.7-5.2-3.5c0-1.9,1-3.4,3-4.3
		c2-1,4.4-2,7.3-3.2c1.3-0.7,3-2,5-3.9c2-1.9,3.7-2.9,5.2-2.9c2,0,4,1,5.9,2.9c1.9,1.9,3.5,3.2,4.7,3.9c2.1,0.9,4.1,1.8,6.2,2.7
		c2.3,1.2,3.4,2.8,3.4,4.8c0,1.9-1.3,3-3.8,3.4c-2.5,0.4-5.2,0.6-7.9,0.8c0.7,0.4,1.5,0.8,2.2,1.1c0.7,0.4,2.1,0.6,4.2,0.8h11.3v8.7
		h-19.7C405.6,67.3,404.3,66.6,402.5,65.2z M398.2,47c-0.3,1.1-1,1.8-1.9,1.9c-0.9,0.2-2.2,0.5-3.8,0.9c-1.6,0.4-2.3,0.8-2.3,1.2
		c0,0.5,0.9,0.9,2.8,1.1c1.9,0.2,4,0.4,6.4,0.6c1.3,0,3.1-0.2,5.6-0.5c2.5-0.4,3.7-0.8,3.7-1.4c0-0.2-0.5-0.6-1.6-1
		c-1.1-0.4-2.2-0.7-3.5-0.9c-1.2-0.2-2.1-0.9-2.6-2c-0.5-1.1-0.9-1.7-1.4-1.7C399,45.3,398.5,45.9,398.2,47z"/>
	<path d="M448.2,50.7c0,4.6-0.8,9.2-2.4,13.7c-1.6,4.5-4.6,6.8-9.1,6.8c-0.6,0-1.7-0.6-3.2-1.9c-1.5-1.3-2.8-1.9-3.8-1.9h-7.4v-8.7
		h10.3c1,0,2,0.2,2.9,0.7c0.9,0.5,1.7,0.8,2.3,1.1c0.2-2.4,0.4-5.1,0.6-8c0.2-2.9,0.3-5.6,0.3-8.2c0-3-0.4-5.7-1.1-8.1
		c-0.7-2.3-1.2-4.1-1.6-5.4c-0.3-1.3-1.7-3.4-4-6.3c-2.3-2.9-3.5-5.5-3.5-7.8c0-2.2,1-4,3.1-5.6c2.1-1.5,4.2-2.3,6.4-2.3
		c1.4,0,2.8,0.8,4.2,2.3c1.4,1.5,2,3.2,2,5.1c0,0.6-0.1,1.5-0.3,2.7c-0.2,1.1-0.2,1.9-0.2,2.3c0,3,0.4,6.4,1.3,10.1
		c0.9,3.7,1.4,6.3,1.7,7.7c0.2,1.4,0.6,3.2,0.9,5.4C448,46.7,448.2,48.8,448.2,50.7z"/>
	<path d="M458.6,25c-0.3-1.5-0.9-2.7-1.9-3.6c-0.9-0.8-1.9-1.7-2.8-2.6c-0.4-2.7,0.7-5.1,3.2-7.3c2.5-2.2,5.2-3.3,7.9-3.3
		c2,0,3.4,0.7,4.3,2.1c0.8,1.4,1.1,2.5,0.9,3.4c-0.5,1.4-1.1,3-1.7,4.6c-0.6,1.6-0.9,3.4-0.9,5.4c0,3.9,0.5,8.9,1.6,15
		c1.1,6.1,1.6,10.7,1.6,13.9c0,2.5-1.9,6.2-5.7,10.9c-3.8,4.7-8.9,7.8-15.2,9.2c3.4-3.2,5.8-5.8,7.2-7.8c1.4-1.9,2.3-3.8,2.9-5.7
		s0.9-3.4,1.1-4.7c0.2-1.3,0.2-2.5,0.2-3.8c0-1.1-0.1-2.5-0.2-4.2c-0.2-1.7-0.3-3.2-0.5-4.6L458.6,25z"/>
	<path d="M502.3,18c0-1.8,0.6-3,1.9-3.5c1.3-0.5,2.8-0.8,4.6-0.8c1.9,0,3.3,0.2,4.1,0.7c0.8,0.4,1.6,1.4,2.5,2.9
		c1-1.9,2-3.2,3.1-3.9c1.1-0.8,2.8-1.1,5.3-1.1c1.6,0,3,0.6,4.1,1.9s1.7,2.3,1.7,3.2c0,1.3-0.8,2.3-2.4,3.1
		c-1.6,0.8-3.4,1.2-5.3,1.2c-1.7,0-3-0.3-3.7-0.9c-0.8-0.8-1.4-1.5-1.9-2c-2.2,2.1-3.8,3.4-4.8,3.8c-1.1,0.4-2.2,0.6-3.6,0.6
		c-1.4,0-2.7-0.5-3.9-1.4C502.9,20.8,502.3,19.5,502.3,18z M549.1,67.3l2.1,0.1c-0.4,0-1,0-1.9,0c-0.9,0-2,0-3.3,0
		c-4,0-7.1,1-9.4,2.9c-2.3,1.9-6,2.9-11.2,2.9c0.3-0.7,1.3-1.7,2.9-3c1.6-1.2,2.6-2.2,3-2.8c-0.6-0.1-1.3-0.1-2-0.1
		c-0.7,0-1.3,0-1.7,0c-2.9,0-4.7,0-5.4,0c-0.7,0-1.2,0.1-1.7,0.2c-3.1-0.4-6.1-1.2-9.1-2.6c-3-1.4-4.5-4.7-4.5-10.1
		c0-5,2.5-8.5,7.4-10.7c5.7-1.2,11.5-2.4,17.2-3.6c0.3-0.6,0.3-1.4,0-2.6c-0.4-1.2-0.8-2.1-1.2-2.8c-0.4-0.7-1.6-1.5-3.6-2.5
		c-2-1-2.9-1.9-2.9-2.8c0-2.3,0.8-3.8,2.3-4.4c1.6-0.6,3.6-0.9,6-0.9c2.7,0,5,0.9,6.8,2.6c1.8,1.8,2.7,4.1,2.7,7
		c0,1.9,0,3.8-0.1,5.7c-0.1,1.9-0.1,3.9-0.1,5.9c0,2,0,4,0,6c0.2,3.1,0.5,5.4,1,6.9h6.7V67.3z M518.6,56.3c0,0.9,0.6,1.4,1.8,1.7
		c1.2,0.3,2.7,0.4,4.5,0.4c1.8-0.1,3-0.1,3.5-0.1c3.4,0,5-1,5-2.9l-0.2-1.5l-0.6-4.2c0-1.1-0.9-1.6-2.6-1.6c-1.4,0-3.1,0.3-5,1
		c-1.9,0.6-3.3,1.2-4.2,1.8c-0.9,0.6-1.5,1.3-1.8,2.3C518.7,54.1,518.6,55.1,518.6,56.3z"/>
	<path d="M581.9,67.3h-11.6c-0.7,0.2-1.3,0.3-1.7,0.3c-0.9,0-1.9-0.7-3.1-2c-1.2-1.4-2.3-2.4-3.2-3.1c-1.1,1.6-2,2.8-2.6,3.6
		s-1.6,1.2-3,1.2h-10.8v-8.7h5.6c6.1,0,9.5-1.3,10.4-3.9c0.9-2.6,2.4-3.9,4.6-3.9c0.3,0,1.5,1.3,3.7,3.9c2.2,2.6,4.8,3.9,8,3.9h3.7
		V67.3z M550.3,79.5c0-1,0.6-2,1.8-2.9c1.2-0.9,2.8-1.4,4.8-1.4c2,0,3.5,0.4,4.3,1.1c0.9,0.7,1.3,1.8,1.3,3.3c0,1.3-0.6,2.4-1.7,3.5
		c-1.1,1.1-2.7,1.6-4.8,1.6c-1.1,0-2.3-0.5-3.7-1.6C551,81.9,550.3,80.7,550.3,79.5z M566,79.3c0-1,0.6-2,1.8-2.9
		c1.2-0.9,2.8-1.4,4.7-1.4c2.2,0,3.7,0.4,4.5,1.2c0.8,0.8,1.2,1.9,1.2,3.1c0,1.7-0.8,3-2.3,3.8c-1.6,0.8-3.3,1.2-5.2,1.2
		c-1.1-0.3-2.2-0.8-3.2-1.4C566.5,82.3,566,81.1,566,79.3z"/>
	<path d="M579,58.6h12.1c1.3-0.3,2.5-0.6,3.8-1c1.3-0.4,1.9-0.9,1.9-1.7c-0.9-5.5-1.7-10.9-2.5-16.1c-0.8-5.2-1.4-8.8-1.9-11
		c-0.5-2.1-1.8-4.3-4-6.6c-2.2-2.2-3.3-4.7-3.3-7.4c0-2.2,1-4,3.1-5.6c2.1-1.5,4.2-2.3,6.5-2.3c1.5,0,2.9,0.8,4.2,2.3
		c1.3,1.5,1.9,3.2,1.9,5.1c0,0.5-0.1,1.4-0.2,2.7s-0.2,2.1-0.2,2.4c0,2.9,0.5,6.3,1.5,10.1c1,3.8,1.7,6.9,2.1,9.4
		c0.4,2.5,0.8,6.3,1.1,11.3c0.3,5,0.6,7.7,0.9,8.1c0.3,0.1,0.8,0.1,1.7,0.1c0.9,0,1.7,0,2.7,0c1.3,0,2,0,2.3,0c0.3,0,0.7,0,1.3,0
		v8.7h-10.4c-0.7,1.9-2.1,3.9-4.3,6.1c-2.2,2.2-4.5,3.6-7,4.3c0-1.1,0.4-2.7,1.3-4.7c0.9-2,1.5-3.9,1.8-5.7H579V58.6z"/>
	<path d="M730.9,67.3c-2.4,1.6-4.4,2.4-6.2,2.4s-3.3-0.2-4.6-0.7s-2.2-1-2.9-1.7H610.5v-8.7H714h6.9c0-2.7-0.7-4.7-2.2-6
		c-1.5-1.3-3.1-1.9-4.7-1.9h-77.6c-5.6,0-10.4-0.8-14.5-2.3c-4.1-1.6-6.1-4.2-6.1-7.8c0-4.5,3.7-9.2,11.2-14.2
		c7.5-5,15.2-7.5,23.2-7.5c3.9,0,6.8,0.5,8.6,1.5c1.8,1,2.7,2.9,2.7,5.7c0,1.7-0.4,2.8-1.1,3.4c-0.7,0.6-2.3,0.9-4.7,0.9
		c-2.5,0-4.5-0.6-5.9-1.7c-1.4-1.1-2.8-1.7-4-1.7c-1.7,0-5.3,1.6-10.7,4.9c-5.4,3.3-8.1,6.1-8.1,8.6c0,1.3,1.4,2.1,4.2,2.4
		c2.8,0.3,8.5,0.5,17.1,0.5h20h47.5c5.4,0,9.4,1.6,12,4.7c2.6,3.1,4.1,5.7,4.4,7.9c0.3,2.2,0.5,3.4,0.6,3.8c0.1,0.4,0.1,1,0.1,1.7
		c0,1.3-0.1,2.4-0.4,3.4C732.3,66,731.7,66.8,730.9,67.3z"/>
</g>
<g>
	<rect x="223" y="187.3" class="st2" width="553.2" height="55.5"/>
	<path class="st5" d="M243,208.8h-7.2v13.2h-4v-13.2h-7.2v-4h7.2v-13.2h4v13.2h7.2V208.8z"/>
	<path class="st5" d="M254.8,208c2,0,3.6,0.7,5,2s2,3,2,5s-0.7,3.7-2,5s-3,2-5,2c-2,0-3.6-0.7-4.9-2s-2-3-2-5s0.7-3.7,2-5
		S252.9,208,254.8,208z M258.6,215c0-1.1-0.4-2.1-1.1-2.8s-1.6-1.1-2.7-1.1c-1,0-1.9,0.4-2.6,1.1s-1.1,1.7-1.1,2.8
		c0,1.1,0.4,2,1.1,2.8s1.6,1.1,2.6,1.1c1.1,0,2-0.4,2.7-1.1S258.6,216.1,258.6,215z"/>
	<path class="st5" d="M265.3,191.6h4.1v13.1h15.6v-13.1h4v17.1h-9.8v13.4h-4.1v-13.4h-9.8V191.6z"/>
	<path class="st5" d="M300.9,213.1l13.4,5.5v4.1l-20.6-8.3l9.6-8.1l-9.2-8l20.3-7.7v4l-12.7,4.9l7.4,6.5L300.9,213.1z"/>
	<path class="st5" d="M338.9,218.1v-26.5h4v30.5h-24.7v-30.5h4.1v26.5H338.9z"/>
	<path class="st5" d="M354.6,208c2,0,3.6,0.7,5,2s2,3,2,5s-0.7,3.7-2,5s-3,2-5,2c-2,0-3.6-0.7-4.9-2s-2-3-2-5s0.7-3.7,2-5
		S352.7,208,354.6,208z M358.4,215c0-1.1-0.4-2.1-1.1-2.8s-1.6-1.1-2.7-1.1c-1,0-1.9,0.4-2.6,1.1s-1.1,1.7-1.1,2.8
		c0,1.1,0.4,2,1.1,2.8s1.6,1.1,2.6,1.1c1.1,0,2-0.4,2.7-1.1S358.4,216.1,358.4,215z"/>
	<path class="st5" d="M369,222.1h-4v-30.4h4V222.1z"/>
	<path class="st5" d="M392.5,208.8h-7.2v13.2h-4v-13.2H374v-4h7.2v-13.2h4v13.2h7.2V208.8z"/>
	<path class="st5" d="M417.9,222.1h-4v-30.4h4V222.1z"/>
	<path class="st5" d="M457.9,208.8h-7.2v13.2h-4v-13.2h-7.2v-4h7.2v-13.2h4v13.2h7.2V208.8z"/>
	<path class="st5" d="M485.4,222.1h-22.6v-30.4h22.6v4h-18.5V218h18.5V222.1z"/>
	<path class="st5" d="M497.8,208c2,0,3.6,0.7,5,2s2,3,2,5s-0.7,3.7-2,5s-3,2-5,2c-2,0-3.6-0.7-4.9-2s-2-3-2-5s0.7-3.7,2-5
		S495.9,208,497.8,208z M501.6,215c0-1.1-0.4-2.1-1.1-2.8s-1.6-1.1-2.7-1.1c-1,0-1.9,0.4-2.6,1.1s-1.1,1.7-1.1,2.8
		c0,1.1,0.4,2,1.1,2.8s1.6,1.1,2.6,1.1c1.1,0,2-0.4,2.7-1.1S501.6,216.1,501.6,215z"/>
	<path class="st5" d="M538.7,207c0,4.2-1.5,7.7-4.5,10.6s-6.5,4.4-10.7,4.4c-4.2,0-7.7-1.5-10.6-4.4s-4.4-6.5-4.5-10.6
		c0-4.2,1.4-7.8,4.4-10.9s6.5-4.5,10.7-4.5c4.2,0,7.8,1.5,10.8,4.5S538.7,202.8,538.7,207z M534.4,207c0-3.1-1-5.8-3.2-8
		s-4.8-3.3-7.8-3.3c-3,0-5.6,1.2-7.7,3.4s-3.1,4.9-3.1,7.9c0,3,1.1,5.5,3.2,7.7s4.6,3.3,7.6,3.3c3,0,5.6-1,7.7-3.2
		S534.4,210,534.4,207z M519.6,207c-0.1-1.1,0.3-2.1,1-2.9s1.7-1.3,2.9-1.2c1.1,0,2,0.5,2.8,1.3s1.1,1.8,1,2.9
		c-0.1,1-0.4,1.8-1.1,2.5s-1.6,1.1-2.6,1.1c-1.2,0-2.1-0.3-2.8-1S519.6,208,519.6,207z"/>
	<path class="st5" d="M573.9,207c0,4.2-1.5,7.7-4.5,10.6s-6.5,4.4-10.7,4.4c-4.2,0-7.7-1.5-10.6-4.4s-4.4-6.5-4.5-10.6
		c0-4.2,1.4-7.8,4.4-10.9s6.5-4.5,10.7-4.5c4.2,0,7.8,1.5,10.8,4.5S574,202.8,573.9,207z M569.7,207c0-3.1-1-5.8-3.2-8
		s-4.8-3.3-7.8-3.3c-3,0-5.6,1.2-7.7,3.4s-3.1,4.9-3.1,7.9c0,3,1.1,5.5,3.2,7.7s4.6,3.3,7.6,3.3c3,0,5.6-1,7.7-3.2
		S569.7,210,569.7,207z M554.8,207c-0.1-1.1,0.3-2.1,1-2.9s1.7-1.3,2.9-1.2c1.1,0,2,0.5,2.8,1.3s1.1,1.8,1,2.9
		c-0.1,1-0.4,1.8-1.1,2.5s-1.6,1.1-2.6,1.1c-1.2,0-2.1-0.3-2.8-1S554.9,208,554.8,207z"/>
	<path class="st5" d="M585.6,208c2,0,3.6,0.7,5,2s2,3,2,5s-0.7,3.7-2,5s-3,2-5,2c-2,0-3.6-0.7-4.9-2s-2-3-2-5s0.7-3.7,2-5
		S583.7,208,585.6,208z M589.4,215c0-1.1-0.4-2.1-1.1-2.8s-1.6-1.1-2.7-1.1c-1,0-1.9,0.4-2.6,1.1s-1.1,1.7-1.1,2.8
		c0,1.1,0.4,2,1.1,2.8s1.6,1.1,2.6,1.1c1.1,0,2-0.4,2.7-1.1S589.4,216.1,589.4,215z"/>
	<path class="st5" d="M600,222.1h-4v-30.4h4V222.1z"/>
	<path class="st5" d="M611.9,213.1l13.4,5.5v4.1l-20.6-8.3l9.6-8.1l-9.2-8l20.3-7.7v4l-12.7,4.9l7.4,6.5L611.9,213.1z"/>
	<path class="st5" d="M633.2,222.1h-4v-30.4h4V222.1z"/>
	<path class="st5" d="M658.5,222.1h-4v-30.4h4V222.1z"/>
	<path class="st5" d="M686.8,208.9c2,0,3.6,0.6,5,1.9s2,2.8,2,4.7c0,1.8-0.7,3.4-2,4.6s-3,1.9-5,1.9c-2,0-3.6-0.6-4.9-1.9
		s-2-2.8-2-4.6c0-1.8,0.7-3.4,2-4.7S684.8,208.9,686.8,208.9z M686.9,191.6c2,0,3.6,0.6,5,1.9s2,2.8,2,4.7c0,1.8-0.7,3.4-2,4.6
		s-3,1.9-5,1.9c-1.9,0-3.6-0.6-4.9-1.9s-2-2.8-2-4.6c0-1.9,0.7-3.4,2-4.7S685,191.6,686.9,191.6z M690.8,215.4c0-1.1-0.4-2-1.1-2.8
		s-1.7-1.1-2.8-1.1c-1.1,0-2,0.4-2.8,1.1s-1.2,1.7-1.2,2.8c0,1.1,0.4,2,1.2,2.8s1.7,1.1,2.8,1.1c1.1,0,2.1-0.4,2.8-1.1
		S690.8,216.5,690.8,215.4z M690.9,198.2c0-1.1-0.4-2.1-1.1-2.8s-1.7-1.1-2.8-1.1c-1.1,0-2,0.4-2.8,1.1s-1.1,1.7-1.1,2.8
		c0,1.1,0.4,2,1.1,2.8s1.7,1.1,2.8,1.1c1.1,0,2.1-0.4,2.8-1.1S690.9,199.3,690.9,198.2z"/>
	<path class="st5" d="M714.8,222.1H698v-4h6.4v-22.5H698v-4h16.8v4h-6.4v22.5h6.4V222.1z"/>
	<path class="st5" d="M737,191.6l12.8,30.5h-4.4l-10.7-25.3L724,222.1h-4.4l12.9-30.5H737z"/>
	<path class="st5" d="M760.5,208c2,0,3.6,0.7,5,2s2,3,2,5s-0.7,3.7-2,5s-3,2-5,2c-2,0-3.6-0.7-4.9-2s-2-3-2-5s0.7-3.7,2-5
		S758.5,208,760.5,208z M764.3,215c0-1.1-0.4-2.1-1.1-2.8s-1.6-1.1-2.7-1.1c-1,0-1.9,0.4-2.6,1.1s-1.1,1.7-1.1,2.8
		c0,1.1,0.4,2,1.1,2.8s1.6,1.1,2.6,1.1c1.1,0,2-0.4,2.7-1.1S764.3,216.1,764.3,215z"/>
</g>
</svg>
